<svg width="95" height="93" viewBox="0 0 95 93" fill="none" xmlns="http://www.w3.org/2000/svg">
<path d="M9.52461 62.84C10.3113 62.9867 10.9579 63.38 11.4646 64.02C11.9713 64.66 12.2246 65.3933 12.2246 66.22C12.2246 66.9667 12.0379 67.6267 11.6646 68.2C11.3046 68.76 10.7779 69.2 10.0846 69.52C9.39128 69.84 8.57128 70 7.62461 70H1.60461V56.04H7.36461C8.31128 56.04 9.12461 56.1933 9.80461 56.5C10.4979 56.8067 11.0179 57.2333 11.3646 57.78C11.7246 58.3267 11.9046 58.9467 11.9046 59.64C11.9046 60.4533 11.6846 61.1333 11.2446 61.68C10.8179 62.2267 10.2446 62.6133 9.52461 62.84ZM4.40461 61.8H6.96461C7.63128 61.8 8.14461 61.6533 8.50461 61.36C8.86461 61.0533 9.04461 60.62 9.04461 60.06C9.04461 59.5 8.86461 59.0667 8.50461 58.76C8.14461 58.4533 7.63128 58.3 6.96461 58.3H4.40461V61.8ZM7.22461 67.72C7.90461 67.72 8.43128 67.56 8.80461 67.24C9.19128 66.92 9.38461 66.4667 9.38461 65.88C9.38461 65.28 9.18461 64.8133 8.78461 64.48C8.38461 64.1333 7.84461 63.96 7.16461 63.96H4.40461V67.72H7.22461ZM19.3762 70.18C18.3095 70.18 17.3495 69.9467 16.4962 69.48C15.6428 69 14.9695 68.3267 14.4762 67.46C13.9962 66.5933 13.7562 65.5933 13.7562 64.46C13.7562 63.3267 14.0028 62.3267 14.4962 61.46C15.0028 60.5933 15.6895 59.9267 16.5562 59.46C17.4228 58.98 18.3895 58.74 19.4562 58.74C20.5228 58.74 21.4895 58.98 22.3562 59.46C23.2228 59.9267 23.9028 60.5933 24.3962 61.46C24.9028 62.3267 25.1562 63.3267 25.1562 64.46C25.1562 65.5933 24.8962 66.5933 24.3762 67.46C23.8695 68.3267 23.1762 69 22.2962 69.48C21.4295 69.9467 20.4562 70.18 19.3762 70.18ZM19.3762 67.74C19.8828 67.74 20.3562 67.62 20.7962 67.38C21.2495 67.1267 21.6095 66.7533 21.8762 66.26C22.1428 65.7667 22.2762 65.1667 22.2762 64.46C22.2762 63.4067 21.9962 62.6 21.4362 62.04C20.8895 61.4667 20.2162 61.18 19.4162 61.18C18.6162 61.18 17.9428 61.4667 17.3962 62.04C16.8628 62.6 16.5962 63.4067 16.5962 64.46C16.5962 65.5133 16.8562 66.3267 17.3762 66.9C17.9095 67.46 18.5762 67.74 19.3762 67.74ZM30.0101 60.64C30.3701 60.0533 30.8367 59.5933 31.4101 59.26C31.9967 58.9267 32.6634 58.76 33.4101 58.76V61.7H32.6701C31.7901 61.7 31.1234 61.9067 30.6701 62.32C30.2301 62.7333 30.0101 63.4533 30.0101 64.48V70H27.2101V58.92H30.0101V60.64ZM38.096 60.64C38.456 60.0533 38.9227 59.5933 39.496 59.26C40.0827 58.9267 40.7493 58.76 41.496 58.76V61.7H40.756C39.876 61.7 39.2093 61.9067 38.756 62.32C38.316 62.7333 38.096 63.4533 38.096 64.48V70H35.296V58.92H38.096V60.64ZM48.302 70.18C47.2353 70.18 46.2753 69.9467 45.422 69.48C44.5686 69 43.8953 68.3267 43.402 67.46C42.922 66.5933 42.682 65.5933 42.682 64.46C42.682 63.3267 42.9286 62.3267 43.422 61.46C43.9286 60.5933 44.6153 59.9267 45.482 59.46C46.3486 58.98 47.3153 58.74 48.382 58.74C49.4486 58.74 50.4153 58.98 51.282 59.46C52.1486 59.9267 52.8286 60.5933 53.322 61.46C53.8286 62.3267 54.082 63.3267 54.082 64.46C54.082 65.5933 53.822 66.5933 53.302 67.46C52.7953 68.3267 52.102 69 51.222 69.48C50.3553 69.9467 49.382 70.18 48.302 70.18ZM48.302 67.74C48.8086 67.74 49.282 67.62 49.722 67.38C50.1753 67.1267 50.5353 66.7533 50.802 66.26C51.0686 65.7667 51.202 65.1667 51.202 64.46C51.202 63.4067 50.922 62.6 50.362 62.04C49.8153 61.4667 49.142 61.18 48.342 61.18C47.542 61.18 46.8686 61.4667 46.322 62.04C45.7886 62.6 45.522 63.4067 45.522 64.46C45.522 65.5133 45.782 66.3267 46.302 66.9C46.8353 67.46 47.502 67.74 48.302 67.74ZM71.4959 58.92L68.2559 70H65.2359L63.2159 62.26L61.1959 70H58.1559L54.8959 58.92H57.7359L59.6959 67.36L61.8159 58.92H64.7759L66.8559 67.34L68.8159 58.92H71.4959ZM83.3109 64.22C83.3109 64.62 83.2842 64.98 83.2309 65.3H75.1309C75.1975 66.1 75.4775 66.7267 75.9709 67.18C76.4642 67.6333 77.0709 67.86 77.7909 67.86C78.8309 67.86 79.5709 67.4133 80.0109 66.52H83.0309C82.7109 67.5867 82.0975 68.4667 81.1909 69.16C80.2842 69.84 79.1709 70.18 77.8509 70.18C76.7842 70.18 75.8242 69.9467 74.9709 69.48C74.1309 69 73.4709 68.3267 72.9909 67.46C72.5242 66.5933 72.2909 65.5933 72.2909 64.46C72.2909 63.3133 72.5242 62.3067 72.9909 61.44C73.4575 60.5733 74.1109 59.9067 74.9509 59.44C75.7909 58.9733 76.7575 58.74 77.8509 58.74C78.9042 58.74 79.8442 58.9667 80.6709 59.42C81.5109 59.8733 82.1575 60.52 82.6109 61.36C83.0775 62.1867 83.3109 63.14 83.3109 64.22ZM80.4109 63.42C80.3975 62.7 80.1375 62.1267 79.6309 61.7C79.1242 61.26 78.5042 61.04 77.7709 61.04C77.0775 61.04 76.4909 61.2533 76.0109 61.68C75.5442 62.0933 75.2575 62.6733 75.1509 63.42H80.4109ZM91.4746 70L89.1946 66.56L87.1746 70H84.1746L87.7946 64.44L84.1346 58.92H87.2946L89.5546 62.34L91.5946 58.92H94.5946L90.9546 64.44L94.6346 70H91.4746ZM28.3969 76.04V90H25.5969V80.92L21.8569 90H19.7369L15.9769 80.92V90H13.1769V76.04H16.3569L20.7969 86.42L25.2369 76.04H28.3969ZM30.4452 84.42C30.4452 83.3 30.6652 82.3067 31.1052 81.44C31.5585 80.5733 32.1652 79.9067 32.9252 79.44C33.6985 78.9733 34.5585 78.74 35.5052 78.74C36.3318 78.74 37.0518 78.9067 37.6652 79.24C38.2918 79.5733 38.7918 79.9933 39.1652 80.5V78.92H41.9852V90H39.1652V88.38C38.8052 88.9 38.3052 89.3333 37.6652 89.68C37.0385 90.0133 36.3118 90.18 35.4852 90.18C34.5518 90.18 33.6985 89.94 32.9252 89.46C32.1652 88.98 31.5585 88.3067 31.1052 87.44C30.6652 86.56 30.4452 85.5533 30.4452 84.42ZM39.1652 84.46C39.1652 83.78 39.0318 83.2 38.7652 82.72C38.4985 82.2267 38.1385 81.8533 37.6852 81.6C37.2318 81.3333 36.7452 81.2 36.2252 81.2C35.7052 81.2 35.2252 81.3267 34.7852 81.58C34.3452 81.8333 33.9852 82.2067 33.7052 82.7C33.4385 83.18 33.3052 83.7533 33.3052 84.42C33.3052 85.0867 33.4385 85.6733 33.7052 86.18C33.9852 86.6733 34.3452 87.0533 34.7852 87.32C35.2385 87.5867 35.7185 87.72 36.2252 87.72C36.7452 87.72 37.2318 87.5933 37.6852 87.34C38.1385 87.0733 38.4985 86.7 38.7652 86.22C39.0318 85.7267 39.1652 85.14 39.1652 84.46ZM47.5198 80.64C47.8798 80.0533 48.3465 79.5933 48.9198 79.26C49.5065 78.9267 50.1732 78.76 50.9198 78.76V81.7H50.1798C49.2998 81.7 48.6332 81.9067 48.1798 82.32C47.7398 82.7333 47.5198 83.4533 47.5198 84.48V90H44.7198V78.92H47.5198V80.64ZM59.3658 90L55.6058 85.28V90H52.8058V75.2H55.6058V83.62L59.3258 78.92H62.9658L58.0858 84.48L63.0058 90H59.3658ZM74.7855 84.22C74.7855 84.62 74.7588 84.98 74.7055 85.3H66.6055C66.6721 86.1 66.9521 86.7267 67.4455 87.18C67.9388 87.6333 68.5455 87.86 69.2655 87.86C70.3055 87.86 71.0455 87.4133 71.4855 86.52H74.5055C74.1855 87.5867 73.5721 88.4667 72.6655 89.16C71.7588 89.84 70.6455 90.18 69.3255 90.18C68.2588 90.18 67.2988 89.9467 66.4455 89.48C65.6055 89 64.9455 88.3267 64.4655 87.46C63.9988 86.5933 63.7655 85.5933 63.7655 84.46C63.7655 83.3133 63.9988 82.3067 64.4655 81.44C64.9321 80.5733 65.5855 79.9067 66.4255 79.44C67.2655 78.9733 68.2321 78.74 69.3255 78.74C70.3788 78.74 71.3188 78.9667 72.1455 79.42C72.9855 79.8733 73.6321 80.52 74.0855 81.36C74.5521 82.1867 74.7855 83.14 74.7855 84.22ZM71.8855 83.42C71.8721 82.7 71.6121 82.1267 71.1055 81.7C70.5988 81.26 69.9788 81.04 69.2455 81.04C68.5521 81.04 67.9655 81.2533 67.4855 81.68C67.0188 82.0933 66.7321 82.6733 66.6255 83.42H71.8855ZM80.0892 81.22V86.58C80.0892 86.9533 80.1759 87.2267 80.3492 87.4C80.5359 87.56 80.8426 87.64 81.2692 87.64H82.5692V90H80.8092C78.4492 90 77.2692 88.8533 77.2692 86.56V81.22H75.9492V78.92H77.2692V76.18H80.0892V78.92H82.5692V81.22H80.0892Z" fill="#3C4D6B"/>
<rect x="25" width="45" height="45" rx="13" fill="#1CA440"/>
<path d="M42.5988 22.0317C43.3259 22.1846 43.9099 22.5432 44.351 23.1076C44.792 23.6602 45.0125 24.2951 45.0125 25.0123C45.0125 26.047 44.643 26.8701 43.904 27.4815C43.1769 28.0811 42.1578 28.381 40.8466 28.381H35V16H40.6499C41.9253 16 42.9206 16.2881 43.6358 16.8642C44.3629 17.4403 44.7264 18.2222 44.7264 19.2099C44.7264 19.9389 44.5298 20.5444 44.1364 21.0265C43.755 21.5085 43.2424 21.8436 42.5988 22.0317ZM38.0574 21.0088H40.0599C40.5605 21.0088 40.942 20.903 41.2042 20.6914C41.4783 20.468 41.6154 20.1446 41.6154 19.7213C41.6154 19.2981 41.4783 18.9747 41.2042 18.7513C40.942 18.5279 40.5605 18.4162 40.0599 18.4162H38.0574V21.0088ZM40.3102 25.9471C40.8228 25.9471 41.2161 25.8354 41.4903 25.612C41.7763 25.3768 41.9194 25.0417 41.9194 24.6067C41.9194 24.1717 41.7704 23.8307 41.4724 23.5838C41.1863 23.3369 40.787 23.2134 40.2745 23.2134H38.0574V25.9471H40.3102Z" fill="white"/>
<path d="M61 16V28.381H57.9426V20.9559L55.1355 28.381H52.6682L49.8432 20.9383V28.381H46.7858V16H50.3975L53.9197 24.5714L57.4062 16H61Z" fill="white"/>
</svg>
