<svg width="145" height="40" viewBox="0 0 145 40" fill="none" xmlns="http://www.w3.org/2000/svg">
<path fill-rule="evenodd" clip-rule="evenodd" d="M1.70711 1.70711C1.89464 1.89464 2 2.149 2 2.41421V20.6972C2 20.8946 1.94156 21.0877 1.83205 21.2519L0.549615 23.1756C0.384968 23.4225 0 23.306 0 23.0092V0.724264C0 0.456993 0.323142 0.323142 0.512132 0.512132L1.70711 1.70711Z" fill="#F51F8A"/>
<path fill-rule="evenodd" clip-rule="evenodd" d="M5.74984 3.98315C5.91104 4.16585 6 4.40112 6 4.64477L6 16.3552C6 16.5989 5.91104 16.8342 5.74984 17.0169L4.52495 18.4051C4.34208 18.6123 4 18.483 4 18.2066L4 2.79343C4 2.51704 4.34208 2.38769 4.52495 2.59495L5.74984 3.98315Z" fill="#F51F8A"/>
<path fill-rule="evenodd" clip-rule="evenodd" d="M2.59204 24.5808C5.81431 17.5993 12.2826 16.3162 15.0665 16.5018C18.5561 16.7344 21.5651 18.2602 23.2766 20.3698C25.1717 22.7058 26 25.6556 26 27.9998C26 33.6737 22.0339 36.939 19.9553 37.903C17.99 39.0065 15.9492 39.1815 14.2685 39.0015C12.8931 38.8541 11.7159 38.4651 10.9484 38.108C10.698 37.9915 10.6149 37.6856 10.7519 37.4459L11.2481 36.5776C11.3851 36.3379 11.6912 36.2537 11.9448 36.3631C12.5194 36.611 13.4179 36.8989 14.4815 37.0128C15.8732 37.1619 17.4833 37.0071 19.0062 36.1422L19.0453 36.12L19.0862 36.1014C20.6861 35.3742 24 32.688 24 27.9998C24 26.0657 23.3001 23.5734 21.7234 21.6299C20.4148 20.0168 17.9568 18.6989 14.9335 18.4973C12.7174 18.3496 7.18569 19.4006 4.40796 25.4189C3.35156 27.7077 2.08131 33.2669 2.00374 38.5C1.99964 38.7761 1.77614 39 1.5 39H0.5C0.223858 39 -0.000339907 38.7762 0.00353249 38.5001C0.0807642 32.9932 1.41021 27.1414 2.59204 24.5808ZM15.5564 21.0345C17.1962 21.273 18.4882 22.0856 19.2071 22.8045L19.2279 22.8253L19.2474 22.8473C21.0452 24.8698 21.4672 26.961 21.1882 28.7645C20.9171 30.5175 19.997 31.9288 19.2071 32.7187L19.18 32.7459L19.1508 32.7709C17.4987 34.1869 15.6588 34.4828 14.0722 34.2784C12.7634 34.1098 11.6108 33.6018 10.8117 33.095C10.5785 32.9471 10.5343 32.6326 10.7 32.4116L11.3 31.6116C11.4657 31.3907 11.7788 31.347 12.0163 31.488C12.5937 31.8311 13.4157 32.1773 14.3278 32.2948C15.4481 32.4392 16.6798 32.2398 17.8194 31.2777C18.3582 30.7274 19.0194 29.702 19.2118 28.4588C19.3985 27.2515 19.1572 25.768 17.7731 24.1991C17.3187 23.754 16.4201 23.1812 15.2686 23.0137C14.1398 22.8496 12.7039 23.0643 11.114 24.301C9.94611 25.2093 7.1262 29.0586 7.0041 36.5095C6.99957 36.7856 6.77614 37.0118 6.5 37.0118H5.5C5.22386 37.0118 4.9996 36.7856 5.00387 36.5094C5.12606 28.6019 8.11698 24.0983 9.88605 22.7223C11.8961 21.159 13.8769 20.7903 15.5564 21.0345Z" fill="#F51F8A"/>
<path d="M45.688 16.36C46.664 16.568 47.448 17.056 48.04 17.824C48.632 18.576 48.928 19.44 48.928 20.416C48.928 21.824 48.432 22.944 47.44 23.776C46.464 24.592 45.096 25 43.336 25H35.488V8.152H43.072C44.784 8.152 46.12 8.544 47.08 9.328C48.056 10.112 48.544 11.176 48.544 12.52C48.544 13.512 48.28 14.336 47.752 14.992C47.24 15.648 46.552 16.104 45.688 16.36ZM39.592 14.968H42.28C42.952 14.968 43.464 14.824 43.816 14.536C44.184 14.232 44.368 13.792 44.368 13.216C44.368 12.64 44.184 12.2 43.816 11.896C43.464 11.592 42.952 11.44 42.28 11.44H39.592V14.968ZM42.616 21.688C43.304 21.688 43.832 21.536 44.2 21.232C44.584 20.912 44.776 20.456 44.776 19.864C44.776 19.272 44.576 18.808 44.176 18.472C43.792 18.136 43.256 17.968 42.568 17.968H39.592V21.688H42.616ZM59.2763 25.168C57.6923 25.168 56.2363 24.8 54.9083 24.064C53.5963 23.328 52.5483 22.304 51.7643 20.992C50.9963 19.664 50.6123 18.176 50.6123 16.528C50.6123 14.88 50.9963 13.4 51.7643 12.088C52.5483 10.776 53.5963 9.752 54.9083 9.016C56.2363 8.28 57.6923 7.912 59.2763 7.912C60.8603 7.912 62.3083 8.28 63.6203 9.016C64.9483 9.752 65.9883 10.776 66.7403 12.088C67.5083 13.4 67.8923 14.88 67.8923 16.528C67.8923 18.176 67.5083 19.664 66.7403 20.992C65.9723 22.304 64.9323 23.328 63.6203 24.064C62.3083 24.8 60.8603 25.168 59.2763 25.168ZM59.2763 21.424C60.6203 21.424 61.6923 20.976 62.4923 20.08C63.3083 19.184 63.7163 18 63.7163 16.528C63.7163 15.04 63.3083 13.856 62.4923 12.976C61.6923 12.08 60.6203 11.632 59.2763 11.632C57.9163 11.632 56.8283 12.072 56.0123 12.952C55.2123 13.832 54.8123 15.024 54.8123 16.528C54.8123 18.016 55.2123 19.208 56.0123 20.104C56.8283 20.984 57.9163 21.424 59.2763 21.424ZM78.7675 25L75.2635 18.64H74.2795V25H70.1755V8.152H77.0635C78.3915 8.152 79.5195 8.384 80.4475 8.848C81.3915 9.312 82.0955 9.952 82.5595 10.768C83.0235 11.568 83.2555 12.464 83.2555 13.456C83.2555 14.576 82.9355 15.576 82.2955 16.456C81.6715 17.336 80.7435 17.96 79.5115 18.328L83.3995 25H78.7675ZM74.2795 15.736H76.8235C77.5755 15.736 78.1355 15.552 78.5035 15.184C78.8875 14.816 79.0795 14.296 79.0795 13.624C79.0795 12.984 78.8875 12.48 78.5035 12.112C78.1355 11.744 77.5755 11.56 76.8235 11.56H74.2795V15.736ZM94.4238 25L90.9198 18.64H89.9358V25H85.8318V8.152H92.7198C94.0478 8.152 95.1758 8.384 96.1038 8.848C97.0478 9.312 97.7518 9.952 98.2158 10.768C98.6798 11.568 98.9118 12.464 98.9118 13.456C98.9118 14.576 98.5918 15.576 97.9518 16.456C97.3278 17.336 96.3998 17.96 95.1678 18.328L99.0558 25H94.4238ZM89.9358 15.736H92.4798C93.2318 15.736 93.7918 15.552 94.1598 15.184C94.5438 14.816 94.7358 14.296 94.7358 13.624C94.7358 12.984 94.5438 12.48 94.1598 12.112C93.7918 11.744 93.2318 11.56 92.4798 11.56H89.9358V15.736ZM109.456 25.168C107.872 25.168 106.416 24.8 105.088 24.064C103.776 23.328 102.728 22.304 101.944 20.992C101.176 19.664 100.792 18.176 100.792 16.528C100.792 14.88 101.176 13.4 101.944 12.088C102.728 10.776 103.776 9.752 105.088 9.016C106.416 8.28 107.872 7.912 109.456 7.912C111.04 7.912 112.488 8.28 113.8 9.016C115.128 9.752 116.168 10.776 116.92 12.088C117.688 13.4 118.072 14.88 118.072 16.528C118.072 18.176 117.688 19.664 116.92 20.992C116.152 22.304 115.112 23.328 113.8 24.064C112.488 24.8 111.04 25.168 109.456 25.168ZM109.456 21.424C110.8 21.424 111.872 20.976 112.672 20.08C113.488 19.184 113.896 18 113.896 16.528C113.896 15.04 113.488 13.856 112.672 12.976C111.872 12.08 110.8 11.632 109.456 11.632C108.096 11.632 107.008 12.072 106.192 12.952C105.392 13.832 104.992 15.024 104.992 16.528C104.992 18.016 105.392 19.208 106.192 20.104C107.008 20.984 108.096 21.424 109.456 21.424ZM143.539 8.152L139.147 25H134.179L131.491 13.912L128.707 25H123.739L119.467 8.152H123.859L126.283 20.416L129.283 8.152H133.795L136.675 20.416L139.123 8.152H143.539Z" fill="#15549A"/>
<path d="M35.35 34.5C35.35 33.8133 35.5033 33.2 35.81 32.66C36.1233 32.1133 36.5467 31.69 37.08 31.39C37.62 31.0833 38.2233 30.93 38.89 30.93C39.67 30.93 40.3533 31.13 40.94 31.53C41.5267 31.93 41.9367 32.4833 42.17 33.19H40.56C40.4 32.8567 40.1733 32.6067 39.88 32.44C39.5933 32.2733 39.26 32.19 38.88 32.19C38.4733 32.19 38.11 32.2867 37.79 32.48C37.4767 32.6667 37.23 32.9333 37.05 33.28C36.8767 33.6267 36.79 34.0333 36.79 34.5C36.79 34.96 36.8767 35.3667 37.05 35.72C37.23 36.0667 37.4767 36.3367 37.79 36.53C38.11 36.7167 38.4733 36.81 38.88 36.81C39.26 36.81 39.5933 36.7267 39.88 36.56C40.1733 36.3867 40.4 36.1333 40.56 35.8H42.17C41.9367 36.5133 41.5267 37.07 40.94 37.47C40.36 37.8633 39.6767 38.06 38.89 38.06C38.2233 38.06 37.62 37.91 37.08 37.61C36.5467 37.3033 36.1233 36.88 35.81 36.34C35.5033 35.8 35.35 35.1867 35.35 34.5ZM48.4058 38.07C47.7524 38.07 47.1524 37.9167 46.6058 37.61C46.0591 37.3033 45.6258 36.88 45.3058 36.34C44.9858 35.7933 44.8258 35.1767 44.8258 34.49C44.8258 33.81 44.9858 33.2 45.3058 32.66C45.6258 32.1133 46.0591 31.6867 46.6058 31.38C47.1524 31.0733 47.7524 30.92 48.4058 30.92C49.0658 30.92 49.6658 31.0733 50.2058 31.38C50.7524 31.6867 51.1824 32.1133 51.4958 32.66C51.8158 33.2 51.9758 33.81 51.9758 34.49C51.9758 35.1767 51.8158 35.7933 51.4958 36.34C51.1824 36.88 50.7524 37.3033 50.2058 37.61C49.6591 37.9167 49.0591 38.07 48.4058 38.07ZM48.4058 36.82C48.8258 36.82 49.1958 36.7267 49.5158 36.54C49.8358 36.3467 50.0858 36.0733 50.2658 35.72C50.4458 35.3667 50.5358 34.9567 50.5358 34.49C50.5358 34.0233 50.4458 33.6167 50.2658 33.27C50.0858 32.9167 49.8358 32.6467 49.5158 32.46C49.1958 32.2733 48.8258 32.18 48.4058 32.18C47.9858 32.18 47.6124 32.2733 47.2858 32.46C46.9658 32.6467 46.7158 32.9167 46.5358 33.27C46.3558 33.6167 46.2658 34.0233 46.2658 34.49C46.2658 34.9567 46.3558 35.3667 46.5358 35.72C46.7158 36.0733 46.9658 36.3467 47.2858 36.54C47.6124 36.7267 47.9858 36.82 48.4058 36.82ZM62.4273 31.02V38H61.0273V33.46L59.1573 38H58.0973L56.2173 33.46V38H54.8173V31.02H56.4073L58.6273 36.21L60.8473 31.02H62.4273ZM70.7015 33.18C70.7015 33.5533 70.6115 33.9033 70.4315 34.23C70.2582 34.5567 69.9815 34.82 69.6015 35.02C69.2282 35.22 68.7548 35.32 68.1815 35.32H67.0115V38H65.6115V31.02H68.1815C68.7215 31.02 69.1815 31.1133 69.5615 31.3C69.9415 31.4867 70.2248 31.7433 70.4115 32.07C70.6048 32.3967 70.7015 32.7667 70.7015 33.18ZM68.1215 34.19C68.5082 34.19 68.7948 34.1033 68.9815 33.93C69.1682 33.75 69.2615 33.5 69.2615 33.18C69.2615 32.5 68.8815 32.16 68.1215 32.16H67.0115V34.19H68.1215ZM77.7755 36.67H74.9955L74.5355 38H73.0655L75.5755 31.01H77.2055L79.7155 38H78.2355L77.7755 36.67ZM77.3955 35.55L76.3855 32.63L75.3755 35.55H77.3955ZM86.0537 38L84.5137 35.28H83.8537V38H82.4537V31.02H85.0737C85.6137 31.02 86.0737 31.1167 86.4537 31.31C86.8337 31.4967 87.117 31.7533 87.3037 32.08C87.497 32.4 87.5937 32.76 87.5937 33.16C87.5937 33.62 87.4603 34.0367 87.1937 34.41C86.927 34.7767 86.5303 35.03 86.0037 35.17L87.6737 38H86.0537ZM83.8537 34.23H85.0237C85.4037 34.23 85.687 34.14 85.8737 33.96C86.0603 33.7733 86.1537 33.5167 86.1537 33.19C86.1537 32.87 86.0603 32.6233 85.8737 32.45C85.687 32.27 85.4037 32.18 85.0237 32.18H83.8537V34.23ZM92.0599 32.15V33.9H94.4099V35.01H92.0599V36.86H94.7099V38H90.6599V31.01H94.7099V32.15H92.0599ZM106.225 33.84V35.02H101.985V33.84H106.225ZM112.005 38.07C111.518 38.07 111.078 37.9867 110.685 37.82C110.298 37.6533 109.992 37.4133 109.765 37.1C109.538 36.7867 109.422 36.4167 109.415 35.99H110.915C110.935 36.2767 111.035 36.5033 111.215 36.67C111.402 36.8367 111.655 36.92 111.975 36.92C112.302 36.92 112.558 36.8433 112.745 36.69C112.932 36.53 113.025 36.3233 113.025 36.07C113.025 35.8633 112.962 35.6933 112.835 35.56C112.708 35.4267 112.548 35.3233 112.355 35.25C112.168 35.17 111.908 35.0833 111.575 34.99C111.122 34.8567 110.752 34.7267 110.465 34.6C110.185 34.4667 109.942 34.27 109.735 34.01C109.535 33.7433 109.435 33.39 109.435 32.95C109.435 32.5367 109.538 32.1767 109.745 31.87C109.952 31.5633 110.242 31.33 110.615 31.17C110.988 31.0033 111.415 30.92 111.895 30.92C112.615 30.92 113.198 31.0967 113.645 31.45C114.098 31.7967 114.348 32.2833 114.395 32.91H112.855C112.842 32.67 112.738 32.4733 112.545 32.32C112.358 32.16 112.108 32.08 111.795 32.08C111.522 32.08 111.302 32.15 111.135 32.29C110.975 32.43 110.895 32.6333 110.895 32.9C110.895 33.0867 110.955 33.2433 111.075 33.37C111.202 33.49 111.355 33.59 111.535 33.67C111.722 33.7433 111.982 33.83 112.315 33.93C112.768 34.0633 113.138 34.1967 113.425 34.33C113.712 34.4633 113.958 34.6633 114.165 34.93C114.372 35.1967 114.475 35.5467 114.475 35.98C114.475 36.3533 114.378 36.7 114.185 37.02C113.992 37.34 113.708 37.5967 113.335 37.79C112.962 37.9767 112.518 38.07 112.005 38.07ZM123.279 31.02V38H121.879V35.03H118.889V38H117.489V31.02H118.889V33.89H121.879V31.02H123.279ZM129.697 38.07C129.043 38.07 128.443 37.9167 127.897 37.61C127.35 37.3033 126.917 36.88 126.597 36.34C126.277 35.7933 126.117 35.1767 126.117 34.49C126.117 33.81 126.277 33.2 126.597 32.66C126.917 32.1133 127.35 31.6867 127.897 31.38C128.443 31.0733 129.043 30.92 129.697 30.92C130.357 30.92 130.957 31.0733 131.497 31.38C132.043 31.6867 132.473 32.1133 132.787 32.66C133.107 33.2 133.267 33.81 133.267 34.49C133.267 35.1767 133.107 35.7933 132.787 36.34C132.473 36.88 132.043 37.3033 131.497 37.61C130.95 37.9167 130.35 38.07 129.697 38.07ZM129.697 36.82C130.117 36.82 130.487 36.7267 130.807 36.54C131.127 36.3467 131.377 36.0733 131.557 35.72C131.737 35.3667 131.827 34.9567 131.827 34.49C131.827 34.0233 131.737 33.6167 131.557 33.27C131.377 32.9167 131.127 32.6467 130.807 32.46C130.487 32.2733 130.117 32.18 129.697 32.18C129.277 32.18 128.903 32.2733 128.577 32.46C128.257 32.6467 128.007 32.9167 127.827 33.27C127.647 33.6167 127.557 34.0233 127.557 34.49C127.557 34.9567 127.647 35.3667 127.827 35.72C128.007 36.0733 128.257 36.3467 128.577 36.54C128.903 36.7267 129.277 36.82 129.697 36.82ZM141.198 33.18C141.198 33.5533 141.108 33.9033 140.928 34.23C140.755 34.5567 140.478 34.82 140.098 35.02C139.725 35.22 139.252 35.32 138.678 35.32H137.508V38H136.108V31.02H138.678C139.218 31.02 139.678 31.1133 140.058 31.3C140.438 31.4867 140.722 31.7433 140.908 32.07C141.102 32.3967 141.198 32.7667 141.198 33.18ZM138.618 34.19C139.005 34.19 139.292 34.1033 139.478 33.93C139.665 33.75 139.758 33.5 139.758 33.18C139.758 32.5 139.378 32.16 138.618 32.16H137.508V34.19H138.618Z" fill="#778191"/>
</svg>
