<svg width="145" height="40" viewBox="0 0 145 40" fill="none" xmlns="http://www.w3.org/2000/svg">
<path fill-rule="evenodd" clip-rule="evenodd" d="M1.70711 1.70711C1.89464 1.89464 2 2.149 2 2.41421V20.6972C2 20.8946 1.94156 21.0877 1.83205 21.2519L0.549615 23.1756C0.384968 23.4225 0 23.306 0 23.0092V0.724264C0 0.456993 0.323142 0.323142 0.512132 0.512132L1.70711 1.70711Z" fill="#F51F8A"/>
<path fill-rule="evenodd" clip-rule="evenodd" d="M5.74984 3.98315C5.91104 4.16585 6 4.40112 6 4.64477L6 16.3552C6 16.5989 5.91104 16.8342 5.74984 17.0169L4.52495 18.4051C4.34208 18.6123 4 18.483 4 18.2066L4 2.79343C4 2.51704 4.34208 2.38769 4.52495 2.59495L5.74984 3.98315Z" fill="#F51F8A"/>
<path fill-rule="evenodd" clip-rule="evenodd" d="M2.59204 24.5808C5.81431 17.5993 12.2826 16.3162 15.0665 16.5018C18.5561 16.7344 21.5651 18.2602 23.2766 20.3698C25.1717 22.7058 26 25.6556 26 27.9998C26 33.6737 22.0339 36.939 19.9553 37.903C17.99 39.0065 15.9492 39.1815 14.2685 39.0015C12.8931 38.8541 11.7159 38.4651 10.9484 38.108C10.698 37.9915 10.6149 37.6856 10.7519 37.4459L11.2481 36.5776C11.3851 36.3379 11.6912 36.2537 11.9448 36.3631C12.5194 36.611 13.4179 36.8989 14.4815 37.0128C15.8732 37.1619 17.4833 37.0071 19.0062 36.1422L19.0453 36.12L19.0862 36.1014C20.6861 35.3742 24 32.688 24 27.9998C24 26.0657 23.3001 23.5734 21.7234 21.6299C20.4148 20.0168 17.9568 18.6989 14.9335 18.4973C12.7174 18.3496 7.18569 19.4006 4.40796 25.4189C3.35156 27.7077 2.08131 33.2669 2.00374 38.5C1.99964 38.7761 1.77614 39 1.5 39H0.5C0.223858 39 -0.000339907 38.7762 0.00353249 38.5001C0.0807642 32.9932 1.41021 27.1414 2.59204 24.5808ZM15.5564 21.0345C17.1962 21.273 18.4882 22.0856 19.2071 22.8045L19.2279 22.8253L19.2474 22.8473C21.0452 24.8698 21.4672 26.961 21.1882 28.7645C20.9171 30.5175 19.997 31.9288 19.2071 32.7187L19.18 32.7459L19.1508 32.7709C17.4987 34.1869 15.6588 34.4828 14.0722 34.2784C12.7634 34.1098 11.6108 33.6018 10.8117 33.095C10.5785 32.9471 10.5343 32.6326 10.7 32.4116L11.3 31.6116C11.4657 31.3907 11.7788 31.347 12.0163 31.488C12.5937 31.8311 13.4157 32.1773 14.3278 32.2948C15.4481 32.4392 16.6798 32.2398 17.8194 31.2777C18.3582 30.7274 19.0194 29.702 19.2118 28.4588C19.3985 27.2515 19.1572 25.768 17.7731 24.1991C17.3187 23.754 16.4201 23.1812 15.2686 23.0137C14.1398 22.8496 12.7039 23.0643 11.114 24.301C9.94611 25.2093 7.1262 29.0586 7.0041 36.5095C6.99957 36.7856 6.77614 37.0118 6.5 37.0118H5.5C5.22386 37.0118 4.9996 36.7856 5.00387 36.5094C5.12606 28.6019 8.11698 24.0983 9.88605 22.7223C11.8961 21.159 13.8769 20.7903 15.5564 21.0345Z" fill="#F51F8A"/>
<path d="M45.688 12.36C46.664 12.568 47.448 13.056 48.04 13.824C48.632 14.576 48.928 15.44 48.928 16.416C48.928 17.824 48.432 18.944 47.44 19.776C46.464 20.592 45.096 21 43.336 21H35.488V4.152H43.072C44.784 4.152 46.12 4.544 47.08 5.328C48.056 6.112 48.544 7.176 48.544 8.52C48.544 9.512 48.28 10.336 47.752 10.992C47.24 11.648 46.552 12.104 45.688 12.36ZM39.592 10.968H42.28C42.952 10.968 43.464 10.824 43.816 10.536C44.184 10.232 44.368 9.792 44.368 9.216C44.368 8.64 44.184 8.2 43.816 7.896C43.464 7.592 42.952 7.44 42.28 7.44H39.592V10.968ZM42.616 17.688C43.304 17.688 43.832 17.536 44.2 17.232C44.584 16.912 44.776 16.456 44.776 15.864C44.776 15.272 44.576 14.808 44.176 14.472C43.792 14.136 43.256 13.968 42.568 13.968H39.592V17.688H42.616ZM59.2763 21.168C57.6923 21.168 56.2363 20.8 54.9083 20.064C53.5963 19.328 52.5483 18.304 51.7643 16.992C50.9963 15.664 50.6123 14.176 50.6123 12.528C50.6123 10.88 50.9963 9.4 51.7643 8.088C52.5483 6.776 53.5963 5.752 54.9083 5.016C56.2363 4.28 57.6923 3.912 59.2763 3.912C60.8603 3.912 62.3083 4.28 63.6203 5.016C64.9483 5.752 65.9883 6.776 66.7403 8.088C67.5083 9.4 67.8923 10.88 67.8923 12.528C67.8923 14.176 67.5083 15.664 66.7403 16.992C65.9723 18.304 64.9323 19.328 63.6203 20.064C62.3083 20.8 60.8603 21.168 59.2763 21.168ZM59.2763 17.424C60.6203 17.424 61.6923 16.976 62.4923 16.08C63.3083 15.184 63.7163 14 63.7163 12.528C63.7163 11.04 63.3083 9.856 62.4923 8.976C61.6923 8.08 60.6203 7.632 59.2763 7.632C57.9163 7.632 56.8283 8.072 56.0123 8.952C55.2123 9.832 54.8123 11.024 54.8123 12.528C54.8123 14.016 55.2123 15.208 56.0123 16.104C56.8283 16.984 57.9163 17.424 59.2763 17.424ZM78.7675 21L75.2635 14.64H74.2795V21H70.1755V4.152H77.0635C78.3915 4.152 79.5195 4.384 80.4475 4.848C81.3915 5.312 82.0955 5.952 82.5595 6.768C83.0235 7.568 83.2555 8.464 83.2555 9.456C83.2555 10.576 82.9355 11.576 82.2955 12.456C81.6715 13.336 80.7435 13.96 79.5115 14.328L83.3995 21H78.7675ZM74.2795 11.736H76.8235C77.5755 11.736 78.1355 11.552 78.5035 11.184C78.8875 10.816 79.0795 10.296 79.0795 9.624C79.0795 8.984 78.8875 8.48 78.5035 8.112C78.1355 7.744 77.5755 7.56 76.8235 7.56H74.2795V11.736ZM94.4238 21L90.9198 14.64H89.9358V21H85.8318V4.152H92.7198C94.0478 4.152 95.1758 4.384 96.1038 4.848C97.0478 5.312 97.7518 5.952 98.2158 6.768C98.6798 7.568 98.9118 8.464 98.9118 9.456C98.9118 10.576 98.5918 11.576 97.9518 12.456C97.3278 13.336 96.3998 13.96 95.1678 14.328L99.0558 21H94.4238ZM89.9358 11.736H92.4798C93.2318 11.736 93.7918 11.552 94.1598 11.184C94.5438 10.816 94.7358 10.296 94.7358 9.624C94.7358 8.984 94.5438 8.48 94.1598 8.112C93.7918 7.744 93.2318 7.56 92.4798 7.56H89.9358V11.736ZM109.456 21.168C107.872 21.168 106.416 20.8 105.088 20.064C103.776 19.328 102.728 18.304 101.944 16.992C101.176 15.664 100.792 14.176 100.792 12.528C100.792 10.88 101.176 9.4 101.944 8.088C102.728 6.776 103.776 5.752 105.088 5.016C106.416 4.28 107.872 3.912 109.456 3.912C111.04 3.912 112.488 4.28 113.8 5.016C115.128 5.752 116.168 6.776 116.92 8.088C117.688 9.4 118.072 10.88 118.072 12.528C118.072 14.176 117.688 15.664 116.92 16.992C116.152 18.304 115.112 19.328 113.8 20.064C112.488 20.8 111.04 21.168 109.456 21.168ZM109.456 17.424C110.8 17.424 111.872 16.976 112.672 16.08C113.488 15.184 113.896 14 113.896 12.528C113.896 11.04 113.488 9.856 112.672 8.976C111.872 8.08 110.8 7.632 109.456 7.632C108.096 7.632 107.008 8.072 106.192 8.952C105.392 9.832 104.992 11.024 104.992 12.528C104.992 14.016 105.392 15.208 106.192 16.104C107.008 16.984 108.096 17.424 109.456 17.424ZM143.539 4.152L139.147 21H134.179L131.491 9.912L128.707 21H123.739L119.467 4.152H123.859L126.283 16.416L129.283 4.152H133.795L136.675 16.416L139.123 4.152H143.539Z" fill="#15549A"/>
<path d="M39 28.02V29.15H36.09V30.94H38.32V32.05H36.09V35H34.69V28.02H39ZM44.7327 35.07C44.0794 35.07 43.4794 34.9167 42.9327 34.61C42.3861 34.3033 41.9527 33.88 41.6327 33.34C41.3127 32.7933 41.1527 32.1767 41.1527 31.49C41.1527 30.81 41.3127 30.2 41.6327 29.66C41.9527 29.1133 42.3861 28.6867 42.9327 28.38C43.4794 28.0733 44.0794 27.92 44.7327 27.92C45.3927 27.92 45.9927 28.0733 46.5327 28.38C47.0794 28.6867 47.5094 29.1133 47.8227 29.66C48.1427 30.2 48.3027 30.81 48.3027 31.49C48.3027 32.1767 48.1427 32.7933 47.8227 33.34C47.5094 33.88 47.0794 34.3033 46.5327 34.61C45.9861 34.9167 45.3861 35.07 44.7327 35.07ZM44.7327 33.82C45.1527 33.82 45.5227 33.7267 45.8427 33.54C46.1627 33.3467 46.4127 33.0733 46.5927 32.72C46.7727 32.3667 46.8627 31.9567 46.8627 31.49C46.8627 31.0233 46.7727 30.6167 46.5927 30.27C46.4127 29.9167 46.1627 29.6467 45.8427 29.46C45.5227 29.2733 45.1527 29.18 44.7327 29.18C44.3127 29.18 43.9394 29.2733 43.6127 29.46C43.2927 29.6467 43.0427 29.9167 42.8627 30.27C42.6827 30.6167 42.5927 31.0233 42.5927 31.49C42.5927 31.9567 42.6827 32.3667 42.8627 32.72C43.0427 33.0733 43.2927 33.3467 43.6127 33.54C43.9394 33.7267 44.3127 33.82 44.7327 33.82ZM54.4443 35L52.9043 32.28H52.2443V35H50.8443V28.02H53.4643C54.0043 28.02 54.4643 28.1167 54.8443 28.31C55.2243 28.4967 55.5076 28.7533 55.6943 29.08C55.8876 29.4 55.9843 29.76 55.9843 30.16C55.9843 30.62 55.851 31.0367 55.5843 31.41C55.3176 31.7767 54.921 32.03 54.3943 32.17L56.0643 35H54.4443ZM52.2443 31.23H53.4143C53.7943 31.23 54.0776 31.14 54.2643 30.96C54.451 30.7733 54.5443 30.5167 54.5443 30.19C54.5443 29.87 54.451 29.6233 54.2643 29.45C54.0776 29.27 53.7943 29.18 53.4143 29.18H52.2443V31.23ZM60.1505 29.15V30.9H62.5005V32.01H60.1505V33.86H62.8005V35H58.7505V28.01H62.8005V29.15H60.1505ZM69.7528 35L68.2428 32.65L66.8728 35H65.2928L67.4928 31.48L65.2628 28.02H66.8728L68.3828 30.36L69.7428 28.02H71.3228L69.1328 31.53L71.3628 35H69.7528ZM78.1883 30.84V32.02H73.9483V30.84H78.1883ZM80.9184 31.5C80.9184 30.8133 81.0717 30.2 81.3784 29.66C81.6917 29.1133 82.115 28.69 82.6484 28.39C83.1884 28.0833 83.7917 27.93 84.4584 27.93C85.2384 27.93 85.9217 28.13 86.5084 28.53C87.095 28.93 87.505 29.4833 87.7384 30.19H86.1284C85.9684 29.8567 85.7417 29.6067 85.4484 29.44C85.1617 29.2733 84.8284 29.19 84.4484 29.19C84.0417 29.19 83.6784 29.2867 83.3584 29.48C83.045 29.6667 82.7984 29.9333 82.6184 30.28C82.445 30.6267 82.3584 31.0333 82.3584 31.5C82.3584 31.96 82.445 32.3667 82.6184 32.72C82.7984 33.0667 83.045 33.3367 83.3584 33.53C83.6784 33.7167 84.0417 33.81 84.4484 33.81C84.8284 33.81 85.1617 33.7267 85.4484 33.56C85.7417 33.3867 85.9684 33.1333 86.1284 32.8H87.7384C87.505 33.5133 87.095 34.07 86.5084 34.47C85.9284 34.8633 85.245 35.06 84.4584 35.06C83.7917 35.06 83.1884 34.91 82.6484 34.61C82.115 34.3033 81.6917 33.88 81.3784 33.34C81.0717 32.8 80.9184 32.1867 80.9184 31.5ZM93.6741 35.07C93.0208 35.07 92.4208 34.9167 91.8741 34.61C91.3275 34.3033 90.8941 33.88 90.5741 33.34C90.2541 32.7933 90.0941 32.1767 90.0941 31.49C90.0941 30.81 90.2541 30.2 90.5741 29.66C90.8941 29.1133 91.3275 28.6867 91.8741 28.38C92.4208 28.0733 93.0208 27.92 93.6741 27.92C94.3341 27.92 94.9341 28.0733 95.4741 28.38C96.0208 28.6867 96.4508 29.1133 96.7641 29.66C97.0841 30.2 97.2441 30.81 97.2441 31.49C97.2441 32.1767 97.0841 32.7933 96.7641 33.34C96.4508 33.88 96.0208 34.3033 95.4741 34.61C94.9275 34.9167 94.3275 35.07 93.6741 35.07ZM93.6741 33.82C94.0941 33.82 94.4641 33.7267 94.7841 33.54C95.1041 33.3467 95.3541 33.0733 95.5341 32.72C95.7141 32.3667 95.8041 31.9567 95.8041 31.49C95.8041 31.0233 95.7141 30.6167 95.5341 30.27C95.3541 29.9167 95.1041 29.6467 94.7841 29.46C94.4641 29.2733 94.0941 29.18 93.6741 29.18C93.2541 29.18 92.8808 29.2733 92.5541 29.46C92.2341 29.6467 91.9841 29.9167 91.8041 30.27C91.6241 30.6167 91.5341 31.0233 91.5341 31.49C91.5341 31.9567 91.6241 32.3667 91.8041 32.72C91.9841 33.0733 92.2341 33.3467 92.5541 33.54C92.8808 33.7267 93.2541 33.82 93.6741 33.82ZM107.396 28.02V35H105.996V30.46L104.126 35H103.066L101.186 30.46V35H99.7857V28.02H101.376L103.596 33.21L105.816 28.02H107.396ZM115.37 30.18C115.37 30.5533 115.28 30.9033 115.1 31.23C114.927 31.5567 114.65 31.82 114.27 32.02C113.897 32.22 113.423 32.32 112.85 32.32H111.68V35H110.28V28.02H112.85C113.39 28.02 113.85 28.1133 114.23 28.3C114.61 28.4867 114.893 28.7433 115.08 29.07C115.273 29.3967 115.37 29.7667 115.37 30.18ZM112.79 31.19C113.177 31.19 113.463 31.1033 113.65 30.93C113.837 30.75 113.93 30.5 113.93 30.18C113.93 29.5 113.55 29.16 112.79 29.16H111.68V31.19H112.79ZM122.144 33.67H119.364L118.904 35H117.434L119.944 28.01H121.574L124.084 35H122.604L122.144 33.67ZM121.764 32.55L120.754 29.63L119.744 32.55H121.764ZM132.492 35H131.092L127.922 30.21V35H126.522V28.01H127.922L131.092 32.81V28.01H132.492V35ZM140.926 28.02L138.566 32.57V35H137.166V32.57L134.796 28.02H136.376L137.876 31.21L139.366 28.02H140.926Z" fill="#778191"/>
</svg>
