<svg width="145" height="40" viewBox="0 0 145 40" fill="none" xmlns="http://www.w3.org/2000/svg">
<path fill-rule="evenodd" clip-rule="evenodd" d="M1.70711 1.70711C1.89464 1.89464 2 2.149 2 2.41421V20.6972C2 20.8946 1.94156 21.0877 1.83205 21.2519L0.549615 23.1756C0.384968 23.4225 0 23.306 0 23.0092V0.724264C0 0.456993 0.323142 0.323142 0.512132 0.512132L1.70711 1.70711Z" fill="#F51F8A"/>
<path fill-rule="evenodd" clip-rule="evenodd" d="M5.74984 3.98315C5.91104 4.16585 6 4.40112 6 4.64477L6 16.3552C6 16.5989 5.91104 16.8342 5.74984 17.0169L4.52495 18.4051C4.34208 18.6123 4 18.483 4 18.2066L4 2.79343C4 2.51704 4.34208 2.38769 4.52495 2.59495L5.74984 3.98315Z" fill="#F51F8A"/>
<path fill-rule="evenodd" clip-rule="evenodd" d="M2.59204 24.5808C5.81431 17.5993 12.2826 16.3162 15.0665 16.5018C18.5561 16.7344 21.5651 18.2602 23.2766 20.3698C25.1717 22.7058 26 25.6556 26 27.9998C26 33.6737 22.0339 36.939 19.9553 37.903C17.99 39.0065 15.9492 39.1815 14.2685 39.0015C12.8931 38.8541 11.7159 38.4651 10.9484 38.108C10.698 37.9915 10.6149 37.6856 10.7519 37.4459L11.2481 36.5776C11.3851 36.3379 11.6912 36.2537 11.9448 36.3631C12.5194 36.611 13.4179 36.8989 14.4815 37.0128C15.8732 37.1619 17.4833 37.0071 19.0062 36.1422L19.0453 36.12L19.0862 36.1014C20.6861 35.3742 24 32.688 24 27.9998C24 26.0657 23.3001 23.5734 21.7234 21.6299C20.4148 20.0168 17.9568 18.6989 14.9335 18.4973C12.7174 18.3496 7.18569 19.4006 4.40796 25.4189C3.35156 27.7077 2.08131 33.2669 2.00374 38.5C1.99964 38.7761 1.77614 39 1.5 39H0.5C0.223858 39 -0.000339907 38.7762 0.00353249 38.5001C0.0807642 32.9932 1.41021 27.1414 2.59204 24.5808ZM15.5564 21.0345C17.1962 21.273 18.4882 22.0856 19.2071 22.8045L19.2279 22.8253L19.2474 22.8473C21.0452 24.8698 21.4672 26.961 21.1882 28.7645C20.9171 30.5175 19.997 31.9288 19.2071 32.7187L19.18 32.7459L19.1508 32.7709C17.4987 34.1869 15.6588 34.4828 14.0722 34.2784C12.7634 34.1098 11.6108 33.6018 10.8117 33.095C10.5785 32.9471 10.5343 32.6326 10.7 32.4116L11.3 31.6116C11.4657 31.3907 11.7788 31.347 12.0163 31.488C12.5937 31.8311 13.4157 32.1773 14.3278 32.2948C15.4481 32.4392 16.6798 32.2398 17.8194 31.2777C18.3582 30.7274 19.0194 29.702 19.2118 28.4588C19.3985 27.2515 19.1572 25.768 17.7731 24.1991C17.3187 23.754 16.4201 23.1812 15.2686 23.0137C14.1398 22.8496 12.7039 23.0643 11.114 24.301C9.94611 25.2093 7.1262 29.0586 7.0041 36.5095C6.99957 36.7856 6.77614 37.0118 6.5 37.0118H5.5C5.22386 37.0118 4.9996 36.7856 5.00387 36.5094C5.12606 28.6019 8.11698 24.0983 9.88605 22.7223C11.8961 21.159 13.8769 20.7903 15.5564 21.0345Z" fill="#F51F8A"/>
<path d="M45.688 16.36C46.664 16.568 47.448 17.056 48.04 17.824C48.632 18.576 48.928 19.44 48.928 20.416C48.928 21.824 48.432 22.944 47.44 23.776C46.464 24.592 45.096 25 43.336 25H35.488V8.152H43.072C44.784 8.152 46.12 8.544 47.08 9.328C48.056 10.112 48.544 11.176 48.544 12.52C48.544 13.512 48.28 14.336 47.752 14.992C47.24 15.648 46.552 16.104 45.688 16.36ZM39.592 14.968H42.28C42.952 14.968 43.464 14.824 43.816 14.536C44.184 14.232 44.368 13.792 44.368 13.216C44.368 12.64 44.184 12.2 43.816 11.896C43.464 11.592 42.952 11.44 42.28 11.44H39.592V14.968ZM42.616 21.688C43.304 21.688 43.832 21.536 44.2 21.232C44.584 20.912 44.776 20.456 44.776 19.864C44.776 19.272 44.576 18.808 44.176 18.472C43.792 18.136 43.256 17.968 42.568 17.968H39.592V21.688H42.616ZM59.2763 25.168C57.6923 25.168 56.2363 24.8 54.9083 24.064C53.5963 23.328 52.5483 22.304 51.7643 20.992C50.9963 19.664 50.6123 18.176 50.6123 16.528C50.6123 14.88 50.9963 13.4 51.7643 12.088C52.5483 10.776 53.5963 9.752 54.9083 9.016C56.2363 8.28 57.6923 7.912 59.2763 7.912C60.8603 7.912 62.3083 8.28 63.6203 9.016C64.9483 9.752 65.9883 10.776 66.7403 12.088C67.5083 13.4 67.8923 14.88 67.8923 16.528C67.8923 18.176 67.5083 19.664 66.7403 20.992C65.9723 22.304 64.9323 23.328 63.6203 24.064C62.3083 24.8 60.8603 25.168 59.2763 25.168ZM59.2763 21.424C60.6203 21.424 61.6923 20.976 62.4923 20.08C63.3083 19.184 63.7163 18 63.7163 16.528C63.7163 15.04 63.3083 13.856 62.4923 12.976C61.6923 12.08 60.6203 11.632 59.2763 11.632C57.9163 11.632 56.8283 12.072 56.0123 12.952C55.2123 13.832 54.8123 15.024 54.8123 16.528C54.8123 18.016 55.2123 19.208 56.0123 20.104C56.8283 20.984 57.9163 21.424 59.2763 21.424ZM78.7675 25L75.2635 18.64H74.2795V25H70.1755V8.152H77.0635C78.3915 8.152 79.5195 8.384 80.4475 8.848C81.3915 9.312 82.0955 9.952 82.5595 10.768C83.0235 11.568 83.2555 12.464 83.2555 13.456C83.2555 14.576 82.9355 15.576 82.2955 16.456C81.6715 17.336 80.7435 17.96 79.5115 18.328L83.3995 25H78.7675ZM74.2795 15.736H76.8235C77.5755 15.736 78.1355 15.552 78.5035 15.184C78.8875 14.816 79.0795 14.296 79.0795 13.624C79.0795 12.984 78.8875 12.48 78.5035 12.112C78.1355 11.744 77.5755 11.56 76.8235 11.56H74.2795V15.736ZM94.4238 25L90.9198 18.64H89.9358V25H85.8318V8.152H92.7198C94.0478 8.152 95.1758 8.384 96.1038 8.848C97.0478 9.312 97.7518 9.952 98.2158 10.768C98.6798 11.568 98.9118 12.464 98.9118 13.456C98.9118 14.576 98.5918 15.576 97.9518 16.456C97.3278 17.336 96.3998 17.96 95.1678 18.328L99.0558 25H94.4238ZM89.9358 15.736H92.4798C93.2318 15.736 93.7918 15.552 94.1598 15.184C94.5438 14.816 94.7358 14.296 94.7358 13.624C94.7358 12.984 94.5438 12.48 94.1598 12.112C93.7918 11.744 93.2318 11.56 92.4798 11.56H89.9358V15.736ZM109.456 25.168C107.872 25.168 106.416 24.8 105.088 24.064C103.776 23.328 102.728 22.304 101.944 20.992C101.176 19.664 100.792 18.176 100.792 16.528C100.792 14.88 101.176 13.4 101.944 12.088C102.728 10.776 103.776 9.752 105.088 9.016C106.416 8.28 107.872 7.912 109.456 7.912C111.04 7.912 112.488 8.28 113.8 9.016C115.128 9.752 116.168 10.776 116.92 12.088C117.688 13.4 118.072 14.88 118.072 16.528C118.072 18.176 117.688 19.664 116.92 20.992C116.152 22.304 115.112 23.328 113.8 24.064C112.488 24.8 111.04 25.168 109.456 25.168ZM109.456 21.424C110.8 21.424 111.872 20.976 112.672 20.08C113.488 19.184 113.896 18 113.896 16.528C113.896 15.04 113.488 13.856 112.672 12.976C111.872 12.08 110.8 11.632 109.456 11.632C108.096 11.632 107.008 12.072 106.192 12.952C105.392 13.832 104.992 15.024 104.992 16.528C104.992 18.016 105.392 19.208 106.192 20.104C107.008 20.984 108.096 21.424 109.456 21.424ZM143.539 8.152L139.147 25H134.179L131.491 13.912L128.707 25H123.739L119.467 8.152H123.859L126.283 20.416L129.283 8.152H133.795L136.675 20.416L139.123 8.152H143.539Z" fill="#15549A"/>
<path d="M35.35 34.5C35.35 33.8133 35.5033 33.2 35.81 32.66C36.1233 32.1133 36.5467 31.69 37.08 31.39C37.62 31.0833 38.2233 30.93 38.89 30.93C39.67 30.93 40.3533 31.13 40.94 31.53C41.5267 31.93 41.9367 32.4833 42.17 33.19H40.56C40.4 32.8567 40.1733 32.6067 39.88 32.44C39.5933 32.2733 39.26 32.19 38.88 32.19C38.4733 32.19 38.11 32.2867 37.79 32.48C37.4767 32.6667 37.23 32.9333 37.05 33.28C36.8767 33.6267 36.79 34.0333 36.79 34.5C36.79 34.96 36.8767 35.3667 37.05 35.72C37.23 36.0667 37.4767 36.3367 37.79 36.53C38.11 36.7167 38.4733 36.81 38.88 36.81C39.26 36.81 39.5933 36.7267 39.88 36.56C40.1733 36.3867 40.4 36.1333 40.56 35.8H42.17C41.9367 36.5133 41.5267 37.07 40.94 37.47C40.36 37.8633 39.6767 38.06 38.89 38.06C38.2233 38.06 37.62 37.91 37.08 37.61C36.5467 37.3033 36.1233 36.88 35.81 36.34C35.5033 35.8 35.35 35.1867 35.35 34.5ZM50.4658 38L48.9258 35.28H48.2658V38H46.8658V31.02H49.4858C50.0258 31.02 50.4858 31.1167 50.8658 31.31C51.2458 31.4967 51.5291 31.7533 51.7158 32.08C51.9091 32.4 52.0058 32.76 52.0058 33.16C52.0058 33.62 51.8724 34.0367 51.6058 34.41C51.3391 34.7767 50.9424 35.03 50.4158 35.17L52.0858 38H50.4658ZM48.2658 34.23H49.4358C49.8158 34.23 50.0991 34.14 50.2858 33.96C50.4724 33.7733 50.5658 33.5167 50.5658 33.19C50.5658 32.87 50.4724 32.6233 50.2858 32.45C50.0991 32.27 49.8158 32.18 49.4358 32.18H48.2658V34.23ZM58.172 32.15V33.9H60.522V35.01H58.172V36.86H60.822V38H56.772V31.01H60.822V32.15H58.172ZM68.0343 31.02C68.7676 31.02 69.411 31.1633 69.9643 31.45C70.5243 31.7367 70.9543 32.1467 71.2543 32.68C71.561 33.2067 71.7143 33.82 71.7143 34.52C71.7143 35.22 71.561 35.8333 71.2543 36.36C70.9543 36.88 70.5243 37.2833 69.9643 37.57C69.411 37.8567 68.7676 38 68.0343 38H65.5943V31.02H68.0343ZM67.9843 36.81C68.7176 36.81 69.2843 36.61 69.6843 36.21C70.0843 35.81 70.2843 35.2467 70.2843 34.52C70.2843 33.7933 70.0843 33.2267 69.6843 32.82C69.2843 32.4067 68.7176 32.2 67.9843 32.2H66.9943V36.81H67.9843ZM77.6623 31.02V38H76.2623V31.02H77.6623ZM87.2955 31.02V32.15H85.4355V38H84.0355V32.15H82.1755V31.02H87.2955ZM96.077 33.84V35.02H91.837V33.84H96.077ZM100.807 34.5C100.807 33.8133 100.96 33.2 101.267 32.66C101.58 32.1133 102.004 31.69 102.537 31.39C103.077 31.0833 103.68 30.93 104.347 30.93C105.127 30.93 105.81 31.13 106.397 31.53C106.984 31.93 107.394 32.4833 107.627 33.19H106.017C105.857 32.8567 105.63 32.6067 105.337 32.44C105.05 32.2733 104.717 32.19 104.337 32.19C103.93 32.19 103.567 32.2867 103.247 32.48C102.934 32.6667 102.687 32.9333 102.507 33.28C102.334 33.6267 102.247 34.0333 102.247 34.5C102.247 34.96 102.334 35.3667 102.507 35.72C102.687 36.0667 102.934 36.3367 103.247 36.53C103.567 36.7167 103.93 36.81 104.337 36.81C104.717 36.81 105.05 36.7267 105.337 36.56C105.63 36.3867 105.857 36.1333 106.017 35.8H107.627C107.394 36.5133 106.984 37.07 106.397 37.47C105.817 37.8633 105.134 38.06 104.347 38.06C103.68 38.06 103.077 37.91 102.537 37.61C102.004 37.3033 101.58 36.88 101.267 36.34C100.96 35.8 100.807 35.1867 100.807 34.5ZM116.603 36.67H113.823L113.363 38H111.893L114.403 31.01H116.033L118.543 38H117.063L116.603 36.67ZM116.223 35.55L115.213 32.63L114.203 35.55H116.223ZM126.581 38L125.041 35.28H124.381V38H122.981V31.02H125.601C126.141 31.02 126.601 31.1167 126.981 31.31C127.361 31.4967 127.644 31.7533 127.831 32.08C128.024 32.4 128.121 32.76 128.121 33.16C128.121 33.62 127.988 34.0367 127.721 34.41C127.454 34.7767 127.058 35.03 126.531 35.17L128.201 38H126.581ZM124.381 34.23H125.551C125.931 34.23 126.214 34.14 126.401 33.96C126.588 33.7733 126.681 33.5167 126.681 33.19C126.681 32.87 126.588 32.6233 126.401 32.45C126.214 32.27 125.931 32.18 125.551 32.18H124.381V34.23ZM135.327 31.02C136.061 31.02 136.704 31.1633 137.257 31.45C137.817 31.7367 138.247 32.1467 138.547 32.68C138.854 33.2067 139.007 33.82 139.007 34.52C139.007 35.22 138.854 35.8333 138.547 36.36C138.247 36.88 137.817 37.2833 137.257 37.57C136.704 37.8567 136.061 38 135.327 38H132.887V31.02H135.327ZM135.277 36.81C136.011 36.81 136.577 36.61 136.977 36.21C137.377 35.81 137.577 35.2467 137.577 34.52C137.577 33.7933 137.377 33.2267 136.977 32.82C136.577 32.4067 136.011 32.2 135.277 32.2H134.287V36.81H135.277Z" fill="#778191"/>
</svg>
