<svg width="145" height="40" viewBox="0 0 145 40" fill="none" xmlns="http://www.w3.org/2000/svg">
<path fill-rule="evenodd" clip-rule="evenodd" d="M1.70711 1.70711C1.89464 1.89464 2 2.149 2 2.41421V20.6972C2 20.8946 1.94156 21.0877 1.83205 21.2519L0.549615 23.1756C0.384968 23.4225 0 23.306 0 23.0092V0.724264C0 0.456993 0.323142 0.323142 0.512132 0.512132L1.70711 1.70711Z" fill="#F51F8A"/>
<path fill-rule="evenodd" clip-rule="evenodd" d="M5.74984 3.98315C5.91104 4.16585 6 4.40112 6 4.64477L6 16.3552C6 16.5989 5.91104 16.8342 5.74984 17.0169L4.52495 18.4051C4.34208 18.6123 4 18.483 4 18.2066L4 2.79343C4 2.51704 4.34208 2.38769 4.52495 2.59495L5.74984 3.98315Z" fill="#F51F8A"/>
<path fill-rule="evenodd" clip-rule="evenodd" d="M2.59204 24.5808C5.81431 17.5993 12.2826 16.3162 15.0665 16.5018C18.5561 16.7344 21.5651 18.2602 23.2766 20.3698C25.1717 22.7058 26 25.6556 26 27.9998C26 33.6737 22.0339 36.939 19.9553 37.903C17.99 39.0065 15.9492 39.1815 14.2685 39.0015C12.8931 38.8541 11.7159 38.4651 10.9484 38.108C10.698 37.9915 10.6149 37.6856 10.7519 37.4459L11.2481 36.5776C11.3851 36.3379 11.6912 36.2537 11.9448 36.3631C12.5194 36.611 13.4179 36.8989 14.4815 37.0128C15.8732 37.1619 17.4833 37.0071 19.0062 36.1422L19.0453 36.12L19.0862 36.1014C20.6861 35.3742 24 32.688 24 27.9998C24 26.0657 23.3001 23.5734 21.7234 21.6299C20.4148 20.0168 17.9568 18.6989 14.9335 18.4973C12.7174 18.3496 7.18569 19.4006 4.40796 25.4189C3.35156 27.7077 2.08131 33.2669 2.00374 38.5C1.99964 38.7761 1.77614 39 1.5 39H0.5C0.223858 39 -0.000339907 38.7762 0.00353249 38.5001C0.0807642 32.9932 1.41021 27.1414 2.59204 24.5808ZM15.5564 21.0345C17.1962 21.273 18.4882 22.0856 19.2071 22.8045L19.2279 22.8253L19.2474 22.8473C21.0452 24.8698 21.4672 26.961 21.1882 28.7645C20.9171 30.5175 19.997 31.9288 19.2071 32.7187L19.18 32.7459L19.1508 32.7709C17.4987 34.1869 15.6588 34.4828 14.0722 34.2784C12.7634 34.1098 11.6108 33.6018 10.8117 33.095C10.5785 32.9471 10.5343 32.6326 10.7 32.4116L11.3 31.6116C11.4657 31.3907 11.7788 31.347 12.0163 31.488C12.5937 31.8311 13.4157 32.1773 14.3278 32.2948C15.4481 32.4392 16.6798 32.2398 17.8194 31.2777C18.3582 30.7274 19.0194 29.702 19.2118 28.4588C19.3985 27.2515 19.1572 25.768 17.7731 24.1991C17.3187 23.754 16.4201 23.1812 15.2686 23.0137C14.1398 22.8496 12.7039 23.0643 11.114 24.301C9.94611 25.2093 7.1262 29.0586 7.0041 36.5095C6.99957 36.7856 6.77614 37.0118 6.5 37.0118H5.5C5.22386 37.0118 4.9996 36.7856 5.00387 36.5094C5.12606 28.6019 8.11698 24.0983 9.88605 22.7223C11.8961 21.159 13.8769 20.7903 15.5564 21.0345Z" fill="#F51F8A"/>
<path d="M45.688 16.36C46.664 16.568 47.448 17.056 48.04 17.824C48.632 18.576 48.928 19.44 48.928 20.416C48.928 21.824 48.432 22.944 47.44 23.776C46.464 24.592 45.096 25 43.336 25H35.488V8.152H43.072C44.784 8.152 46.12 8.544 47.08 9.328C48.056 10.112 48.544 11.176 48.544 12.52C48.544 13.512 48.28 14.336 47.752 14.992C47.24 15.648 46.552 16.104 45.688 16.36ZM39.592 14.968H42.28C42.952 14.968 43.464 14.824 43.816 14.536C44.184 14.232 44.368 13.792 44.368 13.216C44.368 12.64 44.184 12.2 43.816 11.896C43.464 11.592 42.952 11.44 42.28 11.44H39.592V14.968ZM42.616 21.688C43.304 21.688 43.832 21.536 44.2 21.232C44.584 20.912 44.776 20.456 44.776 19.864C44.776 19.272 44.576 18.808 44.176 18.472C43.792 18.136 43.256 17.968 42.568 17.968H39.592V21.688H42.616ZM59.2763 25.168C57.6923 25.168 56.2363 24.8 54.9083 24.064C53.5963 23.328 52.5483 22.304 51.7643 20.992C50.9963 19.664 50.6123 18.176 50.6123 16.528C50.6123 14.88 50.9963 13.4 51.7643 12.088C52.5483 10.776 53.5963 9.752 54.9083 9.016C56.2363 8.28 57.6923 7.912 59.2763 7.912C60.8603 7.912 62.3083 8.28 63.6203 9.016C64.9483 9.752 65.9883 10.776 66.7403 12.088C67.5083 13.4 67.8923 14.88 67.8923 16.528C67.8923 18.176 67.5083 19.664 66.7403 20.992C65.9723 22.304 64.9323 23.328 63.6203 24.064C62.3083 24.8 60.8603 25.168 59.2763 25.168ZM59.2763 21.424C60.6203 21.424 61.6923 20.976 62.4923 20.08C63.3083 19.184 63.7163 18 63.7163 16.528C63.7163 15.04 63.3083 13.856 62.4923 12.976C61.6923 12.08 60.6203 11.632 59.2763 11.632C57.9163 11.632 56.8283 12.072 56.0123 12.952C55.2123 13.832 54.8123 15.024 54.8123 16.528C54.8123 18.016 55.2123 19.208 56.0123 20.104C56.8283 20.984 57.9163 21.424 59.2763 21.424ZM78.7675 25L75.2635 18.64H74.2795V25H70.1755V8.152H77.0635C78.3915 8.152 79.5195 8.384 80.4475 8.848C81.3915 9.312 82.0955 9.952 82.5595 10.768C83.0235 11.568 83.2555 12.464 83.2555 13.456C83.2555 14.576 82.9355 15.576 82.2955 16.456C81.6715 17.336 80.7435 17.96 79.5115 18.328L83.3995 25H78.7675ZM74.2795 15.736H76.8235C77.5755 15.736 78.1355 15.552 78.5035 15.184C78.8875 14.816 79.0795 14.296 79.0795 13.624C79.0795 12.984 78.8875 12.48 78.5035 12.112C78.1355 11.744 77.5755 11.56 76.8235 11.56H74.2795V15.736ZM94.4238 25L90.9198 18.64H89.9358V25H85.8318V8.152H92.7198C94.0478 8.152 95.1758 8.384 96.1038 8.848C97.0478 9.312 97.7518 9.952 98.2158 10.768C98.6798 11.568 98.9118 12.464 98.9118 13.456C98.9118 14.576 98.5918 15.576 97.9518 16.456C97.3278 17.336 96.3998 17.96 95.1678 18.328L99.0558 25H94.4238ZM89.9358 15.736H92.4798C93.2318 15.736 93.7918 15.552 94.1598 15.184C94.5438 14.816 94.7358 14.296 94.7358 13.624C94.7358 12.984 94.5438 12.48 94.1598 12.112C93.7918 11.744 93.2318 11.56 92.4798 11.56H89.9358V15.736ZM109.456 25.168C107.872 25.168 106.416 24.8 105.088 24.064C103.776 23.328 102.728 22.304 101.944 20.992C101.176 19.664 100.792 18.176 100.792 16.528C100.792 14.88 101.176 13.4 101.944 12.088C102.728 10.776 103.776 9.752 105.088 9.016C106.416 8.28 107.872 7.912 109.456 7.912C111.04 7.912 112.488 8.28 113.8 9.016C115.128 9.752 116.168 10.776 116.92 12.088C117.688 13.4 118.072 14.88 118.072 16.528C118.072 18.176 117.688 19.664 116.92 20.992C116.152 22.304 115.112 23.328 113.8 24.064C112.488 24.8 111.04 25.168 109.456 25.168ZM109.456 21.424C110.8 21.424 111.872 20.976 112.672 20.08C113.488 19.184 113.896 18 113.896 16.528C113.896 15.04 113.488 13.856 112.672 12.976C111.872 12.08 110.8 11.632 109.456 11.632C108.096 11.632 107.008 12.072 106.192 12.952C105.392 13.832 104.992 15.024 104.992 16.528C104.992 18.016 105.392 19.208 106.192 20.104C107.008 20.984 108.096 21.424 109.456 21.424ZM143.539 8.152L139.147 25H134.179L131.491 13.912L128.707 25H123.739L119.467 8.152H123.859L126.283 20.416L129.283 8.152H133.795L136.675 20.416L139.123 8.152H143.539Z" fill="#15549A"/>
<path d="M37.09 36.89H39.39V38H35.69V31.02H37.09V36.89ZM45.5198 38.07C44.8665 38.07 44.2665 37.9167 43.7198 37.61C43.1732 37.3033 42.7398 36.88 42.4198 36.34C42.0998 35.7933 41.9398 35.1767 41.9398 34.49C41.9398 33.81 42.0998 33.2 42.4198 32.66C42.7398 32.1133 43.1732 31.6867 43.7198 31.38C44.2665 31.0733 44.8665 30.92 45.5198 30.92C46.1798 30.92 46.7798 31.0733 47.3198 31.38C47.8665 31.6867 48.2965 32.1133 48.6098 32.66C48.9298 33.2 49.0898 33.81 49.0898 34.49C49.0898 35.1767 48.9298 35.7933 48.6098 36.34C48.2965 36.88 47.8665 37.3033 47.3198 37.61C46.7732 37.9167 46.1732 38.07 45.5198 38.07ZM45.5198 36.82C45.9398 36.82 46.3098 36.7267 46.6298 36.54C46.9498 36.3467 47.1998 36.0733 47.3798 35.72C47.5598 35.3667 47.6498 34.9567 47.6498 34.49C47.6498 34.0233 47.5598 33.6167 47.3798 33.27C47.1998 32.9167 46.9498 32.6467 46.6298 32.46C46.3098 32.2733 45.9398 32.18 45.5198 32.18C45.0998 32.18 44.7265 32.2733 44.3998 32.46C44.0798 32.6467 43.8298 32.9167 43.6498 33.27C43.4698 33.6167 43.3798 34.0233 43.3798 34.49C43.3798 34.9567 43.4698 35.3667 43.6498 35.72C43.8298 36.0733 44.0798 36.3467 44.3998 36.54C44.7265 36.7267 45.0998 36.82 45.5198 36.82ZM56.4114 36.67H53.6314L53.1714 38H51.7014L54.2114 31.01H55.8414L58.3514 38H56.8714L56.4114 36.67ZM56.0314 35.55L55.0214 32.63L54.0114 35.55H56.0314ZM67.2596 38H65.8596L62.6896 33.21V38H61.2896V31.01H62.6896L65.8596 35.81V31.01H67.2596V38ZM74.9031 33.84V35.02H70.6631V33.84H74.9031ZM78.1332 34.5C78.1332 33.8133 78.2865 33.2 78.5932 32.66C78.9065 32.1133 79.3299 31.69 79.8632 31.39C80.4032 31.0833 81.0065 30.93 81.6732 30.93C82.4532 30.93 83.1365 31.13 83.7232 31.53C84.3099 31.93 84.7199 32.4833 84.9532 33.19H83.3432C83.1832 32.8567 82.9565 32.6067 82.6632 32.44C82.3765 32.2733 82.0432 32.19 81.6632 32.19C81.2565 32.19 80.8932 32.2867 80.5732 32.48C80.2599 32.6667 80.0132 32.9333 79.8332 33.28C79.6599 33.6267 79.5732 34.0333 79.5732 34.5C79.5732 34.96 79.6599 35.3667 79.8332 35.72C80.0132 36.0667 80.2599 36.3367 80.5732 36.53C80.8932 36.7167 81.2565 36.81 81.6632 36.81C82.0432 36.81 82.3765 36.7267 82.6632 36.56C82.9565 36.3867 83.1832 36.1333 83.3432 35.8H84.9532C84.7199 36.5133 84.3099 37.07 83.7232 37.47C83.1432 37.8633 82.4599 38.06 81.6732 38.06C81.0065 38.06 80.4032 37.91 79.8632 37.61C79.3299 37.3033 78.9065 36.88 78.5932 36.34C78.2865 35.8 78.1332 35.1867 78.1332 34.5ZM91.389 38.07C90.7357 38.07 90.1357 37.9167 89.589 37.61C89.0423 37.3033 88.609 36.88 88.289 36.34C87.969 35.7933 87.809 35.1767 87.809 34.49C87.809 33.81 87.969 33.2 88.289 32.66C88.609 32.1133 89.0423 31.6867 89.589 31.38C90.1357 31.0733 90.7357 30.92 91.389 30.92C92.049 30.92 92.649 31.0733 93.189 31.38C93.7357 31.6867 94.1657 32.1133 94.479 32.66C94.799 33.2 94.959 33.81 94.959 34.49C94.959 35.1767 94.799 35.7933 94.479 36.34C94.1657 36.88 93.7357 37.3033 93.189 37.61C92.6423 37.9167 92.0423 38.07 91.389 38.07ZM91.389 36.82C91.809 36.82 92.179 36.7267 92.499 36.54C92.819 36.3467 93.069 36.0733 93.249 35.72C93.429 35.3667 93.519 34.9567 93.519 34.49C93.519 34.0233 93.429 33.6167 93.249 33.27C93.069 32.9167 92.819 32.6467 92.499 32.46C92.179 32.2733 91.809 32.18 91.389 32.18C90.969 32.18 90.5957 32.2733 90.269 32.46C89.949 32.6467 89.699 32.9167 89.519 33.27C89.339 33.6167 89.249 34.0233 89.249 34.49C89.249 34.9567 89.339 35.3667 89.519 35.72C89.699 36.0733 89.949 36.3467 90.269 36.54C90.5957 36.7267 90.969 36.82 91.389 36.82ZM105.611 31.02V38H104.211V33.46L102.341 38H101.281L99.4005 33.46V38H98.0005V31.02H99.5905L101.811 36.21L104.031 31.02H105.611ZM114.085 33.18C114.085 33.5533 113.995 33.9033 113.815 34.23C113.641 34.5567 113.365 34.82 112.985 35.02C112.611 35.22 112.138 35.32 111.565 35.32H110.395V38H108.995V31.02H111.565C112.105 31.02 112.565 31.1133 112.945 31.3C113.325 31.4867 113.608 31.7433 113.795 32.07C113.988 32.3967 114.085 32.7667 114.085 33.18ZM111.505 34.19C111.891 34.19 112.178 34.1033 112.365 33.93C112.551 33.75 112.645 33.5 112.645 33.18C112.645 32.5 112.265 32.16 111.505 32.16H110.395V34.19H111.505ZM121.359 36.67H118.579L118.119 38H116.649L119.159 31.01H120.789L123.299 38H121.819L121.359 36.67ZM120.979 35.55L119.969 32.63L118.959 35.55H120.979ZM132.207 38H130.807L127.637 33.21V38H126.237V31.01H127.637L130.807 35.81V31.01H132.207V38ZM141.14 31.02L138.78 35.57V38H137.38V35.57L135.01 31.02H136.59L138.09 34.21L139.58 31.02H141.14Z" fill="#778191"/>
</svg>
