<svg width="170" height="142" viewBox="0 0 170 142" fill="none" xmlns="http://www.w3.org/2000/svg">
<path fill-rule="evenodd" clip-rule="evenodd" d="M80.3459 83H5.65974C3.08536 83 1 80.9416 1 78.4025V27.5964C1 25.0573 3.08536 23 5.65974 23H80.3459C82.9135 23 85 25.0573 85 27.5975V78.4014C85 80.9416 82.9135 83 80.3459 83Z" fill="white" stroke="#ACBBD3"/>
<path fill-rule="evenodd" clip-rule="evenodd" d="M8 73C8 73.5523 8.44772 74 9 74H20.0879C20.6402 74 21.0879 73.5523 21.0879 73V66C21.0879 65.4477 20.6402 65 20.0879 65H9C8.44771 65 8 65.4477 8 66V73ZM26.9042 73C26.9042 73.5523 27.3519 74 27.9042 74H39C39.5523 74 40 73.5523 40 73V66C40 65.4477 39.5523 65 39 65H27.9042C27.3519 65 26.9042 65.4477 26.9042 66V73Z" fill="#ACBBD3"/>
<path fill-rule="evenodd" clip-rule="evenodd" d="M46 74H59.0902V65H46V74ZM64.9075 74H78V65H64.9087L64.9075 74Z" fill="#969A99"/>
<path fill-rule="evenodd" clip-rule="evenodd" d="M30.1175 49H9.88253C9.63476 48.9995 9.3895 48.9505 9.16078 48.8558C8.93206 48.761 8.72436 48.6223 8.54953 48.4476C8.37471 48.273 8.2362 48.0658 8.14191 47.8378C8.04763 47.6099 7.9994 47.3657 8.00001 47.1193V32.883C7.99909 32.6364 8.04709 32.3919 8.14124 32.1638C8.23539 31.9356 8.37384 31.7281 8.5487 31.5532C8.72355 31.3783 8.93136 31.2394 9.16023 31.1445C9.38911 31.0495 9.63456 31.0005 9.88253 31H30.1163C30.3644 31.0003 30.6099 31.0493 30.8389 31.1441C31.068 31.239 31.2759 31.3778 31.4509 31.5528C31.6259 31.7277 31.7644 31.9352 31.8587 32.1635C31.9529 32.3918 32.0009 32.6363 32 32.883V47.1193C32.0006 47.3657 31.9524 47.6099 31.8581 47.8378C31.7638 48.0658 31.6253 48.273 31.4505 48.4476C31.2756 48.6223 31.0679 48.761 30.8392 48.8558C30.6105 48.9505 30.3652 48.9995 30.1175 49" fill="white"/>
<path fill-rule="evenodd" clip-rule="evenodd" d="M29.7415 50H10.2586C9.39243 49.9974 8.56278 49.6567 7.95181 49.0527C7.34085 48.4488 6.99852 47.631 7.00001 46.779V33.2232C6.99822 32.3709 7.34038 31.5527 7.95135 30.9484C8.56232 30.344 9.39214 30.0029 10.2586 30H29.7403C30.6066 30.0038 31.436 30.3451 32.0469 30.9493C32.6579 31.5534 33.0006 32.3711 33 33.2232V46.779C33.0003 47.6307 32.6576 48.4478 32.0469 49.0515C31.4362 49.6551 30.6072 49.9962 29.7415 50V50ZM10.2586 32.8604C10.2101 32.8602 10.1622 32.8694 10.1174 32.8875C10.0727 32.9057 10.032 32.9324 9.9979 32.9662C9.96378 33 9.93682 33.0401 9.91864 33.0842C9.90046 33.1284 9.89141 33.1756 9.89201 33.2232V46.779C9.89201 46.9808 10.0545 47.1484 10.2586 47.1484H29.7403C29.8388 47.1472 29.9329 47.1077 30.0018 47.0384C30.0707 46.9692 30.1089 46.8759 30.108 46.779V33.2232C30.1086 33.1756 30.0995 33.1284 30.0814 33.0842C30.0632 33.0401 30.0362 33 30.0021 32.9662C29.968 32.9324 29.9274 32.9057 29.8826 32.8875C29.8378 32.8694 29.7899 32.8602 29.7415 32.8604H10.2586Z" fill="#ACBBD3"/>
<path fill-rule="evenodd" clip-rule="evenodd" d="M32 32.883C32.0009 32.6364 31.9529 32.3919 31.8588 32.1638C31.7646 31.9356 31.6261 31.7281 31.4513 31.5532C31.2764 31.3783 31.0686 31.2394 30.8397 31.1445C30.6109 31.0495 30.3654 31.0005 30.1174 31H18.8826C18.6346 31.0005 18.3891 31.0495 18.1603 31.1445C17.9314 31.2394 17.7236 31.3783 17.5487 31.5532C17.3739 31.7281 17.2354 31.9356 17.1412 32.1638C17.0471 32.3919 16.9991 32.6364 17 32.883V47.1193C16.9994 47.3657 17.0476 47.6099 17.1419 47.8378C17.2362 48.0658 17.3747 48.273 17.5495 48.4476C17.7244 48.6223 17.9321 48.761 18.1608 48.8558C18.3895 48.9505 18.6348 48.9995 18.8826 49H21.1156C21.3634 48.9995 21.6086 48.9505 21.8373 48.8558C22.0661 48.761 22.2738 48.6223 22.4486 48.4476C22.6234 48.273 22.762 48.0658 22.8562 47.8378C22.9505 47.6099 22.9988 47.3657 22.9981 47.1193V38.883C22.9972 38.6364 23.0452 38.3919 23.1394 38.1638C23.2335 37.9356 23.372 37.7281 23.5468 37.5532C23.7217 37.3783 23.9295 37.2394 24.1584 37.1445C24.3873 37.0495 24.6327 37.0005 24.8807 37H30.1174C30.3654 36.9995 30.6109 36.9505 30.8397 36.8555C31.0686 36.7606 31.2764 36.6217 31.4513 36.4468C31.6261 36.2719 31.7646 36.0644 31.8588 35.8362C31.9529 35.608 32.0009 35.3636 32 35.117V32.883V32.883Z" fill="white"/>
<path fill-rule="evenodd" clip-rule="evenodd" d="M21.3043 50H19.1958C18.3463 49.9974 17.5327 49.6567 16.9335 49.0527C16.3343 48.4488 15.9985 47.631 16 46.779V33.2232C15.9983 32.3709 16.3338 31.5527 16.933 30.9484C17.5322 30.344 18.346 30.0029 19.1958 30H29.8043C30.6536 30.0041 31.4668 30.3455 32.0657 30.9496C32.6647 31.5537 33.0006 32.3713 33 33.2232V35.3504C33.0006 36.2024 32.6647 37.0199 32.0657 37.624C31.4668 38.2281 30.6536 38.5695 29.8043 38.5736H24.8595C24.812 38.5735 24.765 38.5828 24.7212 38.601C24.6774 38.6192 24.6376 38.646 24.6042 38.6797C24.5708 38.7134 24.5443 38.7535 24.5264 38.7976C24.5086 38.8417 24.4996 38.8888 24.5 38.9364V46.779C24.5015 47.631 24.1657 48.4488 23.5665 49.0527C22.9673 49.6567 22.1537 49.9974 21.3043 50V50ZM19.1958 32.8604C19.1482 32.86 19.1011 32.8691 19.0571 32.8872C19.0132 32.9053 18.9733 32.932 18.9398 32.9659C18.9063 32.9997 18.8799 33.0398 18.8621 33.0841C18.8443 33.1283 18.8355 33.1756 18.8363 33.2232V46.779C18.8355 46.8269 18.8443 46.8746 18.862 46.9191C18.8797 46.9637 18.906 47.0043 18.9394 47.0387C18.9728 47.073 19.0127 47.1004 19.0567 47.1192C19.1007 47.138 19.1479 47.1479 19.1958 47.1484H21.3043C21.4007 47.1469 21.4926 47.1073 21.56 47.038C21.6273 46.9688 21.6646 46.8757 21.6637 46.779V38.9364C21.662 38.0841 21.9976 37.2659 22.5967 36.6615C23.1959 36.0572 24.0098 35.7161 24.8595 35.7132H29.8043C29.8518 35.7133 29.8989 35.704 29.9428 35.6857C29.9867 35.6674 30.0265 35.6406 30.0599 35.6067C30.0934 35.5729 30.1198 35.5327 30.1376 35.4885C30.1554 35.4443 30.1643 35.397 30.1637 35.3493V33.2232C30.1643 33.1756 30.1554 33.1284 30.1376 33.0842C30.1198 33.0401 30.0934 33 30.0599 32.9662C30.0264 32.9324 29.9866 32.9057 29.9427 32.8875C29.8988 32.8694 29.8517 32.8602 29.8043 32.8604H19.1958Z" fill="#ACBBD3"/>
<path fill-rule="evenodd" clip-rule="evenodd" d="M30.5471 45H23.8854C23.0901 45 22.4403 44.2516 22.4403 43.331C22.4403 42.4129 23.0901 41.6632 23.8854 41.6632H30.5471C30.9324 41.6632 31.302 41.8389 31.5744 42.1517C31.8469 42.4645 32 42.8887 32 43.331C32 43.7733 31.8469 44.1975 31.5744 44.5102C31.302 44.823 30.9324 44.9987 30.5471 44.9987V45ZM17.114 38.3368H8.4535C8.06801 38.3368 7.69831 38.161 7.42573 37.8481C7.15314 37.5352 7 37.1109 7 36.6684C7 36.2259 7.15314 35.8015 7.42573 35.4887C7.69831 35.1758 8.06801 35 8.4535 35H17.114C17.4995 35 17.8692 35.1758 18.1418 35.4887C18.4144 35.8015 18.5675 36.2259 18.5675 36.6684C18.5675 37.1109 18.4144 37.5352 18.1418 37.8481C17.8692 38.161 17.4995 38.3368 17.114 38.3368ZM17.114 45H8.4535C7.65814 45 7.00841 44.2516 7.00841 43.331C7.00841 42.4129 7.65814 41.6632 8.4535 41.6632H17.114C17.4994 41.6632 17.8689 41.8389 18.1414 42.1517C18.4139 42.4645 18.5669 42.8887 18.5669 43.331C18.5669 43.7733 18.4139 44.1975 18.1414 44.5102C17.8689 44.823 17.4994 44.9987 17.114 44.9987" fill="#ACBBD3"/>
<path fill-rule="evenodd" clip-rule="evenodd" d="M59.1663 30H46.4185C45.6356 30 45 30.6404 45 31.4297C45 32.2167 45.6356 32.8593 46.4185 32.8593H59.1663C59.5445 32.8593 59.9073 32.7087 60.1748 32.4406C60.4422 32.1725 60.5925 31.8088 60.5925 31.4297C60.5925 31.0505 60.4422 30.6869 60.1748 30.4187C59.9073 30.1506 59.5445 30 59.1663 30V30ZM78.9978 31.4297C78.9988 31.2423 78.9629 31.0566 78.892 30.8831C78.8212 30.7097 78.7169 30.5521 78.5851 30.4192C78.4532 30.2863 78.2965 30.1809 78.1239 30.109C77.9513 30.037 77.7662 30 77.5793 30H64.8315C64.4532 30 64.0905 30.1506 63.823 30.4187C63.5556 30.6869 63.4053 31.0505 63.4053 31.4297C63.4053 31.8088 63.5556 32.1725 63.823 32.4406C64.0905 32.7087 64.4532 32.8593 64.8315 32.8593H77.5815C78.371 32.8593 79 32.2167 79 31.4297H78.9978ZM47.837 37.1396H46.4185C45.6356 37.1396 45 37.7811 45 38.5703C45 39.3574 45.6356 40 46.4185 40H47.837C48.213 39.9977 48.5727 39.8458 48.8371 39.5777C49.1014 39.3096 49.2487 38.9473 49.2467 38.5703C49.2467 37.7811 48.6177 37.1407 47.837 37.1407V37.1396ZM56.3304 37.1396H53.5022C52.7193 37.1396 52.0837 37.7811 52.0837 38.5703C52.0837 39.3574 52.7193 40 53.5022 40H56.3304C57.1199 40 57.7489 39.3574 57.7489 38.5703C57.7499 38.3829 57.714 38.1972 57.6431 38.0238C57.5723 37.8504 57.468 37.6927 57.3362 37.5599C57.2043 37.427 57.0476 37.3216 56.875 37.2496C56.7024 37.1777 56.5173 37.1407 56.3304 37.1407V37.1396ZM63.413 37.1396H62.0033C61.8163 37.1395 61.6311 37.1766 61.4584 37.2486C61.2857 37.3206 61.129 37.4262 60.9971 37.5591C60.8653 37.6921 60.761 37.8499 60.6902 38.0235C60.6195 38.197 60.5836 38.3829 60.5848 38.5703C60.5848 39.3574 61.2138 40 62.0033 40H63.413C64.2025 40 64.8315 39.3574 64.8315 38.5703C64.8325 38.3829 64.7966 38.1972 64.7257 38.0238C64.6549 37.8504 64.5506 37.6927 64.4188 37.5599C64.2869 37.427 64.1302 37.3216 63.9576 37.2496C63.785 37.1777 63.5999 37.1407 63.413 37.1407V37.1396ZM71.9152 37.1396H69.087C68.9 37.1395 68.7148 37.1766 68.5421 37.2486C68.3694 37.3206 68.2127 37.4262 68.0808 37.5591C67.949 37.6921 67.8447 37.8499 67.7739 38.0235C67.7032 38.197 67.6673 38.3829 67.6685 38.5703C67.6685 39.3574 68.2975 40 69.087 40H71.9152C72.6981 40 73.3337 39.3574 73.3337 38.5703C73.3337 37.7811 72.6981 37.1407 71.9152 37.1407V37.1396ZM76.5776 37.5507C76.3224 37.8241 76.1707 38.2011 76.1707 38.5703C76.1707 38.9396 76.3224 39.3089 76.5776 39.5811C76.847 39.8402 77.201 40 77.5804 40C77.9543 40 78.3204 39.8402 78.592 39.5811C78.8461 39.31 78.9989 38.9396 78.9989 38.5703C78.9989 38.2011 78.8461 37.8241 78.592 37.5507C78.051 37.0304 77.1032 37.0304 76.5776 37.5507Z" fill="#ACBBD3"/>
<path fill-rule="evenodd" clip-rule="evenodd" d="M164.346 129H89.6598C87.0854 129 85 127.01 85 124.556V75.4432C85 72.9887 87.0854 71 89.6598 71H164.346C166.914 71 169 72.9887 169 75.4442V124.555C169 127.01 166.914 129 164.346 129" fill="white"/>
<path d="M164.346 129H89.6598C87.0854 129 85 127.01 85 124.556V75.4432C85 72.9887 87.0854 71 89.6598 71H164.346C166.914 71 169 72.9887 169 75.4442V124.555C169 127.01 166.914 129 164.346 129" stroke="#ACBBD3"/>
<path fill-rule="evenodd" clip-rule="evenodd" d="M93 121C93 121.552 93.4477 122 94 122H104.936C105.488 122 105.936 121.552 105.936 121V114C105.936 113.448 105.488 113 104.936 113H94C93.4477 113 93 113.448 93 114V121ZM111.684 121C111.684 121.552 112.132 122 112.684 122H123.628C124.18 122 124.628 121.552 124.628 121V114C124.628 113.448 124.18 113 123.628 113H112.684C112.132 113 111.684 113.448 111.684 114V121ZM130.378 121C130.378 121.552 130.825 122 131.378 122H142.313C142.866 122 143.313 121.552 143.313 121V114C143.313 113.448 142.866 113 142.313 113H131.378C130.825 113 130.378 113.448 130.378 114V121ZM149.062 121C149.062 121.552 149.51 122 150.062 122H161C161.552 122 162 121.552 162 121V114C162 113.448 161.552 113 161 113H150.063C149.511 113 149.063 113.448 149.063 114L149.062 121Z" fill="#ACBBD3"/>
<path fill-rule="evenodd" clip-rule="evenodd" d="M114.196 97H94.8041C94.5666 96.9996 94.3316 96.9533 94.1124 96.8638C93.8932 96.7743 93.6941 96.6433 93.5266 96.4783C93.3591 96.3134 93.2263 96.1177 93.136 95.9024C93.0456 95.6871 92.9994 95.4565 93 95.2238V81.7784C92.9991 81.5455 93.0451 81.3146 93.1353 81.0991C93.2255 80.8836 93.3583 80.6876 93.5258 80.5224C93.6934 80.3573 93.8926 80.2261 94.1119 80.1364C94.3312 80.0468 94.5664 80.0004 94.8041 80H114.195C114.433 80.0003 114.668 80.0465 114.887 80.1361C115.107 80.2257 115.306 80.3569 115.474 80.5221C115.641 80.6873 115.774 80.8833 115.865 81.0988C115.955 81.3144 116.001 81.5454 116 81.7784V95.2238C116.001 95.4565 115.954 95.6871 115.864 95.9024C115.774 96.1177 115.641 96.3134 115.473 96.4783C115.306 96.6433 115.107 96.7743 114.888 96.8638C114.668 96.9533 114.433 96.9996 114.196 97Z" fill="#969A99"/>
<path fill-rule="evenodd" clip-rule="evenodd" d="M113.741 99H94.2585C93.3924 98.9972 92.5628 98.6395 91.9518 98.0054C91.3408 97.3713 90.9985 96.5126 91 95.6179V81.3844C90.9982 80.4895 91.3404 79.6303 91.9513 78.9958C92.5623 78.3612 93.3921 78.0031 94.2585 78H113.74C114.607 78.004 115.436 78.3624 116.047 78.9967C116.658 79.6311 117.001 80.4896 117 81.3844V95.6179C117 96.5122 116.658 97.3702 116.047 98.004C115.436 98.6379 114.607 98.996 113.741 99V99ZM94.2585 81.0035C94.2101 81.0032 94.1621 81.0128 94.1174 81.0319C94.0726 81.0509 94.032 81.079 93.9979 81.1145C93.9638 81.15 93.9368 81.1921 93.9186 81.2384C93.9005 81.2848 93.8914 81.3344 93.892 81.3844V95.6179C93.892 95.8298 94.0545 96.0058 94.2585 96.0058H113.74C113.839 96.0046 113.933 95.9631 114.002 95.8903C114.071 95.8176 114.109 95.7197 114.108 95.6179V81.3844C114.109 81.3344 114.1 81.2848 114.081 81.2384C114.063 81.1921 114.036 81.15 114.002 81.1145C113.968 81.079 113.927 81.0509 113.883 81.0319C113.838 81.0128 113.79 81.0032 113.741 81.0035H94.2585Z" fill="#E3E4E4"/>
<path fill-rule="evenodd" clip-rule="evenodd" d="M116 81.7784C116.001 81.5455 115.953 81.3146 115.859 81.0991C115.765 80.8836 115.626 80.6876 115.451 80.5224C115.276 80.3573 115.069 80.2261 114.84 80.1364C114.611 80.0468 114.365 80.0004 114.117 80H102.883C102.635 80.0004 102.389 80.0468 102.16 80.1364C101.931 80.2261 101.724 80.3573 101.549 80.5224C101.374 80.6876 101.235 80.8836 101.141 81.0991C101.047 81.3146 100.999 81.5455 101 81.7784V95.2238C100.999 95.4565 101.048 95.6871 101.142 95.9024C101.236 96.1177 101.375 96.3134 101.55 96.4783C101.724 96.6433 101.932 96.7743 102.161 96.8638C102.39 96.9533 102.635 96.9996 102.883 97H105.116C105.363 96.9996 105.609 96.9533 105.837 96.8638C106.066 96.7743 106.274 96.6433 106.449 96.4783C106.623 96.3134 106.762 96.1177 106.856 95.9024C106.951 95.6871 106.999 95.4565 106.998 95.2238V87.4451C106.997 87.2121 107.045 86.9813 107.139 86.7658C107.234 86.5502 107.372 86.3543 107.547 86.1891C107.722 86.0239 107.93 85.8928 108.158 85.8031C108.387 85.7135 108.633 85.6671 108.881 85.6667H114.117C114.365 85.6662 114.611 85.6199 114.84 85.5302C115.069 85.4406 115.276 85.3094 115.451 85.1442C115.626 84.979 115.765 84.7831 115.859 84.5676C115.953 84.352 116.001 84.1212 116 83.8882V81.7784V81.7784Z" fill="#969A99"/>
<path fill-rule="evenodd" clip-rule="evenodd" d="M105.304 99H103.196C102.346 98.9972 101.533 98.6395 100.933 98.0054C100.334 97.3713 99.9985 96.5126 100 95.6179V81.3844C99.9983 80.4895 100.334 79.6303 100.933 78.9958C101.532 78.3612 102.346 78.0031 103.196 78H113.804C114.654 78.0043 115.467 78.3628 116.066 78.9971C116.665 79.6314 117.001 80.4898 117 81.3844V83.6179C117.001 84.5125 116.665 85.3709 116.066 86.0052C115.467 86.6395 114.654 86.998 113.804 87.0023H108.859C108.812 87.0022 108.765 87.0119 108.721 87.031C108.677 87.0502 108.638 87.0782 108.604 87.1137C108.571 87.1491 108.544 87.1912 108.526 87.2375C108.509 87.2837 108.5 87.3333 108.5 87.3833V95.6179C108.501 96.5126 108.166 97.3713 107.567 98.0054C106.967 98.6395 106.154 98.9972 105.304 99ZM103.196 81.0035C103.148 81.003 103.101 81.0126 103.057 81.0316C103.013 81.0506 102.973 81.0786 102.94 81.1141C102.906 81.1496 102.88 81.1918 102.862 81.2383C102.844 81.2847 102.836 81.3344 102.836 81.3844V95.6179C102.836 95.6683 102.844 95.7183 102.862 95.7651C102.88 95.8119 102.906 95.8546 102.939 95.8906C102.973 95.9267 103.013 95.9554 103.057 95.9752C103.101 95.9949 103.148 96.0053 103.196 96.0058H105.304C105.401 96.0043 105.493 95.9626 105.56 95.8899C105.627 95.8173 105.665 95.7195 105.664 95.6179V87.3833C105.662 86.4883 105.998 85.6292 106.597 84.9946C107.196 84.3601 108.01 84.0019 108.859 83.9988H113.804C113.852 83.999 113.899 83.9892 113.943 83.97C113.987 83.9508 114.027 83.9226 114.06 83.8871C114.093 83.8515 114.12 83.8093 114.138 83.7629C114.155 83.7165 114.164 83.6668 114.164 83.6168V81.3844C114.164 81.3344 114.155 81.2848 114.138 81.2384C114.12 81.1921 114.093 81.15 114.06 81.1145C114.026 81.079 113.987 81.0509 113.943 81.0319C113.899 81.0128 113.852 81.0032 113.804 81.0035H103.196Z" fill="#E3E4E4"/>
<path fill-rule="evenodd" clip-rule="evenodd" d="M115.547 93H106.885C106.09 93 105.44 92.3265 105.44 91.4979C105.44 90.6716 106.09 89.9969 106.885 89.9969H115.547C115.932 89.9969 116.302 90.155 116.574 90.4365C116.847 90.718 117 91.0998 117 91.4979C117 91.896 116.847 92.2777 116.574 92.5592C116.302 92.8407 115.932 92.9988 115.547 92.9988V93ZM101.114 87.0031H92.4535C92.068 87.0031 91.6983 86.8449 91.4257 86.5633C91.1531 86.2817 91 85.8998 91 85.5015C91 85.1033 91.1531 84.7214 91.4257 84.4398C91.6983 84.1582 92.068 84 92.4535 84H101.114C101.499 84 101.869 84.1582 102.142 84.4398C102.414 84.7214 102.568 85.1033 102.568 85.5015C102.568 85.8998 102.414 86.2817 102.142 86.5633C101.869 86.8449 101.499 87.0031 101.114 87.0031V87.0031ZM101.114 93H92.4535C91.6582 93 91.0084 92.3265 91.0084 91.4979C91.0084 90.6716 91.6582 89.9969 92.4535 89.9969H101.114C101.499 89.9969 101.869 90.155 102.141 90.4365C102.414 90.718 102.567 91.0998 102.567 91.4979C102.567 91.896 102.414 92.2777 102.141 92.5592C101.869 92.8407 101.499 92.9988 101.114 92.9988" fill="#E3E4E4"/>
<path fill-rule="evenodd" clip-rule="evenodd" d="M143.583 78H130.46C129.654 78 129 78.6404 129 79.4297C129 80.2167 129.654 80.8593 130.46 80.8593H143.583C143.972 80.8593 144.346 80.7087 144.621 80.4406C144.896 80.1725 145.051 79.8089 145.051 79.4297C145.051 79.0505 144.896 78.6869 144.621 78.4187C144.346 78.1506 143.972 78 143.583 78V78ZM163.998 79.4297C163.999 79.2423 163.962 79.0566 163.889 78.8831C163.816 78.7097 163.709 78.5521 163.573 78.4192C163.437 78.2864 163.276 78.1809 163.098 78.109C162.92 78.037 162.73 78 162.538 78H149.415C149.025 78 148.652 78.1506 148.377 78.4187C148.101 78.6869 147.947 79.0505 147.947 79.4297C147.947 79.8089 148.101 80.1725 148.377 80.4406C148.652 80.7087 149.025 80.8593 149.415 80.8593H162.54C163.353 80.8593 164 80.2167 164 79.4297H163.998ZM131.92 85.1396H130.46C129.654 85.1396 129 85.7811 129 86.5703C129 87.3574 129.654 88 130.46 88H131.92C132.308 87.9977 132.678 87.8458 132.95 87.5777C133.222 87.3096 133.374 86.9473 133.372 86.5703C133.372 85.7811 132.724 85.1407 131.92 85.1407V85.1396ZM140.664 85.1396H137.752C136.946 85.1396 136.292 85.7811 136.292 86.5703C136.292 87.3574 136.946 88 137.752 88H140.664C141.476 88 142.124 87.3574 142.124 86.5703C142.125 86.3829 142.088 86.1972 142.015 86.0238C141.942 85.8504 141.835 85.6927 141.699 85.5599C141.563 85.427 141.402 85.3216 141.224 85.2496C141.047 85.1777 140.856 85.1407 140.664 85.1407V85.1396ZM147.955 85.1396H146.503C146.311 85.1395 146.12 85.1766 145.943 85.2486C145.765 85.3206 145.603 85.4262 145.468 85.5591C145.332 85.6921 145.225 85.8499 145.152 86.0235C145.079 86.197 145.042 86.3828 145.043 86.5703C145.043 87.3574 145.691 88 146.503 88H147.955C148.767 88 149.415 87.3574 149.415 86.5703C149.416 86.3829 149.379 86.1972 149.306 86.0238C149.233 85.8504 149.126 85.6927 148.99 85.5599C148.854 85.427 148.693 85.3216 148.515 85.2496C148.338 85.1777 148.147 85.1407 147.955 85.1407V85.1396ZM156.707 85.1396H153.795C153.603 85.1395 153.412 85.1766 153.235 85.2486C153.057 85.3206 152.895 85.4262 152.76 85.5591C152.624 85.6921 152.517 85.8499 152.444 86.0235C152.371 86.197 152.334 86.3828 152.335 86.5703C152.335 87.3574 152.983 88 153.795 88H156.707C157.513 88 158.167 87.3574 158.167 86.5703C158.167 85.7811 157.513 85.1407 156.707 85.1407V85.1396ZM161.506 85.5507C161.244 85.8241 161.087 86.2011 161.087 86.5703C161.087 86.9396 161.244 87.3089 161.506 87.5811C161.784 87.8402 162.148 88 162.539 88C162.923 88 163.3 87.8402 163.58 87.5811C163.842 87.31 163.999 86.9396 163.999 86.5703C163.999 86.2011 163.842 85.8241 163.58 85.5507C163.023 85.0304 162.047 85.0304 161.506 85.5507Z" fill="#ACBBD3"/>
<path fill-rule="evenodd" clip-rule="evenodd" d="M123.346 104H48.6597C46.0854 104 44 101.942 44 99.4025V48.5964C44 46.0573 46.0854 44 48.6597 44H123.346C125.914 44 128 46.0573 128 48.5975V99.4014C128 101.942 125.914 104 123.346 104Z" fill="#3C7BDF" stroke="white" stroke-width="2"/>
<path fill-rule="evenodd" clip-rule="evenodd" d="M51 94C51 94.5523 51.4477 95 52 95H63.1232C63.6754 95 64.1232 94.5523 64.1232 94V87C64.1232 86.4477 63.6754 86 63.1232 86H52C51.4477 86 51 86.4477 51 87V94ZM69.9552 94C69.9552 94.5523 70.4029 95 70.9552 95H82.0863C82.6386 95 83.0863 94.5523 83.0863 94V87C83.0863 86.4477 82.6386 86 82.0863 86H70.9552C70.4029 86 69.9552 86.4477 69.9552 87V94ZM88.9194 94C88.9194 94.5523 89.3671 95 89.9194 95H101.043C101.595 95 102.043 94.5523 102.043 94V87C102.043 86.4477 101.595 86 101.043 86H89.9194C89.3671 86 88.9194 86.4477 88.9194 87V94ZM107.875 93.9999C107.875 94.5522 108.322 95 108.875 95H120C120.552 95 121 94.5523 121 94V87C121 86.4477 120.552 86 120 86H108.876C108.323 86 107.876 86.4476 107.876 86.9999L107.875 93.9999Z" fill="white"/>
<path fill-rule="evenodd" clip-rule="evenodd" d="M72.1959 70H52.8041C52.5666 69.9996 52.3316 69.9533 52.1124 69.8638C51.8932 69.7743 51.6942 69.6433 51.5266 69.4783C51.3591 69.3134 51.2264 69.1177 51.136 68.9024C51.0456 68.6871 50.9994 68.4565 51 68.2238V54.7784C50.9991 54.5455 51.0451 54.3146 51.1354 54.0991C51.2256 53.8836 51.3583 53.6876 51.5258 53.5224C51.6934 53.3573 51.8926 53.2261 52.1119 53.1364C52.3312 53.0468 52.5665 53.0004 52.8041 53H72.1948C72.4325 53.0003 72.6679 53.0465 72.8873 53.1361C73.1068 53.2257 73.3061 53.3569 73.4738 53.5221C73.6415 53.6873 73.7742 53.8833 73.8645 54.0988C73.9548 54.3144 74.0009 54.5454 74 54.7784V68.2238C74.0006 68.4565 73.9544 68.6871 73.864 68.9024C73.7736 69.1177 73.6409 69.3134 73.4734 69.4783C73.3058 69.6433 73.1068 69.7743 72.8876 69.8638C72.6684 69.9533 72.4334 69.9996 72.1959 70" fill="#ACBBD3"/>
<path fill-rule="evenodd" clip-rule="evenodd" d="M72.7414 72H53.2585C52.3924 71.9972 51.5628 71.6395 50.9518 71.0054C50.3408 70.3713 49.9985 69.5126 50 68.6179V54.3844C49.9982 53.4894 50.3404 52.6303 50.9514 51.9958C51.5623 51.3612 52.3921 51.0031 53.2585 51H72.7403C73.6066 51.004 74.436 51.3624 75.0469 51.9967C75.6579 52.6311 76.0006 53.4896 76 54.3844V68.6179C76.0003 69.5122 75.6576 70.3702 75.0469 71.004C74.4361 71.6379 73.6072 71.996 72.7414 72V72ZM53.2585 54.0035C53.2101 54.0032 53.1622 54.0128 53.1174 54.0319C53.0727 54.0509 53.032 54.079 52.9979 54.1145C52.9638 54.15 52.9368 54.1921 52.9186 54.2384C52.9005 54.2848 52.8914 54.3344 52.892 54.3844V68.6179C52.892 68.8298 53.0545 69.0058 53.2585 69.0058H72.7403C72.8388 69.0046 72.9328 68.9631 73.0018 68.8903C73.0707 68.8176 73.1089 68.7197 73.108 68.6179V54.3844C73.1086 54.3344 73.0995 54.2848 73.0813 54.2384C73.0631 54.1921 73.0362 54.15 73.0021 54.1145C72.968 54.079 72.9273 54.0509 72.8826 54.0319C72.8378 54.0128 72.7898 54.0032 72.7414 54.0035H53.2585V54.0035Z" fill="white"/>
<path fill-rule="evenodd" clip-rule="evenodd" d="M74 54.7784C74.0008 54.5455 73.9561 54.3146 73.8682 54.0991C73.7803 53.8836 73.6511 53.6876 73.4879 53.5224C73.3247 53.3573 73.1307 53.2261 72.9171 53.1364C72.7035 53.0468 72.4744 53.0004 72.2429 53H61.7571C61.5256 53.0004 61.2965 53.0468 61.0829 53.1364C60.8693 53.2261 60.6754 53.3573 60.5121 53.5224C60.3489 53.6876 60.2197 53.8836 60.1318 54.0991C60.044 54.3146 59.9992 54.5455 60 54.7784V68.2238C59.9994 68.4565 60.0445 68.6871 60.1325 68.9024C60.2205 69.1177 60.3497 69.3134 60.5129 69.4783C60.6761 69.6433 60.8699 69.7743 61.0834 69.8638C61.2969 69.9533 61.5258 69.9996 61.7571 70H63.8412C64.0725 69.9996 64.3014 69.9533 64.5148 69.8638C64.7283 69.7743 64.9222 69.6433 65.0854 69.4783C65.2485 69.3134 65.3778 69.1177 65.4658 68.9024C65.5538 68.6871 65.5988 68.4565 65.5983 68.2238V60.4451C65.5974 60.2121 65.6422 59.9813 65.7301 59.7658C65.818 59.5503 65.9472 59.3543 66.1104 59.1891C66.2736 59.0239 66.4676 58.8928 66.6812 58.8031C66.8948 58.7135 67.1239 58.6671 67.3553 58.6667H72.2429C72.4744 58.6662 72.7035 58.6199 72.9171 58.5302C73.1307 58.4406 73.3247 58.3094 73.4879 58.1442C73.6511 57.979 73.7803 57.7831 73.8682 57.5676C73.9561 57.352 74.0008 57.1212 74 56.8882V54.7784V54.7784Z" fill="#ACBBD3"/>
<path fill-rule="evenodd" clip-rule="evenodd" d="M63.6163 72H61.3837C60.4843 71.9972 59.6228 71.6395 58.9884 71.0054C58.3539 70.3713 57.9985 69.5126 58 68.6179V54.3844C57.9982 53.4894 58.3535 52.6303 58.9879 51.9958C59.6223 51.3612 60.484 51.0031 61.3837 51H72.6163C73.5156 51.0043 74.3766 51.3628 75.0107 51.9971C75.6449 52.6314 76.0006 53.4898 76 54.3844V56.6179C76.0006 57.5125 75.6449 58.3709 75.0107 59.0052C74.3766 59.6395 73.5156 59.998 72.6163 60.0023H67.3806C67.3304 60.0022 67.2806 60.0119 67.2342 60.031C67.1878 60.0502 67.1457 60.0782 67.1103 60.1137C67.0749 60.1491 67.0469 60.1912 67.028 60.2375C67.009 60.2837 66.9995 60.3333 67 60.3833V68.6179C67.0015 69.5126 66.646 70.3713 66.0116 71.0054C65.3772 71.6395 64.5157 71.9972 63.6163 72V72ZM61.3837 54.0035C61.3334 54.003 61.2835 54.0126 61.237 54.0316C61.1904 54.0506 61.1482 54.0786 61.1127 54.1141C61.0772 54.1496 61.0493 54.1918 61.0304 54.2383C61.0116 54.2847 61.0023 54.3344 61.0031 54.3844V68.6179C61.0023 68.6683 61.0116 68.7183 61.0303 68.7651C61.0491 68.8119 61.0769 68.8546 61.1123 68.8906C61.1477 68.9267 61.1899 68.9554 61.2365 68.9752C61.283 68.9949 61.3331 69.0053 61.3837 69.0058H63.6163C63.7184 69.0043 63.8157 68.9626 63.887 68.8899C63.9583 68.8173 63.9978 68.7195 63.9969 68.6179V60.3833C63.995 59.4883 64.3504 58.6292 64.9848 57.9946C65.6192 57.3601 66.4809 57.0019 67.3806 56.9988H72.6163C72.6666 56.999 72.7164 56.9892 72.7629 56.97C72.8094 56.9508 72.8516 56.9226 72.887 56.8871C72.9224 56.8515 72.9504 56.8093 72.9692 56.7629C72.9881 56.7165 72.9975 56.6668 72.9969 56.6167V54.3844C72.9975 54.3344 72.9881 54.2848 72.9692 54.2384C72.9503 54.1921 72.9224 54.15 72.8869 54.1145C72.8515 54.079 72.8093 54.0509 72.7628 54.0319C72.7163 54.0128 72.6665 54.0032 72.6163 54.0035H61.3837Z" fill="white"/>
<path fill-rule="evenodd" clip-rule="evenodd" d="M74.4888 66H65.8477C65.0542 66 64.406 65.3262 64.406 64.4973C64.406 63.6708 65.0542 62.9958 65.8477 62.9958H74.4888C74.8732 62.9958 75.2419 63.154 75.5137 63.4356C75.7855 63.7172 75.9382 64.0991 75.9382 64.4973C75.9382 64.8956 75.7855 65.2775 75.5137 65.5591C75.2419 65.8406 74.8732 65.9988 74.4888 65.9988V66ZM59.09 60.0009H52.45C52.0655 60.0009 51.6967 59.8427 51.4247 59.561C51.1528 59.2793 51 58.8972 51 58.4988C51 58.1005 51.1528 57.7184 51.4247 57.4367C51.6967 57.155 52.0655 56.9968 52.45 56.9968H59.09C59.4746 56.9968 59.8434 57.155 60.1153 57.4367C60.3873 57.7184 60.54 58.1005 60.54 58.4988C60.54 58.8972 60.3873 59.2793 60.1153 59.561C59.8434 59.8427 59.4746 60.0009 59.09 60.0009ZM59.09 66H52.45C51.6566 66 51.0084 65.3262 51.0084 64.4973C51.0084 63.6708 51.6566 62.9958 52.45 62.9958H59.09C59.4744 62.9958 59.8431 63.154 60.1149 63.4356C60.3868 63.7172 60.5395 64.0991 60.5395 64.4973C60.5395 64.8956 60.3868 65.2775 60.1149 65.5591C59.8431 65.8406 59.4744 65.9988 59.09 65.9988V66ZM101.842 51H88.8864C88.0907 51 87.4447 51.6726 87.4447 52.5015C87.4447 53.3281 88.0907 54.003 88.8864 54.003H101.842C102.227 54.003 102.596 53.8448 102.867 53.5632C103.139 53.2816 103.292 52.8997 103.292 52.5015C103.292 52.1033 103.139 51.7214 102.867 51.4398C102.596 51.1582 102.227 51 101.842 51ZM121.998 52.5015C121.999 52.3047 121.962 52.1096 121.89 51.9275C121.818 51.7454 121.712 51.5798 121.578 51.4403C121.444 51.3007 121.285 51.19 121.11 51.1144C120.934 51.0389 120.746 51 120.556 51H107.6C107.216 51 106.847 51.1582 106.575 51.4398C106.303 51.7214 106.151 52.1033 106.151 52.5015C106.151 52.8997 106.303 53.2816 106.575 53.5632C106.847 53.8448 107.216 54.003 107.6 54.003H120.558C121.361 54.003 122 53.3281 122 52.5015H121.998ZM90.3281 58.4983H88.8864C88.0907 58.4983 87.4447 59.172 87.4447 60.0009C87.4447 60.8275 88.0907 61.5024 88.8864 61.5024H90.3281C90.7102 61.5 91.0758 61.3404 91.3445 61.0589C91.6131 60.7773 91.7629 60.3968 91.7608 60.0009C91.7608 59.172 91.1215 58.4994 90.3281 58.4994V58.4983ZM98.9602 58.4983H96.0858C95.2901 58.4983 94.6441 59.172 94.6441 60.0009C94.6441 60.8275 95.2901 61.5024 96.0858 61.5024H98.9602C99.7626 61.5024 100.402 60.8275 100.402 60.0009C100.403 59.8041 100.366 59.6091 100.294 59.4269C100.222 59.2448 100.116 59.0792 99.9824 58.9397C99.8484 58.8002 99.6891 58.6894 99.5137 58.6139C99.3383 58.5383 99.1502 58.4994 98.9602 58.4994V58.4983ZM106.158 58.4983H104.726C104.536 58.4983 104.347 58.5372 104.172 58.6128C103.996 58.6885 103.837 58.7993 103.703 58.9389C103.569 59.0786 103.463 59.2443 103.391 59.4266C103.319 59.6088 103.283 59.804 103.284 60.0009C103.284 60.8275 103.923 61.5024 104.726 61.5024H106.158C106.961 61.5024 107.6 60.8275 107.6 60.0009C107.601 59.8041 107.565 59.6091 107.493 59.4269C107.421 59.2448 107.315 59.0792 107.181 58.9397C107.047 58.8002 106.887 58.6894 106.712 58.6139C106.537 58.5383 106.348 58.4994 106.158 58.4994V58.4983ZM114.8 58.4983H111.925C111.735 58.4983 111.547 58.5372 111.371 58.6128C111.196 58.6885 111.036 58.7993 110.903 58.9389C110.769 59.0786 110.663 59.2443 110.591 59.4266C110.519 59.6088 110.482 59.804 110.483 60.0009C110.483 60.8275 111.123 61.5024 111.925 61.5024H114.8C115.595 61.5024 116.241 60.8275 116.241 60.0009C116.241 59.172 115.595 58.4994 114.8 58.4994V58.4983ZM119.538 58.9301C119.279 59.2172 119.124 59.6131 119.124 60.0009C119.124 60.3887 119.279 60.7766 119.538 61.0625C119.812 61.3346 120.172 61.5024 120.557 61.5024C120.937 61.5024 121.309 61.3346 121.585 61.0625C121.844 60.7777 121.999 60.3887 121.999 60.0009C121.999 59.6131 121.844 59.2172 121.585 58.9301C121.036 58.3837 120.072 58.3837 119.538 58.9301Z" fill="white"/>
</svg>
