<svg width="122" height="126" viewBox="0 0 122 126" fill="none" xmlns="http://www.w3.org/2000/svg">
<path fill-rule="evenodd" clip-rule="evenodd" d="M115.243 113H6.76855C3.02991 113 0 110.118 0 106.563V35.4345C0 31.8796 3.02991 29 6.76855 29H115.243C118.971 29 122 31.8807 122 35.4345V106.563C122 110.118 118.971 113 115.243 113Z" fill="#3C7BDF"/>
<path fill-rule="evenodd" clip-rule="evenodd" d="M10 103C10 103.552 10.4477 104 11 104H28.1236C28.6759 104 29.1236 103.552 29.1236 103V92C29.1236 91.4477 28.6759 91 28.1236 91H11C10.4477 91 10 91.4477 10 92V103ZM37.6209 103C37.6209 103.552 38.0686 104 38.6209 104H55.7547C56.307 104 56.7547 103.552 56.7547 103V92C56.7547 91.4477 56.307 91 55.7547 91H38.6209C38.0686 91 37.6209 91.4477 37.6209 92V103ZM65.2554 103C65.2554 103.552 65.7031 104 66.2554 104H83.379C83.9313 104 84.379 103.552 84.379 103V92C84.379 91.4477 83.9313 91 83.379 91H66.2554C65.7031 91 65.2554 91.4477 65.2554 92V103ZM92.8764 103C92.8764 103.552 93.3241 104 93.8764 104H111C111.552 104 112 103.552 112 103V92C112 91.4477 111.552 91 111 91H93.8764C93.3241 91 92.8764 91.4477 92.8764 92V103Z" fill="#F4F6F8"/>
<path fill-rule="evenodd" clip-rule="evenodd" d="M41.3324 68H12.6676C12.3167 67.9997 11.9693 67.9291 11.6453 67.7923C11.3213 67.6555 11.0269 67.4551 10.7792 67.2027C10.5314 66.9502 10.3351 66.6506 10.2014 66.321C10.0677 65.9914 9.99927 65.6383 10 65.2818V44.7205C9.99898 44.3638 10.0672 44.0104 10.2008 43.6806C10.3343 43.3507 10.5306 43.0508 10.7784 42.7981C11.0262 42.5454 11.3206 42.3448 11.6448 42.2079C11.9689 42.0709 12.3165 42.0003 12.6676 42H41.3324C41.6835 42.0003 42.031 42.0709 42.3552 42.2079C42.6794 42.3448 42.9738 42.5454 43.2216 42.7981C43.4693 43.0508 43.6657 43.3507 43.7992 43.6806C43.9328 44.0104 44.001 44.3638 44 44.7205V65.2818C44.0007 65.6383 43.9323 65.9914 43.7986 66.321C43.6649 66.6506 43.4686 66.9502 43.2208 67.2027C42.973 67.4551 42.6787 67.6555 42.3547 67.7923C42.0307 67.9291 41.6833 67.9997 41.3324 68Z" fill="#F0C41B"/>
<path fill-rule="evenodd" clip-rule="evenodd" d="M41.237 70H12.763C11.4978 69.9976 10.2853 69.4871 9.39214 68.5808C8.49897 67.6745 7.99822 66.4466 8 65.167V44.8353C8 42.1666 10.1355 40 12.763 40H41.237C43.8533 40 46 42.1666 46 44.8353V65.167C46 67.8357 43.8533 70 41.237 70ZM12.763 44.2902C12.6924 44.2896 12.6223 44.3033 12.5569 44.3303C12.4915 44.3574 12.4321 44.3973 12.3822 44.4479C12.3322 44.4984 12.2927 44.5585 12.266 44.6246C12.2392 44.6907 12.2257 44.7616 12.2263 44.833V65.167C12.2263 65.47 12.4645 65.7211 12.763 65.7211H41.237C41.3082 65.7203 41.3786 65.7054 41.4441 65.6772C41.5096 65.6489 41.569 65.6079 41.6188 65.5564C41.6686 65.505 41.708 65.4441 41.7345 65.3773C41.7611 65.3105 41.7744 65.239 41.7737 65.167V44.8353C41.7742 44.7638 41.7608 44.6929 41.7341 44.6267C41.7073 44.5605 41.6678 44.5004 41.6179 44.4497C41.5679 44.3991 41.5085 44.3591 41.4432 44.3319C41.3778 44.3047 41.3077 44.2909 41.237 44.2914H12.763V44.2902Z" fill="#F3D55C"/>
<path fill-rule="evenodd" clip-rule="evenodd" d="M43.9988 44.7204C43.9999 44.3638 43.9325 44.0105 43.8006 43.6808C43.6686 43.351 43.4747 43.0512 43.23 42.7985C42.9852 42.5458 42.6943 42.3452 42.3741 42.2082C42.0538 42.0712 41.7105 42.0004 41.3636 42H25.6353C25.2884 42.0004 24.945 42.0712 24.6248 42.2082C24.3045 42.3452 24.0137 42.5458 23.7689 42.7985C23.5242 43.0512 23.3303 43.351 23.1983 43.6808C23.0664 44.0105 22.999 44.3638 23 44.7204V65.2819C22.9993 65.6384 23.0669 65.9915 23.1991 66.3211C23.3312 66.6507 23.5253 66.9503 23.7701 67.2027C24.015 67.4552 24.3058 67.6555 24.6261 67.7923C24.9463 67.9291 25.2896 67.9997 25.6364 68H28.7623C29.109 67.9995 29.4522 67.9289 29.7723 67.792C30.0924 67.6551 30.3831 67.4548 30.6279 67.2023C30.8726 66.9499 31.0666 66.6504 31.1987 66.3208C31.3307 65.9913 31.3983 65.6383 31.3976 65.2819V53.3871C31.3966 53.0305 31.4639 52.6772 31.5958 52.3474C31.7278 52.0176 31.9217 51.7178 32.1664 51.4652C32.4112 51.2125 32.7021 51.0119 33.0223 50.8749C33.3426 50.7379 33.6859 50.6671 34.0328 50.6667H41.3636C41.7106 50.6664 42.054 50.5957 42.3744 50.4588C42.6948 50.3218 42.9858 50.1213 43.2307 49.8686C43.4755 49.6159 43.6696 49.316 43.8016 48.9862C43.9336 48.6563 44.001 48.3029 44 47.9463V44.7216L43.9988 44.7204Z" fill="#F0C41B"/>
<path fill-rule="evenodd" clip-rule="evenodd" d="M28.8008 70H25.7003C24.4518 69.9976 23.2552 69.4871 22.3738 68.5808C21.4924 67.6745 20.9982 66.4466 21 65.167V44.8353C21 42.1666 23.1074 40 25.7003 40H41.2997C43.8815 40 46 42.1666 46 44.8353V48.0253C46 50.6939 43.8815 52.8617 41.2997 52.8617H34.0285C33.9588 52.8612 33.8898 52.8749 33.8253 52.9021C33.7609 52.9292 33.7023 52.9691 33.653 53.0196C33.6038 53.0701 33.5647 53.1301 33.5383 53.1962C33.5118 53.2623 33.4985 53.333 33.4989 53.4045V65.167C33.5006 66.4462 33.0068 67.6738 32.1259 68.58C31.2449 69.4863 30.049 69.997 28.8008 70ZM25.7003 44.2902C25.6305 44.2893 25.5612 44.3027 25.4966 44.3297C25.4319 44.3567 25.3732 44.3966 25.3239 44.4472C25.2745 44.4978 25.2355 44.558 25.2092 44.6242C25.1829 44.6905 25.1698 44.7615 25.1707 44.833V65.167C25.1707 65.47 25.4024 65.7211 25.7003 65.7211H28.8008C28.9425 65.7193 29.0777 65.6599 29.1768 65.5561C29.2759 65.4522 29.3308 65.3123 29.3293 65.167V53.4045C29.3293 50.7358 31.4356 48.568 34.0285 48.568H41.2997C41.3693 48.5685 41.4384 48.5548 41.5028 48.5276C41.5673 48.5005 41.6258 48.4606 41.6751 48.4101C41.7244 48.3596 41.7634 48.2996 41.7899 48.2335C41.8163 48.1674 41.8297 48.0967 41.8293 48.0253V44.8341C41.8298 44.7626 41.8166 44.6917 41.7902 44.6256C41.7638 44.5594 41.7248 44.4992 41.6755 44.4486C41.6262 44.398 41.5676 44.3579 41.5031 44.3307C41.4386 44.3036 41.3694 44.2898 41.2997 44.2902H25.6992H25.7003Z" fill="#F3D55C"/>
<path fill-rule="evenodd" clip-rule="evenodd" d="M43.9247 61H31.2482C30.6935 60.987 30.1658 60.7528 29.778 60.3475C29.3902 59.9423 29.173 59.3981 29.173 58.8314C29.173 58.2648 29.3902 57.7206 29.778 57.3153C30.1658 56.91 30.6935 56.6759 31.2482 56.6629H43.9247C44.4795 56.6759 45.0072 56.91 45.395 57.3153C45.7828 57.7206 46 58.2648 46 58.8314C46 59.3981 45.7828 59.9423 45.395 60.3475C45.0072 60.7528 44.4795 60.987 43.9247 61ZM22.8005 52.3383H10.124C9.56066 52.3383 9.02041 52.1097 8.62209 51.703C8.22377 51.2962 8 50.7444 8 50.1691C8 49.5938 8.22377 49.0421 8.62209 48.6353C9.02041 48.2285 9.56066 48 10.124 48H22.8005C23.3638 48 23.9041 48.2285 24.3024 48.6353C24.7007 49.0421 24.9245 49.5938 24.9245 50.1691C24.9245 50.7444 24.7007 51.2962 24.3024 51.703C23.9041 52.1097 23.3638 52.3383 22.8005 52.3383ZM22.8005 61H10.124C9.56924 60.987 9.04153 60.7528 8.65371 60.3475C8.26589 59.9423 8.04873 59.3981 8.04873 58.8314C8.04873 58.2648 8.26589 57.7206 8.65371 57.3153C9.04153 56.91 9.56924 56.6759 10.124 56.6629H22.8005C23.3552 56.6759 23.8829 56.91 24.2708 57.3153C24.6586 57.7206 24.8757 58.2648 24.8757 58.8314C24.8757 59.3981 24.6586 59.9423 24.2708 60.3475C23.8829 60.7528 23.3552 60.987 22.8005 61Z" fill="#F3D55C"/>
</svg>
