<svg width="42" height="40" viewBox="0 0 42 40" fill="none" xmlns="http://www.w3.org/2000/svg">
<g clip-path="url(#clip0)">
<path d="M40.7482 22.2352H22.428L34.6288 34.4361C35.0952 34.9024 35.8626 34.9402 36.342 34.4886C39.3299 31.6737 41.3851 27.879 41.9881 23.6134C42.0915 22.883 41.4855 22.2352 40.7482 22.2352ZM39.526 17.2323C38.8898 8.00928 31.5198 0.639212 22.2967 0.00303591C21.5926 -0.0456038 20.9997 0.548109 20.9997 1.25377V18.5294H38.276C38.9817 18.5294 39.5746 17.9364 39.526 17.2323ZM17.2938 22.2352V3.91506C17.2938 3.17774 16.646 2.57168 15.9164 2.67513C6.71582 3.97528 -0.316864 12.0132 0.0104893 21.6462C0.347107 31.5393 8.86523 39.6521 18.763 39.5278C22.6542 39.4792 26.2497 38.2254 29.2059 36.1284C29.8158 35.6961 29.856 34.7982 29.3271 34.2693L17.2938 22.2352Z" fill="#15549A"/>
</g>
<defs>
<clipPath id="clip0">
<rect width="42" height="39.5294" fill="white"/>
</clipPath>
</defs>
</svg>
