<svg width="36" height="31" viewBox="0 0 36 31" fill="none" xmlns="http://www.w3.org/2000/svg">
<g clip-path="url(#clip0)">
<path fill-rule="evenodd" clip-rule="evenodd" d="M0 13.7757C0 11.6605 1.71466 9.94589 3.82979 9.94589H26.0426C28.1577 9.94589 29.8723 11.6605 29.8723 13.7757V26.797C29.8723 28.9121 28.1577 30.6267 26.0426 30.6267H3.82979C1.71466 30.6267 0 28.9121 0 26.797V13.7757ZM3.82979 11.4778C2.56071 11.4778 1.53191 12.5066 1.53191 13.7757V26.797C1.53191 28.066 2.56071 29.0948 3.82979 29.0948H26.0426C27.3117 29.0948 28.3404 28.066 28.3404 26.797V13.7757C28.3404 12.5066 27.3117 11.4778 26.0426 11.4778H3.82979Z" fill="#F734FF"/>
<path fill-rule="evenodd" clip-rule="evenodd" d="M5.41543 4.49126C5.65129 2.38932 7.54646 0.876563 9.64836 1.11242L31.7226 3.58936C33.8246 3.82522 35.3373 5.72039 35.1014 7.82234L33.6495 20.7624C33.4132 22.8684 31.502 24.3752 29.4041 24.1398L29.5749 22.6175C30.8401 22.7594 31.9861 21.8487 32.1271 20.5915L33.2896 10.231L6.67877 6.97048L6.29234 10.4143C6.24517 10.8347 5.86614 11.1373 5.44575 11.0901C5.02536 11.0429 4.72281 10.6638 4.76998 10.2435L5.41543 4.49126ZM6.8496 5.44804L33.4605 8.70856L33.5791 7.6515C33.7206 6.39034 32.813 5.25324 31.5518 5.11173L9.47755 2.63478C8.2164 2.49327 7.07931 3.40092 6.9378 4.66209L6.8496 5.44804Z" fill="#F734FF"/>
<path fill-rule="evenodd" clip-rule="evenodd" d="M4.5957 15.3076C4.5957 14.8845 4.93864 14.5416 5.36166 14.5416H12.2553C12.6783 14.5416 13.0212 14.8845 13.0212 15.3076V19.9033C13.0212 20.3263 12.6783 20.6693 12.2553 20.6693H5.36166C4.93864 20.6693 4.5957 20.3263 4.5957 19.9033V15.3076ZM6.12762 16.0735V19.1374H11.4893V16.0735H6.12762Z" fill="#F734FF"/>
<path fill-rule="evenodd" clip-rule="evenodd" d="M4.5957 25.265C4.5957 24.842 4.93864 24.4991 5.36166 24.4991H12.2553C12.6783 24.4991 13.0212 24.842 13.0212 25.265C13.0212 25.688 12.6783 26.031 12.2553 26.031H5.36166C4.93864 26.031 4.5957 25.688 4.5957 25.265Z" fill="#F734FF"/>
</g>
<defs>
<clipPath id="clip0">
<rect width="36" height="30.6383" fill="white"/>
</clipPath>
</defs>
</svg>
