<svg width="65" height="65" viewBox="0 0 65 65" fill="none" xmlns="http://www.w3.org/2000/svg">
<path fill-rule="evenodd" clip-rule="evenodd" d="M35.0654 5.20149L34.1165 4.59464C33.1311 3.96446 31.8693 3.96446 30.8839 4.59464L29.935 5.20148C28.0978 6.37639 25.8966 6.84429 23.7404 6.5182L22.6267 6.34978C21.4701 6.17488 20.3174 6.6881 19.6735 7.66459L19.0535 8.60492C17.853 10.4255 16.0324 11.7483 13.9299 12.3274L12.844 12.6265C11.7164 12.9371 10.872 13.8748 10.681 15.0288L10.497 16.14C10.1409 18.2915 9.01563 20.2404 7.33051 21.6246L6.46014 22.3396C5.5563 23.082 5.16638 24.282 5.46121 25.4139L5.74512 26.5039C6.29481 28.6142 6.05957 30.8524 5.08314 32.8023L4.57881 33.8094C4.05509 34.8553 4.18698 36.1102 4.91671 37.0243L5.61941 37.9046C6.97992 39.6089 7.67535 41.7492 7.57644 43.9277L7.52535 45.0529C7.47229 46.2213 8.1032 47.3141 9.14164 47.8524L10.1416 48.3707C12.0777 49.3743 13.5836 51.0467 14.3793 53.0771L14.7903 54.1258C15.2171 55.2148 16.2379 55.9565 17.4055 56.0259L18.5299 56.0927C20.7068 56.222 22.7627 57.1374 24.3154 58.6686L25.1174 59.4594C25.9502 60.2807 27.1845 60.5431 28.2794 60.1315L29.3337 59.7353C31.375 58.968 33.6254 58.968 35.6667 59.7353L36.7211 60.1315C37.816 60.5431 39.0502 60.2807 39.883 59.4594L40.685 58.6686C42.2378 57.1374 44.2937 56.222 46.4706 56.0927L47.5949 56.0259C48.7626 55.9565 49.7834 55.2148 50.2102 54.1258L50.6212 53.0771C51.4169 51.0467 52.9227 49.3743 54.8588 48.3707L55.8588 47.8524C56.8972 47.3141 57.5281 46.2213 57.4751 45.0529L57.424 43.9277C57.3251 41.7492 58.0205 39.6089 59.381 37.9046L60.0837 37.0243C60.8135 36.1102 60.9454 34.8553 60.4216 33.8094L59.9173 32.8023C58.9409 30.8524 58.7056 28.6143 59.2553 26.5039L59.5392 25.4139C59.8341 24.282 59.4441 23.082 58.5403 22.3396L57.6699 21.6246C55.9848 20.2404 54.8596 18.2915 54.5034 16.14L54.3194 15.0288C54.1284 13.8748 53.2841 12.9371 52.1564 12.6265L51.0705 12.3274C48.9681 11.7483 47.1474 10.4255 45.9469 8.60492L45.3269 7.66459C44.683 6.6881 43.5303 6.17488 42.3738 6.34978L41.2601 6.5182C39.1039 6.84429 36.9026 6.37639 35.0654 5.20149ZM35.7328 2.06728C33.762 0.806921 31.2384 0.806919 29.2676 2.06728L28.3187 2.67412C27.0939 3.45739 25.6264 3.76932 24.1889 3.55193L23.0753 3.38351C20.7622 3.0337 18.4568 4.06015 17.169 6.01314L16.549 6.95347C15.7487 8.16719 14.5349 9.04904 13.1333 9.43512L12.0474 9.73424C9.79201 10.3555 8.10338 12.2309 7.72129 14.5388L7.53732 15.65C7.29987 17.0843 6.54972 18.3836 5.4263 19.3064L4.55594 20.0214C2.74826 21.5062 1.96842 23.9063 2.55808 26.1701L2.84199 27.2601C3.20845 28.667 3.05162 30.1591 2.40067 31.459L1.89634 32.4662C0.848892 34.5579 1.11268 37.0677 2.57214 38.8959L3.27484 39.7762C4.18185 40.9124 4.64547 42.3393 4.57952 43.7916L4.52843 44.9168C4.42233 47.2537 5.68413 49.4393 7.76103 50.5158L8.76102 51.0342C10.0517 51.7032 11.0556 52.8182 11.5861 54.1718L11.9971 55.2205C12.8507 57.3985 14.8923 58.8819 17.2276 59.0206L18.3519 59.0874C19.8032 59.1736 21.1738 59.7839 22.209 60.8047L23.0109 61.5955C24.6766 63.2381 27.1451 63.7628 29.3349 62.9397L30.3892 62.5434C31.7501 62.0319 33.2504 62.0319 34.6112 62.5434L35.6656 62.9397C37.8553 63.7628 40.3238 63.2381 41.9895 61.5955L42.7915 60.8047C43.8266 59.7839 45.1972 59.1736 46.6485 59.0874L47.7729 59.0206C50.1081 58.8819 52.1497 57.3985 53.0033 55.2205L53.4143 54.1718C53.9448 52.8182 54.9487 51.7032 56.2394 51.0342L57.2394 50.5158C59.3163 49.4393 60.5781 47.2537 60.472 44.9168L60.4209 43.7916C60.355 42.3393 60.8186 40.9124 61.7256 39.7762L62.4283 38.8959C63.8878 37.0677 64.1515 34.5579 63.1041 32.4662L62.5998 31.459C61.9488 30.1591 61.792 28.667 62.1584 27.2601L62.4424 26.1701C63.032 23.9063 62.2522 21.5062 60.4445 20.0214L59.5741 19.3064C58.4507 18.3836 57.7006 17.0843 57.4631 15.65L57.2791 14.5388C56.8971 12.2309 55.2084 10.3555 52.9531 9.73424L51.8672 9.43512C50.4656 9.04904 49.2518 8.16719 48.4515 6.95347L47.8314 6.01314C46.5437 4.06015 44.2382 3.0337 41.9252 3.38351L40.8115 3.55193C39.374 3.76932 37.9065 3.45739 36.6817 2.67412L35.7328 2.06728Z" fill="#204EF4"/>
<path fill-rule="evenodd" clip-rule="evenodd" d="M40.2971 20.7532C41.0135 21.1692 41.257 22.0872 40.841 22.8036L27.3474 46.0426C26.9315 46.759 26.0135 47.0025 25.2971 46.5865C24.5806 46.1706 24.3371 45.2526 24.7531 44.5362L38.2467 21.2972C38.6627 20.5808 39.5806 20.3372 40.2971 20.7532Z" fill="#204EF4"/>
<path fill-rule="evenodd" clip-rule="evenodd" d="M26 25.3333C24.6193 25.3333 23.5 26.4526 23.5 27.8333C23.5 29.214 24.6193 30.3333 26 30.3333C27.3807 30.3333 28.5 29.214 28.5 27.8333C28.5 26.4526 27.3807 25.3333 26 25.3333ZM20.5 27.8333C20.5 24.7957 22.9624 22.3333 26 22.3333C29.0376 22.3333 31.5 24.7957 31.5 27.8333C31.5 30.8709 29.0376 33.3333 26 33.3333C22.9624 33.3333 20.5 30.8709 20.5 27.8333Z" fill="#204EF4"/>
<path fill-rule="evenodd" clip-rule="evenodd" d="M40 36.3333C38.7805 36.3333 37.5 37.5055 37.5 39.3333C37.5 41.1611 38.7805 42.3333 40 42.3333C41.2195 42.3333 42.5 41.1611 42.5 39.3333C42.5 37.5055 41.2195 36.3333 40 36.3333ZM34.5 39.3333C34.5 36.1906 36.8012 33.3333 40 33.3333C43.1988 33.3333 45.5 36.1906 45.5 39.3333C45.5 42.476 43.1988 45.3333 40 45.3333C36.8012 45.3333 34.5 42.476 34.5 39.3333Z" fill="#204EF4"/>
</svg>
