<svg width="66" height="60" viewBox="0 0 66 60" fill="none" xmlns="http://www.w3.org/2000/svg">
<path fill-rule="evenodd" clip-rule="evenodd" d="M21.7499 1.18362C23.7735 1.81498 25.8499 3.22838 27.5607 4.93933C29.7361 7.11506 31.8341 10.7127 33.8111 14.2716C34.0934 14.7798 34.0566 15.4054 33.7167 15.8771C33.3767 16.3487 32.7948 16.5815 32.2234 16.4743C31.8411 16.4026 31.3024 16.3195 30.668 16.2217C29.435 16.0314 27.8404 15.7854 26.3286 15.459C23.9514 14.9456 21.2682 14.1484 19.1678 12.748C17.4858 11.6266 16.0143 10.0447 15.2495 8.28551C14.4681 6.48812 14.39 4.3617 15.8287 2.56302C17.3783 0.625621 19.7322 0.554127 21.7499 1.18362ZM20.8564 4.04747C19.4218 3.59991 18.6214 3.8743 18.1714 4.43692C17.6105 5.13825 17.5323 6.01183 18.0008 7.08943C18.4859 8.20524 19.514 9.37323 20.8319 10.2519C22.4524 11.3323 24.6859 12.0351 26.9618 12.5266C27.9339 12.7365 28.8291 12.8938 29.6536 13.0265C28.1941 10.5337 26.795 8.41645 25.4392 7.06053L26.4999 5.99993L25.4392 7.06052C23.9586 5.57974 22.2849 4.49316 20.8564 4.04747Z" fill="#204EF4"/>
<path fill-rule="evenodd" clip-rule="evenodd" d="M44.2342 0.861818C42.1401 1.50462 39.9841 2.94664 38.2039 4.69836C35.9411 6.92491 33.7563 10.6101 31.694 14.2625C31.4077 14.7697 31.4408 15.3969 31.7791 15.8711C32.1173 16.3453 32.6995 16.5808 33.2723 16.4751C33.6763 16.4006 34.2411 16.3149 34.9047 16.2142C36.1881 16.0195 37.8412 15.7686 39.4163 15.434C41.8912 14.9081 44.6773 14.0929 46.856 12.6638C48.6008 11.5193 50.1292 9.90339 50.9239 8.10492C51.737 6.26478 51.8157 4.09053 50.3249 2.25681C48.731 0.29625 46.3172 0.222425 44.2342 0.861818ZM45.1146 3.72975C46.631 3.26428 47.506 3.54527 47.9971 4.14927C48.5912 4.88012 48.6699 5.78333 48.1798 6.8924C47.6714 8.04315 46.5935 9.24819 45.2106 10.1553C43.5096 11.271 41.1693 11.9946 38.7928 12.4995C37.735 12.7242 36.7612 12.8908 35.868 13.0311C37.4043 10.4445 38.8783 8.2435 40.308 6.83674L39.2695 5.78131L40.308 6.83673C41.8552 5.31432 43.6093 4.19181 45.1146 3.72975Z" fill="#204EF4"/>
<path fill-rule="evenodd" clip-rule="evenodd" d="M3 17V21H63V17H3ZM2 14C0.895431 14 0 14.8954 0 16V22C0 23.1046 0.895429 24 2 24H64C65.1046 24 66 23.1046 66 22V16C66 14.8954 65.1046 14 64 14H2Z" fill="#204EF4"/>
<path fill-rule="evenodd" clip-rule="evenodd" d="M60 24H6V57H60V24ZM3 21V58C3 59.1046 3.89543 60 5 60H61C62.1046 60 63 59.1046 63 58V21H3Z" fill="#204EF4"/>
<path fill-rule="evenodd" clip-rule="evenodd" d="M34.5 15.5V59H31.5V15.5H34.5Z" fill="#204EF4"/>
</svg>
