<svg width="57" height="63" viewBox="0 0 57 63" fill="none" xmlns="http://www.w3.org/2000/svg">
<path fill-rule="evenodd" clip-rule="evenodd" d="M3 17V53H32V17H3ZM2 14C0.895431 14 0 14.8954 0 16V54C0 55.1046 0.89543 56 2 56H33C34.1046 56 35 55.1046 35 54V16C35 14.8954 34.1046 14 33 14H2Z" fill="#204EF4"/>
<path fill-rule="evenodd" clip-rule="evenodd" d="M22.8475 3.54647C23.3451 1.67862 25.2627 0.567819 27.1306 1.06543L53.3207 8.04265C55.1886 8.54026 56.2994 10.4578 55.8018 12.3257L43.4751 58.5961C42.9789 60.4584 41.0706 61.5692 39.2063 61.0809L19.6198 55.9511C18.8184 55.7412 18.3389 54.9214 18.5488 54.12C18.7587 53.3186 19.5785 52.8391 20.3799 53.049L39.9663 58.1788C40.2327 58.2486 40.5053 58.0899 40.5762 57.8238L52.9029 11.5534C52.974 11.2866 52.8153 11.0126 52.5485 10.9415L26.3583 3.96432C26.0915 3.89323 25.8175 4.05192 25.7464 4.31875L22.9312 14.8862C22.7179 15.6867 21.8961 16.1627 21.0956 15.9495C20.2951 15.7362 19.8191 14.9144 20.0323 14.1139L22.8475 3.54647ZM44.1209 13.5035C44.6713 14.1226 44.6155 15.0708 43.9964 15.6211L41.2817 18.0341L45.0767 19.6154C45.8415 19.934 46.2031 20.8122 45.8844 21.5769C45.5658 22.3416 44.6876 22.7033 43.9229 22.3846L40.1995 20.8332L40.4946 24.3754C40.5634 25.201 39.95 25.926 39.1244 25.9948C38.2988 26.0636 37.5738 25.4502 37.505 24.6246L37.0839 19.571L33.9731 18.4045C33.1975 18.1136 32.8045 17.249 33.0953 16.4733C33.3862 15.6977 34.2508 15.3046 35.0265 15.5955L38.1794 16.7779L42.0033 13.3789C42.6225 12.8285 43.5706 12.8843 44.1209 13.5035Z" fill="#204EF4"/>
<path fill-rule="evenodd" clip-rule="evenodd" d="M17 39C21.9706 39 26 34.9706 26 30C26 25.0294 21.9706 21 17 21C12.0294 21 8 25.0294 8 30C8 34.9706 12.0294 39 17 39ZM17 41C23.0751 41 28 36.0751 28 30C28 23.9249 23.0751 19 17 19C10.9249 19 6 23.9249 6 30C6 36.0751 10.9249 41 17 41Z" fill="#204EF4"/>
<path fill-rule="evenodd" clip-rule="evenodd" d="M12 39L12 21L14 21L14 39L12 39Z" fill="#204EF4"/>
<path fill-rule="evenodd" clip-rule="evenodd" d="M20 39L20 21L22 21L22 39L20 39Z" fill="#204EF4"/>
<path fill-rule="evenodd" clip-rule="evenodd" d="M8 25L26 25L26 27L8 27L8 25Z" fill="#204EF4"/>
<path fill-rule="evenodd" clip-rule="evenodd" d="M8 33L26 33L26 35L8 35L8 33Z" fill="#204EF4"/>
<path fill-rule="evenodd" clip-rule="evenodd" d="M27 50H8V46H27V50Z" fill="#204EF4"/>
</svg>
