<svg width="58" height="52" viewBox="0 0 58 52" fill="none" xmlns="http://www.w3.org/2000/svg">
<path fill-rule="evenodd" clip-rule="evenodd" d="M53 10H5C3.89543 10 3 10.8954 3 12V47C3 48.1046 3.89543 49 5 49H53C54.1046 49 55 48.1046 55 47V12C55 10.8954 54.1046 10 53 10ZM5 7C2.23858 7 0 9.23858 0 12V47C0 49.7614 2.23858 52 5 52H53C55.7614 52 58 49.7614 58 47V12C58 9.23858 55.7614 7 53 7H5Z" fill="#204EF4"/>
<path fill-rule="evenodd" clip-rule="evenodd" d="M25 3C23.067 3 21.5 4.567 21.5 6.5V8.5H18.5V6.5C18.5 2.91015 21.4101 0 25 0H33C36.5899 0 39.5 2.91015 39.5 6.5V8.5H36.5V6.5C36.5 4.567 34.933 3 33 3H25Z" fill="#204EF4"/>
<path fill-rule="evenodd" clip-rule="evenodd" d="M43.6325 10H14.1195C10.8069 10 8.65953 10.0078 7.13487 10.2319C5.70946 10.4414 5.49081 10.7539 5.43141 10.8387C5.43009 10.8406 5.42885 10.8424 5.42768 10.8441C5.4265 10.8457 5.42524 10.8475 5.4239 10.8494C5.36355 10.9336 5.14137 11.2435 5.41682 12.6577C5.71145 14.1703 6.41686 16.1985 7.51634 19.3233L9.9793 26.3233C10.5698 28.0016 10.9342 29.0238 11.2896 29.7581C11.6118 30.4237 11.7988 30.5708 11.8853 30.6321C11.9719 30.6934 12.1727 30.821 12.9075 30.904C13.7182 30.9956 14.8034 31 16.5825 31H41.0399C42.7902 31 43.8568 30.9957 44.6543 30.9065C45.3768 30.8258 45.5762 30.7016 45.6625 30.6415C45.7488 30.5815 45.9345 30.4376 46.2612 29.7881C46.6218 29.0712 46.9963 28.0726 47.6042 26.4312L50.1968 19.4312C51.3648 16.2775 52.1161 14.2266 52.4401 12.695C52.7432 11.2617 52.5206 10.9464 52.4617 10.863C52.4603 10.861 52.459 10.8592 52.4578 10.8575C52.4566 10.8557 52.4554 10.8539 52.454 10.8519C52.3962 10.7677 52.1779 10.4494 50.7285 10.2359C49.1798 10.0078 46.9956 10 43.6325 10ZM2.9795 9.11016C1.48499 11.2203 2.55213 14.2532 4.6864 20.3191L7.14937 27.3191C8.28503 30.5468 8.85287 32.1606 10.1514 33.0803C11.45 34 13.1608 34 16.5825 34H41.0399C44.4058 34 46.0887 34 47.3763 33.1038C48.6639 32.2077 49.2484 30.6295 50.4174 27.4731L53.01 20.4731C55.2781 14.3493 56.4122 11.2874 54.9201 9.14368C53.4281 7 50.1629 7 43.6325 7H14.1195C7.68918 7 4.474 7 2.9795 9.11016Z" fill="#204EF4"/>
<path d="M33 31C33 30.4747 32.8965 29.9546 32.6955 29.4693C32.4945 28.984 32.1999 28.543 31.8284 28.1716C31.457 27.8001 31.016 27.5055 30.5307 27.3045C30.0454 27.1035 29.5253 27 29 27C28.4747 27 27.9546 27.1035 27.4693 27.3045C26.984 27.5055 26.543 27.8001 26.1716 28.1716C25.8001 28.543 25.5055 28.984 25.3045 29.4693C25.1035 29.9546 25 30.4747 25 31L29 31H33Z" fill="#204EF4"/>
<path d="M27 33H31V37H27V33Z" fill="#204EF4"/>
</svg>
