<svg width="66" height="76" viewBox="0 0 66 76" fill="none" xmlns="http://www.w3.org/2000/svg">
<path fill-rule="evenodd" clip-rule="evenodd" d="M35.3769 3.64479C34.2172 2.83297 32.6816 2.79876 31.4887 3.55787L31.2566 3.70559C30.1957 4.38068 29.5785 5.57298 29.6398 6.82894L30.3847 22.1006C30.4783 24.0178 29.7196 25.8784 28.3121 27.1835L4.12021 49.616C3.40594 50.2783 3 51.2083 3 52.1824V52.5C3 53.3284 3.67157 54 4.5 54H6.35459C7.10272 54 7.83115 53.7603 8.43307 53.316L25.0769 41.0313C27.335 39.3646 30.538 40.9003 30.6525 43.7046L31.441 63.0245C31.4959 64.3678 30.9472 65.6652 29.9453 66.5617L24.426 71.5H25.1016L25.1632 71.4648C27.57 70.0895 30.5849 70.3936 32.67 72.218C32.8592 72.3836 33.1415 72.383 33.3293 72.2187L33.6348 71.9514C35.5226 70.2995 38.1925 69.8814 40.495 70.8771L41.9354 71.5H42.074L36.5547 66.5617C35.5528 65.6652 35.0041 64.3678 35.059 63.0245L35.8454 43.7577C35.9606 40.935 39.2 39.4048 41.4533 41.1086L57.5666 53.2918C58.1744 53.7513 58.9155 54 59.6775 54H61C61.8284 54 62.5 53.3284 62.5 52.5V52.1276C62.5 51.176 62.1125 50.2654 61.4268 49.6056L38.0978 27.1569C36.7449 25.8551 36.0211 24.0318 36.1125 22.1565L36.8673 6.68381C36.9259 5.48336 36.3626 4.3348 35.3769 3.64479ZM29.8781 1.02689C32.0955 -0.3842 34.9455 -0.319176 37.0973 1.1871C38.9263 2.46743 39.9726 4.59864 39.8637 6.82998L39.109 22.3027C39.0597 23.3125 39.4495 24.2942 40.178 24.9952L43.2273 27.9295V27C43.2273 26.1716 43.8988 25.5 44.7273 25.5C45.5557 25.5 46.2273 26.1716 46.2273 27V30.8162L52.8636 37.2022V36C52.8636 35.1716 53.5352 34.5 54.3636 34.5C55.1921 34.5 55.8636 35.1716 55.8636 36V40.089L63.507 47.4439C64.7804 48.6693 65.5 50.3603 65.5 52.1276V52.5C65.5 54.9853 63.4853 57 61 57H59.6775C58.2624 57 56.886 56.5382 55.7573 55.6848L39.644 43.5016C39.3221 43.2582 38.8593 43.4768 38.8429 43.88L38.0565 63.1469C38.0382 63.5947 38.2211 64.0271 38.555 64.3259L45.0496 70.1369C46.7598 71.667 45.6774 74.5 43.3826 74.5H41.625C41.4202 74.5 41.2176 74.4581 41.0296 74.3768L39.3042 73.6307C38.0645 73.0945 36.6268 73.3197 35.6103 74.2091L35.3048 74.4765C33.9844 75.6318 32.0133 75.6298 30.6945 74.4758C29.5709 73.4926 27.9466 73.3296 26.6516 74.0695L26.2442 74.3024C26.0176 74.4319 25.761 74.5 25.5 74.5H23.1174C20.8226 74.5 19.7402 71.667 21.4504 70.1369L27.945 64.3259C28.2789 64.0271 28.4618 63.5947 28.4435 63.1469L27.655 43.8269C27.6386 43.4263 27.181 43.2069 26.8584 43.445L10.2146 55.7297C9.09678 56.5548 7.74396 57 6.35459 57H4.5C2.01472 57 0 54.9853 0 52.5V52.1824C0 50.3734 0.753892 48.6462 2.08039 47.4162L10 40.0725V36C10 35.1716 10.6716 34.5 11.5 34.5C12.3284 34.5 13 35.1716 13 36V37.2907L20 30.7998V27C20 26.1716 20.6716 25.5 21.5 25.5C22.3284 25.5 23 26.1716 23 27V28.018L26.2722 24.9837C27.0301 24.2809 27.4387 23.2791 27.3883 22.2467L26.6433 6.97511C26.5296 4.64262 27.6758 2.42835 29.6459 1.17461L29.8781 1.02689Z" fill="#204EF4"/>
</svg>
