<svg width="58" height="41" viewBox="0 0 58 41" fill="none" xmlns="http://www.w3.org/2000/svg">
<path d="M30.9434 28.6338C30.9434 28.1533 30.8086 27.7725 30.5391 27.4912C30.2754 27.2041 29.8242 26.9404 29.1855 26.7002C28.5469 26.46 27.9961 26.2227 27.5332 25.9883C27.0703 25.748 26.6719 25.4756 26.3379 25.1709C26.0098 24.8604 25.752 24.4971 25.5645 24.0811C25.3828 23.665 25.292 23.1699 25.292 22.5957C25.292 21.6055 25.6084 20.7939 26.2412 20.1611C26.874 19.5283 27.7148 19.1592 28.7637 19.0537V17.1729H30.1699V19.0801C31.207 19.2266 32.0186 19.6602 32.6045 20.3809C33.1904 21.0957 33.4834 22.0244 33.4834 23.167H30.9434C30.9434 22.4639 30.7969 21.9395 30.5039 21.5938C30.2168 21.2422 29.8301 21.0664 29.3438 21.0664C28.8633 21.0664 28.4912 21.2041 28.2275 21.4795C27.9639 21.749 27.832 22.124 27.832 22.6045C27.832 23.0498 27.9609 23.4072 28.2188 23.6768C28.4766 23.9463 28.9541 24.2217 29.6514 24.5029C30.3545 24.7842 30.9316 25.0508 31.3828 25.3027C31.834 25.5488 32.2148 25.8301 32.5254 26.1465C32.8359 26.457 33.0732 26.8145 33.2373 27.2188C33.4014 27.6172 33.4834 28.083 33.4834 28.6162C33.4834 29.6123 33.1729 30.4209 32.5518 31.042C31.9307 31.6631 31.0752 32.0293 29.9854 32.1406V33.8896H28.5879V32.1494C27.3867 32.0205 26.4551 31.5957 25.793 30.875C25.1367 30.1484 24.8086 29.1846 24.8086 27.9834H27.3486C27.3486 28.6807 27.5127 29.2168 27.8408 29.5918C28.1748 29.9609 28.6523 30.1455 29.2734 30.1455C29.7891 30.1455 30.1963 30.0107 30.4951 29.7412C30.7939 29.4658 30.9434 29.0967 30.9434 28.6338Z" fill="#204EF4"/>
<path fill-rule="evenodd" clip-rule="evenodd" d="M0.5 12C0.5 11.1716 1.17157 10.5 2 10.5H56C56.8284 10.5 57.5 11.1716 57.5 12V39C57.5 39.8284 56.8284 40.5 56 40.5H2C1.17157 40.5 0.5 39.8284 0.5 39V12ZM3.5 13.5V37.5H54.5V13.5H3.5Z" fill="#204EF4"/>
<path fill-rule="evenodd" clip-rule="evenodd" d="M5 6.5C5 5.67157 5.67157 5 6.5 5H51.5C52.3284 5 53 5.67157 53 6.5C53 7.32843 52.3284 8 51.5 8H6.5C5.67157 8 5 7.32843 5 6.5Z" fill="#204EF4"/>
<path fill-rule="evenodd" clip-rule="evenodd" d="M7 1.5C7 0.671573 7.67157 0 8.5 0H49.5C50.3284 0 51 0.671573 51 1.5C51 2.32843 50.3284 3 49.5 3H8.5C7.67157 3 7 2.32843 7 1.5Z" fill="#204EF4"/>
</svg>
