<svg width="73" height="66" viewBox="0 0 73 66" fill="none" xmlns="http://www.w3.org/2000/svg">
<path d="M38.415 36.9507C38.415 36.23 38.2129 35.6587 37.8086 35.2368C37.4131 34.8062 36.7363 34.4106 35.7783 34.0503C34.8203 33.6899 33.9941 33.334 33.2998 32.9824C32.6055 32.6221 32.0078 32.2134 31.5068 31.7563C31.0146 31.2905 30.6279 30.7456 30.3467 30.1216C30.0742 29.4976 29.938 28.7549 29.938 27.8936C29.938 26.4082 30.4126 25.1909 31.3618 24.2417C32.311 23.2925 33.5723 22.7388 35.1455 22.5806V19.7593H37.2549V22.6201C38.8105 22.8398 40.0278 23.4902 40.9067 24.5713C41.7856 25.6436 42.2251 27.0366 42.2251 28.7505H38.415C38.415 27.6958 38.1953 26.9092 37.7559 26.3906C37.3252 25.8633 36.7451 25.5996 36.0156 25.5996C35.2949 25.5996 34.7368 25.8062 34.3413 26.2192C33.9458 26.6235 33.748 27.186 33.748 27.9067C33.748 28.5747 33.9414 29.1108 34.3281 29.5151C34.7148 29.9194 35.4312 30.3325 36.4771 30.7544C37.5317 31.1763 38.3975 31.5762 39.0742 31.9541C39.751 32.3232 40.3223 32.7451 40.7881 33.2197C41.2539 33.6855 41.6099 34.2217 41.856 34.8281C42.1021 35.4258 42.2251 36.1245 42.2251 36.9243C42.2251 38.4185 41.7593 39.6313 40.8276 40.563C39.896 41.4946 38.6128 42.0439 36.978 42.2109V44.8345H34.8818V42.2241C33.0801 42.0308 31.6826 41.3936 30.6895 40.3125C29.7051 39.2227 29.2129 37.7769 29.2129 35.9751H33.0229C33.0229 37.021 33.269 37.8252 33.7612 38.3877C34.2622 38.9414 34.9785 39.2183 35.9102 39.2183C36.6836 39.2183 37.2944 39.0161 37.7427 38.6118C38.1909 38.1987 38.415 37.645 38.415 36.9507Z" fill="#204EF4"/>
<path fill-rule="evenodd" clip-rule="evenodd" d="M35.4394 0.518681C42.1448 0.291275 48.7563 2.14471 54.3664 5.82459C59.9765 9.50447 64.3102 14.8304 66.7727 21.0715C67.0768 21.8421 66.6986 22.7133 65.928 23.0173C65.1574 23.3214 64.2862 22.9432 63.9821 22.1726C61.7469 16.5076 57.8132 11.6733 52.721 8.33309C47.6288 4.99289 41.6276 3.31054 35.5411 3.51696C29.4546 3.72337 23.5812 5.80843 18.727 9.48595C13.8727 13.1635 10.2756 18.2532 8.42932 24.0566C8.17817 24.846 7.3346 25.2824 6.54516 25.0312C5.75572 24.7801 5.31936 23.9365 5.57051 23.1471C7.60455 16.7535 11.5675 11.1462 16.9154 7.09469C22.2632 3.04318 28.734 0.746086 35.4394 0.518681Z" fill="#204EF4"/>
<path fill-rule="evenodd" clip-rule="evenodd" d="M36.5606 65.0831C29.8552 65.3105 23.2437 63.4571 17.6336 59.7772C12.0235 56.0973 7.68978 50.7714 5.22726 44.5303C4.9232 43.7597 5.30141 42.8885 6.07202 42.5845C6.84263 42.2804 7.71383 42.6586 8.01789 43.4292C10.2531 49.0942 14.1868 53.9285 19.279 57.2687C24.3712 60.6089 30.3724 62.2913 36.4589 62.0848C42.5454 61.8784 48.4188 59.7934 53.273 56.1159C58.1273 52.4383 61.7244 47.3486 63.5707 41.5452C63.8218 40.7558 64.6654 40.3194 65.4548 40.5706C66.2443 40.8217 66.6806 41.6653 66.4295 42.4547C64.3955 48.8483 60.4325 54.4556 55.0846 58.5071C49.7368 62.5586 43.266 64.8557 36.5606 65.0831Z" fill="#204EF4"/>
<path fill-rule="evenodd" clip-rule="evenodd" d="M66 23.5C64.067 23.5 62.5 25.067 62.5 27C62.5 28.933 64.067 30.5 66 30.5C67.933 30.5 69.5 28.933 69.5 27C69.5 25.067 67.933 23.5 66 23.5ZM59.5 27C59.5 23.4101 62.4101 20.5 66 20.5C69.5899 20.5 72.5 23.4101 72.5 27C72.5 30.5899 69.5899 33.5 66 33.5C62.4101 33.5 59.5 30.5899 59.5 27Z" fill="#204EF4"/>
<path fill-rule="evenodd" clip-rule="evenodd" d="M7 35.5C5.067 35.5 3.5 37.067 3.5 39C3.5 40.933 5.067 42.5 7 42.5C8.933 42.5 10.5 40.933 10.5 39C10.5 37.067 8.933 35.5 7 35.5ZM0.5 39C0.5 35.4101 3.41015 32.5 7 32.5C10.5899 32.5 13.5 35.4101 13.5 39C13.5 42.5899 10.5899 45.5 7 45.5C3.41015 45.5 0.5 42.5899 0.5 39Z" fill="#204EF4"/>
</svg>
