<svg width="59" height="54" viewBox="0 0 59 54" fill="none" xmlns="http://www.w3.org/2000/svg">
<path d="M32.5977 36.5469C32.5977 35.8828 32.3867 35.3359 31.9648 34.9062C31.543 34.4688 30.8398 34.0781 29.8555 33.7344C28.8711 33.3828 28.1055 33.0586 27.5586 32.7617C25.7383 31.7852 24.8281 30.3398 24.8281 28.4258C24.8281 27.1289 25.2227 26.0625 26.0117 25.2266C26.8008 24.3906 27.8711 23.8945 29.2227 23.7383V21.1836H31.0977V23.7617C32.457 23.957 33.5078 24.5352 34.25 25.4961C34.9922 26.4492 35.3633 27.6914 35.3633 29.2227H32.5273C32.5273 28.2383 32.3047 27.4648 31.8594 26.9023C31.4219 26.332 30.8242 26.0469 30.0664 26.0469C29.3164 26.0469 28.7305 26.25 28.3086 26.6562C27.8867 27.0625 27.6758 27.6445 27.6758 28.4023C27.6758 29.082 27.8828 29.6289 28.2969 30.043C28.7188 30.4492 29.4297 30.8359 30.4297 31.2031C31.4297 31.5703 32.2148 31.9102 32.7852 32.2227C33.3555 32.5352 33.8359 32.8945 34.2266 33.3008C34.6172 33.6992 34.918 34.1602 35.1289 34.6836C35.3398 35.207 35.4453 35.8203 35.4453 36.5234C35.4453 37.8438 35.0391 38.9141 34.2266 39.7344C33.4219 40.5547 32.2969 41.0391 30.8516 41.1875V43.4727H28.9883V41.1992C27.4414 41.0273 26.25 40.4727 25.4141 39.5352C24.5859 38.5977 24.1719 37.3555 24.1719 35.8086H27.0195C27.0195 36.793 27.2656 37.5547 27.7578 38.0938C28.2578 38.6328 28.9609 38.9023 29.8672 38.9023C30.7578 38.9023 31.4336 38.6875 31.8945 38.2578C32.3633 37.8281 32.5977 37.2578 32.5977 36.5469Z" fill="#204EF4"/>
<path fill-rule="evenodd" clip-rule="evenodd" d="M11 0C11.8284 0 12.5 0.671573 12.5 1.5V4.5H46.5V1.5C46.5 0.671573 47.1716 0 48 0C48.8284 0 49.5 0.671573 49.5 1.5V4.5H54C56.4853 4.5 58.5 6.51472 58.5 9V49C58.5 51.4853 56.4853 53.5 54 53.5H5C2.51472 53.5 0.5 51.4853 0.5 49V9C0.5 6.51472 2.51472 4.5 5 4.5H9.5V1.5C9.5 0.671573 10.1716 0 11 0ZM5 7.5C4.17157 7.5 3.5 8.17157 3.5 9V14H55.5V9C55.5 8.17157 54.8284 7.5 54 7.5H5ZM55.5 17H6.90332L22.8392 27.7567C23.5259 28.2202 23.7068 29.1526 23.2433 29.8392C22.7798 30.5259 21.8474 30.7068 21.1608 30.2433L3.5 18.3222V49C3.5 49.8284 4.17157 50.5 5 50.5H52.9551L37.2118 40.7762C36.5069 40.3409 36.2885 39.4166 36.7238 38.7118C37.1591 38.0069 38.0834 37.7885 38.7882 38.2238L55.5 48.5458V17Z" fill="#204EF4"/>
</svg>
