<svg width="38" height="58" viewBox="0 0 38 58" fill="none" xmlns="http://www.w3.org/2000/svg">
<path fill-rule="evenodd" clip-rule="evenodd" d="M9 33C9.82843 33 10.5 33.6716 10.5 34.5V54.1801L17.5 51.0301V37C17.5 36.1716 18.1716 35.5 19 35.5C19.8284 35.5 20.5 36.1716 20.5 37V51.0301L27.5 54.1801V34.5C27.5 33.6716 28.1716 33 29 33C29.8284 33 30.5 33.6716 30.5 34.5V56.5C30.5 57.009 30.2419 57.4833 29.8145 57.7596C29.387 58.036 28.8486 58.0768 28.3845 57.8679L19 53.6449L9.61555 57.8679C9.15139 58.0768 8.61297 58.036 8.18554 57.7596C7.75812 57.4833 7.5 57.009 7.5 56.5V34.5C7.5 33.6716 8.17157 33 9 33Z" fill="#204EF4"/>
<path fill-rule="evenodd" clip-rule="evenodd" d="M19 35C27.8366 35 35 27.8366 35 19C35 10.1634 27.8366 3 19 3C10.1634 3 3 10.1634 3 19C3 27.8366 10.1634 35 19 35ZM19 38C29.4934 38 38 29.4934 38 19C38 8.50659 29.4934 0 19 0C8.50659 0 0 8.50659 0 19C0 29.4934 8.50659 38 19 38Z" fill="#204EF4"/>
<path d="M18.5245 12.4635C18.6742 12.0029 19.3259 12.0029 19.4756 12.4635L20.6839 16.1824C20.7508 16.3884 20.9428 16.5279 21.1594 16.5279H25.0697C25.554 16.5279 25.7554 17.1477 25.3636 17.4324L22.2001 19.7307C22.0249 19.8581 21.9515 20.0838 22.0185 20.2898L23.2268 24.0086C23.3765 24.4693 22.8492 24.8523 22.4574 24.5676L19.2939 22.2693C19.1187 22.1419 18.8814 22.1419 18.7062 22.2693L15.5427 24.5676C15.1509 24.8523 14.6236 24.4693 14.7733 24.0086L15.9816 20.2898C16.0486 20.0838 15.9752 19.8581 15.8 19.7307L12.6365 17.4324C12.2447 17.1477 12.4461 16.5279 12.9304 16.5279H16.8407C17.0573 16.5279 17.2493 16.3884 17.3162 16.1824L18.5245 12.4635Z" fill="#204EF4"/>
</svg>
