<svg width="56" height="35" viewBox="0 0 56 35" fill="none" xmlns="http://www.w3.org/2000/svg">
<path fill-rule="evenodd" clip-rule="evenodd" d="M49 3H7C4.79086 3 3 4.79086 3 7V25C3 27.2091 4.79086 29 7 29H49C51.2091 29 53 27.2091 53 25V7C53 4.79086 51.2091 3 49 3ZM7 0C3.13401 0 0 3.13401 0 7V25C0 28.866 3.13401 32 7 32H49C52.866 32 56 28.866 56 25V7C56 3.13401 52.866 0 49 0H7Z" fill="#204EF4"/>
<path fill-rule="evenodd" clip-rule="evenodd" d="M49 15H7C4.79086 15 3 16.7909 3 19V25C3 27.2091 4.79086 29 7 29H49C51.2091 29 53 27.2091 53 25V19C53 16.7909 51.2091 15 49 15ZM7 12C3.13401 12 0 15.134 0 19V25C0 28.866 3.13401 32 7 32H49C52.866 32 56 28.866 56 25V19C56 15.134 52.866 12 49 12H7Z" fill="#204EF4"/>
<path fill-rule="evenodd" clip-rule="evenodd" d="M54 24H1V21H54V24Z" fill="#204EF4"/>
<path fill-rule="evenodd" clip-rule="evenodd" d="M13 5H23C25.7614 5 28 7.23858 28 10C28 12.7614 25.7614 15 23 15H13C10.2386 15 8 12.7614 8 10C8 7.23858 10.2386 5 13 5ZM13 7C11.3431 7 10 8.34315 10 10C10 11.6569 11.3431 13 13 13H23C24.6569 13 26 11.6569 26 10C26 8.34315 24.6569 7 23 7H13Z" fill="#204EF4"/>
<path fill-rule="evenodd" clip-rule="evenodd" d="M33 5H43C45.7614 5 48 7.23858 48 10C48 12.7614 45.7614 15 43 15H33C30.2386 15 28 12.7614 28 10C28 7.23858 30.2386 5 33 5ZM33 7C31.3431 7 30 8.34315 30 10C30 11.6569 31.3431 13 33 13H43C44.6569 13 46 11.6569 46 10C46 8.34315 44.6569 7 43 7H33Z" fill="#204EF4"/>
<path d="M8 32H12V35H8V32Z" fill="#204EF4"/>
<path d="M44 32H48V35H44V32Z" fill="#204EF4"/>
</svg>
