<svg width="36" height="41" viewBox="0 0 36 41" fill="none" xmlns="http://www.w3.org/2000/svg">
<g clip-path="url(#clip0)">
<path fill-rule="evenodd" clip-rule="evenodd" d="M5.07692 11.5089C3.29262 11.5089 1.84615 12.9554 1.84615 14.7397C1.84615 16.524 3.29262 17.9705 5.07692 17.9705C5.87843 17.9705 6.60969 17.6798 7.1746 17.197C7.86954 16.603 8.30769 15.7231 8.30769 14.7397C8.30769 12.9554 6.86123 11.5089 5.07692 11.5089ZM0 14.7397C0 11.9359 2.27301 9.66278 5.07692 9.66278C7.6706 9.66278 9.81 11.6078 10.1163 14.1187L27.5996 21.7397C27.7818 21.8191 27.9336 21.9553 28.0322 22.1279C28.3941 22.7612 28.7886 23.8387 28.5462 24.9026C28.4177 25.466 28.1123 26.0063 27.572 26.4259C27.0449 26.8354 26.3493 27.0879 25.4991 27.1941C25.3257 27.2158 25.1497 27.1878 24.9916 27.1134L21.9306 25.6729C22.4346 26.1844 23.1655 27.0427 23.8274 28.0591C24.4866 29.0714 25.1254 30.3135 25.3556 31.5712C25.4641 31.8143 25.9248 32.5003 26.9931 32.7673C27.0161 32.773 27.0387 32.7796 27.0611 32.7871L29.8303 33.7101C29.9663 33.7555 30.0898 33.8318 30.1912 33.9331C30.572 34.314 31.0668 34.9723 31.2999 35.7524C31.5401 36.5564 31.51 37.5642 30.7127 38.4077C30.4407 38.7779 29.9722 39.1729 29.3349 39.3766C28.6464 39.5968 27.8189 39.5752 26.9192 39.1529C25.8115 38.8819 24.1658 38.2426 22.5885 37.158C21.0316 36.0874 19.487 34.5443 18.6336 32.4355C18.5442 32.4034 18.3963 32.3636 18.1723 32.3438C17.7149 32.3033 16.997 32.3548 15.9842 32.6923C15.8901 32.7237 15.7915 32.7397 15.6923 32.7397H13.3846V37.8166C13.3846 37.9159 13.3686 38.0144 13.3373 38.1085C13.0743 38.8975 12.0779 40.1243 10.1538 40.1243C9.62769 40.1243 8.82071 40.0485 8.11041 39.7928C7.46798 39.5616 6.46154 39.0036 6.46154 37.8166V31.8166C6.46154 31.0161 6.64246 29.8104 7.22538 28.7695C7.83275 27.6848 8.91359 26.7397 10.6154 26.7397H15.31L7.6734 19.1032C6.91358 19.556 6.02501 19.8166 5.07692 19.8166C2.27301 19.8166 0 17.5436 0 14.7397ZM9.06399 17.8829L18.1912 27.0101C18.4552 27.2741 18.5342 27.6711 18.3913 28.016C18.2484 28.361 17.9118 28.5859 17.5385 28.5859H10.6154C9.73255 28.5859 9.19802 29.0253 8.83616 29.6715C8.44985 30.3614 8.30769 31.2325 8.30769 31.8166V37.8129C8.31152 37.818 8.31841 37.8263 8.32994 37.8375C8.38822 37.894 8.51425 37.976 8.73574 38.0558C9.17929 38.2155 9.75692 38.2782 10.1538 38.2782C11.0179 38.2782 11.4087 37.8421 11.5385 37.6226V31.8166C11.5385 31.3068 11.9517 30.8935 12.4615 30.8935H15.5458C16.6818 30.532 17.6082 30.4404 18.3354 30.5048C19.0592 30.569 19.672 30.7986 20.0373 31.1639C20.1327 31.2593 20.2061 31.3744 20.2521 31.5012C20.9054 33.2976 22.2114 34.6581 23.6346 35.6368C25.0611 36.6177 26.5453 37.1727 27.4384 37.3787C27.5094 37.3951 27.5783 37.4199 27.6436 37.4526C28.1817 37.7216 28.5486 37.6898 28.7728 37.6182C29.0284 37.5365 29.1855 37.3744 29.2319 37.3046C29.2657 37.254 29.3043 37.2069 29.3473 37.1639C29.5994 36.9118 29.6387 36.6417 29.5309 36.2808C29.4327 35.9519 29.2226 35.6238 29.0214 35.3865L26.5093 34.5492C24.7269 34.0899 23.8301 32.8411 23.5858 32.1085C23.5706 32.0628 23.559 32.0159 23.551 31.9684C23.3967 31.0425 22.897 30.0137 22.2803 29.0665C21.6708 28.1304 20.9964 27.3492 20.5781 26.9309L16.8858 23.2386C16.5686 22.9214 16.5253 22.4221 16.7833 22.0551C17.0412 21.6881 17.5256 21.5597 17.9315 21.7507L25.5234 25.3233C25.9943 25.2364 26.2751 25.0957 26.4395 24.9679C26.6185 24.8289 26.7054 24.6711 26.7462 24.4922C26.8245 24.1484 26.7326 23.6957 26.558 23.2996L9.97708 16.072C9.7956 16.7407 9.48102 17.3544 9.06399 17.8829Z" fill="#FF4E4E"/>
<path fill-rule="evenodd" clip-rule="evenodd" d="M17.0953 1.49582C17.2888 1.02418 17.828 0.798698 18.2997 0.992209L34.5904 7.67594C35.0621 7.86945 35.2876 8.40867 35.0941 8.88032L30.3562 20.4283C30.1627 20.9 29.6235 21.1254 29.1519 20.932L12.861 14.2482C12.3894 14.0548 12.1639 13.5155 12.3574 13.0439L17.0953 1.49582ZM18.4529 3.05057L17.4613 5.46757L32.0394 11.4619L33.0357 9.03356L18.4529 3.05057ZM31.3386 13.1699L16.7606 7.17556L14.4158 12.8906L28.9985 18.8736L31.3386 13.1699Z" fill="#FF4E4E"/>
</g>
<defs>
<clipPath id="clip0">
<rect width="36" height="40.6154" fill="white"/>
</clipPath>
</defs>
</svg>
