<svg width="64" height="64" viewBox="0 0 64 64" fill="none" xmlns="http://www.w3.org/2000/svg">
<path d="M3.09009 43.216C4.64752 47.2323 7.02782 50.8783 10.0781 53.92C22.1851 66.027 41.8131 66.027 53.9201 53.92C66.0261 41.814 66.0261 22.186 53.9201 10.08C47.8671 4.027 39.9331 1 32.0001 1" stroke="#F51F8A" stroke-width="2" stroke-linecap="round" stroke-linejoin="round"/>
<path d="M25.407 1.71106C19.6029 2.97178 14.2853 5.87883 10.091 10.0841C2.73599 17.4341 -0.156005 27.5551 1.41499 37.0851" stroke="#F51F8A" stroke-width="2" stroke-linecap="round" stroke-linejoin="round"/>
<path fill-rule="evenodd" clip-rule="evenodd" d="M27.6176 42.502L38.3576 22.9896C38.51 22.7296 38.5868 22.4572 38.5868 22.1762C38.5915 22.0195 38.5646 21.8636 38.5078 21.7182C38.451 21.5728 38.3655 21.4413 38.2568 21.3318C38.1584 21.2269 38.0405 21.1435 37.9103 21.0865C37.78 21.0295 37.6399 21.0001 37.4984 21C37.0208 21 36.6392 21.2625 36.3524 21.785L25.6412 41.2961C25.4888 41.5561 25.4132 41.8285 25.4132 42.1095C25.4081 42.2661 25.4347 42.4221 25.4913 42.5675C25.5479 42.7129 25.6333 42.8445 25.742 42.9539C25.8402 43.059 25.9581 43.1426 26.0884 43.1996C26.2187 43.2567 26.3588 43.2859 26.5004 43.2857C26.978 43.2857 27.35 43.0245 27.6176 42.502ZM24.9536 34.239C26.5196 34.239 27.7412 33.6917 28.6196 32.596C29.498 31.5003 29.9372 29.8771 29.9372 27.7253C29.9372 25.5946 29.498 23.9813 28.6196 22.8844C27.7412 21.7899 26.5196 21.2414 24.9536 21.2414C23.408 21.2414 22.1948 21.7899 21.3176 22.8856C20.438 23.9813 20 25.5946 20 27.7253C20 29.8549 20.438 31.4755 21.3164 32.5787C22.1948 33.6868 23.408 34.2377 24.9536 34.2377V34.239ZM24.9536 32.1887C24.1136 32.1887 23.498 31.8321 23.1068 31.1177C22.7156 30.4046 22.52 29.273 22.52 27.7253C22.52 26.1777 22.7156 25.056 23.108 24.3627C23.498 23.6693 24.1136 23.3227 24.9536 23.3227C25.7936 23.3227 26.4152 23.6743 26.816 24.3775C27.2168 25.082 27.4172 26.1975 27.4172 27.7253C27.4172 29.273 27.2168 30.4046 26.8172 31.1177C26.4152 31.8321 25.7936 32.1887 24.9536 32.1887ZM39.0176 42.9849C40.5812 42.9849 41.804 42.4314 42.6824 41.3258C43.5596 40.2202 44 38.602 44 36.4712C44 34.3405 43.556 32.726 42.668 31.6303C41.78 30.5346 40.5632 29.9873 39.0164 29.9873C37.4504 29.9873 36.2288 30.5346 35.3504 31.6303C34.472 32.726 34.0328 34.3405 34.0328 36.4712C34.0328 38.6218 34.472 40.245 35.3504 41.3407C36.2288 42.4364 37.4504 42.9849 39.0164 42.9849H39.0176ZM39.0164 40.9333C38.1764 40.9333 37.556 40.5768 37.154 39.8636C36.7532 39.1505 36.554 38.0189 36.554 36.4712C36.554 34.9224 36.7532 33.797 37.154 33.0937C37.556 32.388 38.1752 32.0376 39.0164 32.0376C39.8372 32.0376 40.448 32.3954 40.8488 33.1086C41.2496 33.8217 41.45 34.9434 41.45 36.4712C41.45 38.0189 41.2544 39.1505 40.8632 39.8636C40.472 40.5768 39.8564 40.9333 39.0164 40.9333Z" fill="#F51F8A"/>
</svg>
