<svg width="58" height="40" viewBox="0 0 58 40" fill="none" xmlns="http://www.w3.org/2000/svg">
<path fill-rule="evenodd" clip-rule="evenodd" d="M28.6433 0.0657816C28.8711 -0.0211941 29.1228 -0.0219448 29.3511 0.0636708L57.3511 10.5637C57.7441 10.711 58.0033 11.0882 58 11.5079C57.9967 11.9276 57.7316 12.3006 57.3363 12.4417L48 15.7761V29.5C48 30.8998 47.1897 32.0205 46.3735 32.7901C45.5436 33.5726 44.5638 34.1321 43.8939 34.4191C43.8841 34.4233 43.8743 34.4274 43.8644 34.4312L32.3644 38.9312C32.335 38.9427 32.3051 38.9529 32.2747 38.9615C29.2439 39.8275 26.3348 39.3324 25.1838 38.9487C25.1676 38.9433 25.1515 38.9375 25.1356 38.9312L13.6356 34.4312C13.6075 34.4202 13.5798 34.4079 13.5528 34.3944C10.7991 33.0176 10 30.6952 10 29.5V15.655L2.5 12.9277V28C2.5 28.5523 2.05228 29 1.5 29C0.947715 29 0.5 28.5523 0.5 28V11.5C0.5 11.0853 0.755912 10.7137 1.1433 10.5658L28.6433 0.0657816ZM4.36332 11.4771L29.0031 20.437L54.0909 11.4771L29.0032 2.0692L4.36332 11.4771ZM12 16.3822V29.5C12 29.9685 12.3958 31.5619 14.4082 32.5859L25.839 37.0588C26.7038 37.3403 29.1499 37.7612 31.6808 37.0511L43.1199 32.5749C43.6171 32.3598 44.3789 31.9219 45.0015 31.3349C45.6436 30.7295 46 30.1002 46 29.5V16.4904L29.3363 22.4417C29.117 22.5201 28.8772 22.5194 28.6583 22.4398L12 16.3822Z" fill="#204EF4"/>
</svg>
