<svg width="47" height="52" viewBox="0 0 47 52" fill="none" xmlns="http://www.w3.org/2000/svg">
<path fill-rule="evenodd" clip-rule="evenodd" d="M24.2929 0.792893C24.6834 0.402369 25.3166 0.402369 25.7071 0.792893L33.2071 8.29289C33.5976 8.68342 33.5976 9.31658 33.2071 9.70711L25.7071 17.2071C25.3166 17.5976 24.6834 17.5976 24.2929 17.2071C23.9024 16.8166 23.9024 16.1834 24.2929 15.7929L30.0858 10H2V42H7.5C8.05228 42 8.5 42.4477 8.5 43C8.5 43.5523 8.05228 44 7.5 44H1C0.447715 44 0 43.5523 0 43V9C0 8.44772 0.447715 8 1 8H30.0858L24.2929 2.20711C23.9024 1.81658 23.9024 1.18342 24.2929 0.792893Z" fill="#204EF4"/>
<path fill-rule="evenodd" clip-rule="evenodd" d="M22.2071 51.2071C21.8166 51.5976 21.1834 51.5976 20.7929 51.2071L13.2929 43.7071C13.1054 43.5196 13 43.2652 13 43C13 42.7348 13.1054 42.4804 13.2929 42.2929L20.7929 34.7929C21.1834 34.4024 21.8166 34.4024 22.2071 34.7929C22.5976 35.1834 22.5976 35.8166 22.2071 36.2071L16.4142 42L44.5 42L44.5 9.99999L39 9.99999C38.4477 9.99999 38 9.55228 38 8.99999C38 8.44771 38.4477 7.99999 39 7.99999L45.5 7.99999C46.0523 7.99999 46.5 8.44771 46.5 8.99999L46.5 43C46.5 43.2652 46.3946 43.5196 46.2071 43.7071C46.0196 43.8946 45.7652 44 45.5 44L16.4142 44L22.2071 49.7929C22.5976 50.1834 22.5976 50.8166 22.2071 51.2071Z" fill="#204EF4"/>
</svg>
