<svg width="67" height="62" viewBox="0 0 67 62" fill="none" xmlns="http://www.w3.org/2000/svg">
<path fill-rule="evenodd" clip-rule="evenodd" d="M9 27C7.34315 27 6 28.3431 6 30C6 31.6569 7.34315 33 9 33C10.6569 33 12 31.6569 12 30C12 28.3431 10.6569 27 9 27ZM4 30C4 27.2386 6.23858 25 9 25C11.7614 25 14 27.2386 14 30C14 32.7614 11.7614 35 9 35C6.23858 35 4 32.7614 4 30Z" fill="#204EF4"/>
<path fill-rule="evenodd" clip-rule="evenodd" d="M25 14C23.3431 14 22 15.3431 22 17C22 18.6569 23.3431 20 25 20C26.6569 20 28 18.6569 28 17C28 15.3431 26.6569 14 25 14ZM20 17C20 14.2386 22.2386 12 25 12C27.7614 12 30 14.2386 30 17C30 19.7614 27.7614 22 25 22C22.2386 22 20 19.7614 20 17Z" fill="#204EF4"/>
<path fill-rule="evenodd" clip-rule="evenodd" d="M42 19C40.3431 19 39 20.3431 39 22C39 23.6569 40.3431 25 42 25C43.6569 25 45 23.6569 45 22C45 20.3431 43.6569 19 42 19ZM37 22C37 19.2386 39.2386 17 42 17C44.7614 17 47 19.2386 47 22C47 24.7614 44.7614 27 42 27C39.2386 27 37 24.7614 37 22Z" fill="#204EF4"/>
<path fill-rule="evenodd" clip-rule="evenodd" d="M58 2C56.3431 2 55 3.34315 55 5C55 6.65685 56.3431 8 58 8C59.6569 8 61 6.65685 61 5C61 3.34315 59.6569 2 58 2ZM53 5C53 2.23858 55.2386 0 58 0C60.7614 0 63 2.23858 63 5C63 7.76142 60.7614 10 58 10C55.2386 10 53 7.76142 53 5Z" fill="#204EF4"/>
<path fill-rule="evenodd" clip-rule="evenodd" d="M4 48C4 47.4477 4.44772 47 5 47H13C13.5523 47 14 47.4477 14 48V61C14 61.5523 13.5523 62 13 62H5C4.44772 62 4 61.5523 4 61V48ZM6 49V60H12V49H6Z" fill="#204EF4"/>
<path fill-rule="evenodd" clip-rule="evenodd" d="M20 35C20 34.4477 20.4477 34 21 34H29C29.5523 34 30 34.4477 30 35V61C30 61.5523 29.5523 62 29 62H21C20.4477 62 20 61.5523 20 61V35ZM22 36V60H28V36H22Z" fill="#204EF4"/>
<path fill-rule="evenodd" clip-rule="evenodd" d="M37 40C37 39.4477 37.4477 39 38 39H46C46.5523 39 47 39.4477 47 40V61C47 61.5523 46.5523 62 46 62H38C37.4477 62 37 61.5523 37 61V40ZM39 41V60H45V41H39Z" fill="#204EF4"/>
<path fill-rule="evenodd" clip-rule="evenodd" d="M53 22C53 21.4477 53.4477 21 54 21H62C62.5523 21 63 21.4477 63 22V61C63 61.5523 62.5523 62 62 62H54C53.4477 62 53 61.5523 53 61V22ZM55 23V60H61V23H55Z" fill="#204EF4"/>
<path fill-rule="evenodd" clip-rule="evenodd" d="M0.5 61C0.5 60.4477 0.947715 60 1.5 60H65.5C66.0523 60 66.5 60.4477 66.5 61C66.5 61.5523 66.0523 62 65.5 62H1.5C0.947715 62 0.5 61.5523 0.5 61Z" fill="#204EF4"/>
<path fill-rule="evenodd" clip-rule="evenodd" d="M55.7382 8.17422L45.2382 19.6742L43.7612 18.3257L54.2612 6.82568L55.7382 8.17422ZM37.6986 21.9535L28.1986 18.9535L28.8008 17.0464L38.3008 20.0464L37.6986 21.9535ZM22.6244 20.2808L12.6244 28.2808L11.375 26.7191L21.375 18.7191L22.6244 20.2808Z" fill="#204EF4"/>
</svg>
