<svg width="42" height="42" viewBox="0 0 42 42" fill="none" xmlns="http://www.w3.org/2000/svg">
<path fill-rule="evenodd" clip-rule="evenodd" d="M0 4C0 1.79086 1.79086 0 4 0H38C40.2091 0 42 1.79086 42 4V38C42 40.2091 40.2091 42 38 42H4C1.79086 42 0 40.2091 0 38V4ZM4 2C2.89543 2 2 2.89543 2 4V38C2 39.1046 2.89543 40 4 40H38C39.1046 40 40 39.1046 40 38V4C40 2.89543 39.1046 2 38 2H4Z" fill="#204EF4"/>
<path fill-rule="evenodd" clip-rule="evenodd" d="M18.6805 8.26721C19.0852 8.64301 19.1086 9.27574 18.7328 9.68046L12.2328 16.6805C11.8675 17.0738 11.2568 17.1086 10.8492 16.7593L7.34923 13.7593C6.9299 13.3998 6.88134 12.7685 7.24076 12.3492C7.60018 11.9299 8.23148 11.8813 8.65081 12.2407L11.4212 14.6153L17.2672 8.31955C17.643 7.91484 18.2758 7.89141 18.6805 8.26721ZM22.5 15C22.5 14.4477 22.9477 14 23.5 14H33.5C34.0523 14 34.5 14.4477 34.5 15C34.5 15.5523 34.0523 16 33.5 16H23.5C22.9477 16 22.5 15.5523 22.5 15Z" fill="#204EF4"/>
<path fill-rule="evenodd" clip-rule="evenodd" d="M18.6805 25.2672C19.0852 25.643 19.1086 26.2757 18.7328 26.6805L12.2328 33.6805C11.8675 34.0738 11.2568 34.1086 10.8492 33.7593L7.34923 30.7593C6.9299 30.3998 6.88134 29.7685 7.24076 29.3492C7.60018 28.9299 8.23148 28.8813 8.65081 29.2407L11.4212 31.6153L17.2672 25.3196C17.643 24.9148 18.2758 24.8914 18.6805 25.2672ZM22.5 32C22.5 31.4477 22.9477 31 23.5 31H33.5C34.0523 31 34.5 31.4477 34.5 32C34.5 32.5523 34.0523 33 33.5 33H23.5C22.9477 33 22.5 32.5523 22.5 32Z" fill="#204EF4"/>
</svg>
