<svg width="51" height="54" viewBox="0 0 51 54" fill="none" xmlns="http://www.w3.org/2000/svg">
<path fill-rule="evenodd" clip-rule="evenodd" d="M0.5 1C0.5 0.447715 0.947715 0 1.5 0H50C50.5523 0 51 0.447715 51 1V41C51 41.5523 50.5523 42 50 42H13.4142L2.20711 53.2071C1.92111 53.4931 1.49099 53.5787 1.11732 53.4239C0.743642 53.2691 0.5 52.9045 0.5 52.5V1ZM2.5 2V50.0858L12.2929 40.2929C12.4804 40.1054 12.7348 40 13 40H49V2H2.5ZM16 15C16 14.4477 16.4477 14 17 14H39.5C40.0523 14 40.5 14.4477 40.5 15C40.5 15.5523 40.0523 16 39.5 16H17C16.4477 16 16 15.5523 16 15ZM16 27C16 26.4477 16.4477 26 17 26H30.5C31.0523 26 31.5 26.4477 31.5 27C31.5 27.5523 31.0523 28 30.5 28H17C16.4477 28 16 27.5523 16 27Z" fill="#204EF4"/>
</svg>
