<svg width="50" height="46" viewBox="0 0 50 46" fill="none" xmlns="http://www.w3.org/2000/svg">
<path fill-rule="evenodd" clip-rule="evenodd" d="M9 2C6.23858 2 4 4.23858 4 7C4 9.76142 6.23858 12 9 12C11.7614 12 14 9.76142 14 7C14 4.23858 11.7614 2 9 2ZM2 7C2 3.13401 5.13401 0 9 0C12.866 0 16 3.13401 16 7C16 10.866 12.866 14 9 14C5.13401 14 2 10.866 2 7Z" fill="#204EF4"/>
<path fill-rule="evenodd" clip-rule="evenodd" d="M41.5 2C44.2614 2 46.5 4.23858 46.5 7C46.5 9.76142 44.2614 12 41.5 12C38.7386 12 36.5 9.76142 36.5 7C36.5 4.23858 38.7386 2 41.5 2ZM48.5 7C48.5 3.13401 45.366 0 41.5 0C37.634 0 34.5 3.13401 34.5 7C34.5 10.866 37.634 14 41.5 14C45.366 14 48.5 10.866 48.5 7Z" fill="#204EF4"/>
<path fill-rule="evenodd" clip-rule="evenodd" d="M2.5 23.6403V43.5H13.5V31C13.5 30.4477 13.9477 30 14.5 30C15.0523 30 15.5 30.4477 15.5 31V45.5H0.5V23.3661L0.535236 23.2369C0.821048 22.1889 1.51618 20.6638 2.70423 19.3826C3.90896 18.0833 5.65937 17 8 17C9.60445 17 13.1217 17.9193 15.3399 21.4571C15.978 22.4125 17.1364 23.9322 18.5172 25.3531C19.9237 26.8006 21.4642 28.0436 22.8511 28.5637C23.3682 28.7576 23.6302 29.334 23.4363 29.8511C23.2424 30.3682 22.666 30.6302 22.1489 30.4363C20.3358 29.7564 18.5429 28.2494 17.0828 26.7469C15.6026 25.2236 14.3648 23.6 13.6679 22.5547L13.6598 22.5425L13.652 22.53C11.8698 19.6784 9.06026 19 8 19C6.34063 19 5.09104 19.75 4.17077 20.7424C3.28136 21.7016 2.73624 22.854 2.5 23.6403Z" fill="#204EF4"/>
<path fill-rule="evenodd" clip-rule="evenodd" d="M48 23.6403V43.5H37V31C37 30.4477 36.5523 30 36 30C35.4477 30 35 30.4477 35 31V45.5H50V23.3661L49.9648 23.2369C49.679 22.1889 48.9838 20.6638 47.7958 19.3826C46.591 18.0833 44.8406 17 42.5 17C40.8955 17 37.3783 17.9193 35.1601 21.4571C34.522 22.4125 33.3636 23.9322 31.9828 25.3531C30.5763 26.8006 29.0358 28.0436 27.6489 28.5637C27.1318 28.7576 26.8698 29.334 27.0637 29.8511C27.2576 30.3682 27.834 30.6302 28.3511 30.4363C30.1642 29.7564 31.9571 28.2494 33.4172 26.7469C34.8974 25.2236 36.1352 23.6 36.8321 22.5547L36.8402 22.5425L36.848 22.53C38.6302 19.6784 41.4397 19 42.5 19C44.1594 19 45.409 19.75 46.3292 20.7424C47.2186 21.7016 47.7638 22.854 48 23.6403Z" fill="#204EF4"/>
</svg>
