<svg width="122" height="83" viewBox="0 0 122 83" fill="none" xmlns="http://www.w3.org/2000/svg">
<path d="M10.2578 58.04V60.3H4.43781V63.88H8.89781V66.1H4.43781V72H1.63781V58.04H10.2578ZM17.1633 72.18C16.0966 72.18 15.1366 71.9467 14.2833 71.48C13.4299 71 12.7566 70.3267 12.2633 69.46C11.7833 68.5933 11.5433 67.5933 11.5433 66.46C11.5433 65.3267 11.7899 64.3267 12.2833 63.46C12.7899 62.5933 13.4766 61.9267 14.3433 61.46C15.2099 60.98 16.1766 60.74 17.2433 60.74C18.3099 60.74 19.2766 60.98 20.1433 61.46C21.0099 61.9267 21.6899 62.5933 22.1833 63.46C22.6899 64.3267 22.9433 65.3267 22.9433 66.46C22.9433 67.5933 22.6833 68.5933 22.1633 69.46C21.6566 70.3267 20.9633 71 20.0833 71.48C19.2166 71.9467 18.2433 72.18 17.1633 72.18ZM17.1633 69.74C17.6699 69.74 18.1433 69.62 18.5833 69.38C19.0366 69.1267 19.3966 68.7533 19.6633 68.26C19.9299 67.7667 20.0633 67.1667 20.0633 66.46C20.0633 65.4067 19.7833 64.6 19.2233 64.04C18.6766 63.4667 18.0033 63.18 17.2033 63.18C16.4033 63.18 15.7299 63.4667 15.1833 64.04C14.6499 64.6 14.3833 65.4067 14.3833 66.46C14.3833 67.5133 14.6433 68.3267 15.1633 68.9C15.6966 69.46 16.3633 69.74 17.1633 69.74ZM27.7972 62.64C28.1572 62.0533 28.6239 61.5933 29.1972 61.26C29.7839 60.9267 30.4505 60.76 31.1972 60.76V63.7H30.4572C29.5772 63.7 28.9105 63.9067 28.4572 64.32C28.0172 64.7333 27.7972 65.4533 27.7972 66.48V72H24.9972V60.92H27.7972V62.64ZM43.3831 66.22C43.3831 66.62 43.3565 66.98 43.3031 67.3H35.2031C35.2698 68.1 35.5498 68.7267 36.0431 69.18C36.5365 69.6333 37.1431 69.86 37.8631 69.86C38.9031 69.86 39.6431 69.4133 40.0831 68.52H43.1031C42.7831 69.5867 42.1698 70.4667 41.2631 71.16C40.3565 71.84 39.2431 72.18 37.9231 72.18C36.8565 72.18 35.8965 71.9467 35.0431 71.48C34.2031 71 33.5431 70.3267 33.0631 69.46C32.5965 68.5933 32.3631 67.5933 32.3631 66.46C32.3631 65.3133 32.5965 64.3067 33.0631 63.44C33.5298 62.5733 34.1831 61.9067 35.0231 61.44C35.8631 60.9733 36.8298 60.74 37.9231 60.74C38.9765 60.74 39.9165 60.9667 40.7431 61.42C41.5831 61.8733 42.2298 62.52 42.6831 63.36C43.1498 64.1867 43.3831 65.14 43.3831 66.22ZM40.4831 65.42C40.4698 64.7 40.2098 64.1267 39.7031 63.7C39.1965 63.26 38.5765 63.04 37.8431 63.04C37.1498 63.04 36.5631 63.2533 36.0831 63.68C35.6165 64.0933 35.3298 64.6733 35.2231 65.42H40.4831ZM51.5469 72L49.2669 68.56L47.2469 72H44.2469L47.8669 66.44L44.2069 60.92H47.3669L49.6269 64.34L51.6669 60.92H54.6669L51.0269 66.44L54.7069 72H51.5469ZM64.7477 63.68V66.04H56.2677V63.68H64.7477ZM77.3878 58.04V60.3H73.6678V72H70.8678V60.3H67.1478V58.04H77.3878ZM85.6708 60.76C86.5108 60.76 87.2574 60.9467 87.9108 61.32C88.5641 61.68 89.0708 62.22 89.4308 62.94C89.8041 63.6467 89.9908 64.5 89.9908 65.5V72H87.1908V65.88C87.1908 65 86.9708 64.3267 86.5308 63.86C86.0908 63.38 85.4908 63.14 84.7308 63.14C83.9574 63.14 83.3441 63.38 82.8908 63.86C82.4508 64.3267 82.2308 65 82.2308 65.88V72H79.4308V57.2H82.2308V62.3C82.5908 61.82 83.0708 61.4467 83.6708 61.18C84.2708 60.9 84.9374 60.76 85.6708 60.76ZM94.0734 59.6C93.5801 59.6 93.1668 59.4467 92.8334 59.14C92.5134 58.82 92.3534 58.4267 92.3534 57.96C92.3534 57.4933 92.5134 57.1067 92.8334 56.8C93.1668 56.48 93.5801 56.32 94.0734 56.32C94.5668 56.32 94.9734 56.48 95.2934 56.8C95.6268 57.1067 95.7934 57.4933 95.7934 57.96C95.7934 58.4267 95.6268 58.82 95.2934 59.14C94.9734 59.4467 94.5668 59.6 94.0734 59.6ZM95.4534 60.92V72H92.6534V60.92H95.4534ZM104.36 60.76C105.68 60.76 106.747 61.18 107.56 62.02C108.373 62.8467 108.78 64.0067 108.78 65.5V72H105.98V65.88C105.98 65 105.76 64.3267 105.32 63.86C104.88 63.38 104.28 63.14 103.52 63.14C102.747 63.14 102.133 63.38 101.68 63.86C101.24 64.3267 101.02 65 101.02 65.88V72H98.2198V60.92H101.02V62.3C101.393 61.82 101.867 61.4467 102.44 61.18C103.027 60.9 103.667 60.76 104.36 60.76ZM118.003 72L114.243 67.28V72H111.443V57.2H114.243V65.62L117.963 60.92H121.603L116.723 66.48L121.643 72H118.003Z" fill="#3C4D6B"/>
<path d="M75 32C75 45.2548 72.2548 48.5 59 48.5C45.7452 48.5 32 31.7548 32 18.5C32 5.24517 61.7452 0 75 0C88.2548 0 75 18.7452 75 32Z" fill="#0099FA"/>
<path d="M67 10V10.533C67 12.7421 65.2091 14.533 63 14.533H59.1123C57.1295 14.533 55.522 16.1404 55.522 18.1232C55.522 20.1061 57.1295 21.7135 59.1123 21.7135H62.0915C63.3211 21.7135 64.3179 22.7102 64.3179 23.9398C64.3179 25.1694 63.3211 26.1662 62.0915 26.1662H59.522C57.3129 26.1662 55.522 27.957 55.522 30.1662V34C55.522 36.2091 53.7312 38 51.522 38H50V10H67Z" fill="white"/>
</svg>
