<svg width="80" height="15" viewBox="0 0 80 15" fill="none" xmlns="http://www.w3.org/2000/svg">
<path d="M15 0H0V15H15V0Z" fill="#00B67A"/>
<path d="M31.25 0H16.25V15H31.25V0Z" fill="#00B67A"/>
<path d="M47.5 0H32.5V15H47.5V0Z" fill="#00B67A"/>
<path d="M63.75 0H48.75V15H63.75V0Z" fill="#00B67A"/>
<path d="M80 0H65V15H80V0Z" fill="#E6ECEF"/>
<path d="M7.5 10.1094L9.78125 9.53125L10.7344 12.4688L7.5 10.1094ZM12.75 6.3125H8.73438L7.5 2.53125L6.26562 6.3125H2.25L5.5 8.65625L4.26562 12.4375L7.51562 10.0938L9.51562 8.65625L12.75 6.3125Z" fill="white"/>
<path d="M23.75 10.1094L26.0312 9.53125L26.9844 12.4688L23.75 10.1094ZM29 6.3125H24.9844L23.75 2.53125L22.5156 6.3125H18.5L21.75 8.65625L20.5156 12.4375L23.7656 10.0938L25.7656 8.65625L29 6.3125Z" fill="white"/>
<path d="M40 10.1094L42.2812 9.53125L43.2344 12.4688L40 10.1094ZM45.25 6.3125H41.2344L40 2.53125L38.7656 6.3125H34.75L38 8.65625L36.7656 12.4375L40.0156 10.0938L42.0156 8.65625L45.25 6.3125Z" fill="white"/>
<path d="M56.25 10.1094L58.5313 9.53125L59.4844 12.4688L56.25 10.1094ZM61.5 6.3125H57.4844L56.25 2.53125L55.0156 6.3125H51L54.25 8.65625L53.0156 12.4375L56.2656 10.0938L58.2656 8.65625L61.5 6.3125Z" fill="white"/>
<path d="M72.5 10.1094L74.7813 9.53125L75.7344 12.4688L72.5 10.1094ZM77.75 6.3125H73.7344L72.5 2.53125L71.2656 6.3125H67.25L70.5 8.65625L69.2656 12.4375L72.5156 10.0938L74.5156 8.65625L77.75 6.3125Z" fill="white"/>
</svg>
