<svg width="36" height="36" viewBox="0 0 36 36" fill="none" xmlns="http://www.w3.org/2000/svg">
<g clip-path="url(#clip0)">
<path fill-rule="evenodd" clip-rule="evenodd" d="M17.408 0.245213C17.7349 -0.0817376 18.2651 -0.0817376 18.592 0.245213L25.1163 6.7695V4.60465C25.1163 4.14228 25.4911 3.76744 25.9535 3.76744H30.1395C30.6019 3.76744 30.9767 4.14228 30.9767 4.60465V12.63L35.7548 17.408C36.0817 17.7349 36.0817 18.2651 35.7548 18.592L33.2432 21.1036C32.9162 21.4305 32.3861 21.4305 32.0592 21.1036L30.9767 20.0212V34.3256C30.9767 34.788 30.6019 35.1628 30.1395 35.1628H17.5814C17.119 35.1628 16.7442 34.788 16.7442 34.3256V20.093H10.4651V34.3256C10.4651 34.788 10.0903 35.1628 9.62791 35.1628H5.86047C5.39809 35.1628 5.02326 34.788 5.02326 34.3256V20.0212L3.94084 21.1036C3.61388 21.4305 3.08379 21.4305 2.75684 21.1036L0.245213 18.592C-0.0817376 18.2651 -0.0817376 17.7349 0.245213 17.408L17.408 0.245213ZM6.69767 18.3468V33.4884H8.7907V19.2558C8.7907 18.7934 9.16552 18.4186 9.62791 18.4186H17.5814C18.0438 18.4186 18.4186 18.7934 18.4186 19.2558V33.4884H29.3023V18.3468L18 7.04446L6.69767 18.3468ZM29.3023 10.9556V5.44186H26.7907V8.44393L29.3023 10.9556ZM2.0212 18L3.34884 19.3276L17.408 5.26847C17.7349 4.94152 18.2651 4.94152 18.592 5.26847L32.6512 19.3276L33.9788 18L18 2.0212L2.0212 18ZM19.6744 19.2558C19.6744 18.7934 20.0492 18.4186 20.5116 18.4186H26.7907C27.2531 18.4186 27.6279 18.7934 27.6279 19.2558V26.7907C27.6279 27.2531 27.2531 27.6279 26.7907 27.6279H20.5116C20.0492 27.6279 19.6744 27.2531 19.6744 26.7907V19.2558ZM21.3488 20.093V25.9535H25.9535V20.093H21.3488Z" fill="#FF9700"/>
</g>
<defs>
<clipPath id="clip0">
<rect width="36" height="35.1628" fill="white"/>
</clipPath>
</defs>
</svg>
