<svg width="67" height="67" viewBox="0 0 67 67" fill="none" xmlns="http://www.w3.org/2000/svg">
<path fill-rule="evenodd" clip-rule="evenodd" d="M0.5 7C0.5 3.41015 3.41015 0.5 7 0.5H50C53.5899 0.5 56.5 3.41015 56.5 7V24.5H55C56.5 24.5 56.5 24.4999 56.5 24.5V38C56.5 38.8284 55.8284 39.5 55 39.5C54.1716 39.5 53.5 38.8284 53.5 38V26H3.5V43.25H43.5C44.3284 43.25 45 43.9216 45 44.75C45 45.5784 44.3284 46.25 43.5 46.25H3.5V60C3.5 61.933 5.067 63.5 7 63.5H50C51.933 63.5 53.5 61.933 53.5 60V52.5C53.5 51.6716 54.1716 51 55 51C55.8284 51 56.5 51.6716 56.5 52.5V60C56.5 63.5899 53.5899 66.5 50 66.5H7C3.41015 66.5 0.5 63.5899 0.5 60V7ZM3.5 23H53.5V7C53.5 5.067 51.933 3.5 50 3.5H7C5.067 3.5 3.5 5.067 3.5 7V23ZM47.0607 9.93934C47.6464 10.5251 47.6464 11.4749 47.0607 12.0607L42.2678 16.8536C41.2915 17.8299 39.7085 17.8299 38.7322 16.8536L36.4393 14.5607C35.8536 13.9749 35.8536 13.0251 36.4393 12.4393C37.0251 11.8536 37.9749 11.8536 38.5607 12.4393L40.5 14.3787L44.9393 9.93934C45.5251 9.35355 46.4749 9.35355 47.0607 9.93934ZM9.5 15C9.5 14.1716 10.1716 13.5 11 13.5H30.5C31.3284 13.5 32 14.1716 32 15C32 15.8284 31.3284 16.5 30.5 16.5H11C10.1716 16.5 9.5 15.8284 9.5 15ZM9.5 34C9.5 33.1716 10.1716 32.5 11 32.5H30C30.8284 32.5 31.5 33.1716 31.5 34C31.5 34.8284 30.8284 35.5 30 35.5H11C10.1716 35.5 9.5 34.8284 9.5 34ZM9.5 54C9.5 53.1716 10.1716 52.5 11 52.5H30C30.8284 52.5 31.5 53.1716 31.5 54C31.5 54.8284 30.8284 55.5 30 55.5H11C10.1716 55.5 9.5 54.8284 9.5 54Z" fill="#F51F8A"/>
<path fill-rule="evenodd" clip-rule="evenodd" d="M40.5624 33.3428C40.9642 32.941 41.5584 32.8007 42.0974 32.9804L61.1893 39.3444C61.745 39.5296 62.1421 40.0214 62.206 40.6037C62.2699 41.186 61.989 41.7522 61.4867 42.0536L57.8308 44.2472L66.3991 52.8154C66.9849 53.4012 66.9849 54.351 66.3991 54.9368L62.101 59.2349C61.8186 59.5172 61.4354 59.6753 61.0361 59.6742C60.6368 59.6731 60.2545 59.5128 59.9737 59.2289L51.4611 50.6207L49.2733 54.267C48.9719 54.7694 48.4057 55.0503 47.8234 54.9863C47.2411 54.9224 46.7493 54.5254 46.564 53.9696L40.2001 34.8778C40.0204 34.3388 40.1607 33.7445 40.5624 33.3428ZM43.9948 36.7751L48.3787 49.927L49.8828 47.4203C50.1212 47.0229 50.5299 46.7581 50.9899 46.7027C51.45 46.6474 51.9098 46.8078 52.2356 47.1373L61.0463 56.0469L63.2171 53.8761L54.351 45.01C54.0244 44.6834 53.8665 44.2245 53.9229 43.7661C53.9793 43.3076 54.2438 42.9008 54.6399 42.6631L57.1467 41.1591L43.9948 36.7751Z" fill="#F51F8A"/>
</svg>
