<svg width="64" height="67" viewBox="0 0 64 67" fill="none" xmlns="http://www.w3.org/2000/svg">
<path fill-rule="evenodd" clip-rule="evenodd" d="M0 7.5C0 3.35786 2.95812 0 6.60714 0H30.3929C34.0419 0 37 3.35786 37 7.5V8C37 8.82843 36.4084 9.5 35.6786 9.5C34.9488 9.5 34.3571 8.82843 34.3571 8V7.5C34.3571 5.01472 32.5823 3 30.3929 3H6.60714C4.41773 3 2.64286 5.01472 2.64286 7.5V9.69697H25.2038C25.9336 9.69697 26.5253 10.3685 26.5253 11.197C26.5253 12.0254 25.9336 12.697 25.2038 12.697H2.64286V50.4242H34.3571V36C34.3571 35.1716 34.9488 34.5 35.6786 34.5C36.4084 34.5 37 35.1716 37 36V59.5C37 63.6421 34.0419 67 30.3929 67H6.60714C2.95812 67 0 63.6421 0 59.5V7.5ZM34.3571 53.4242H2.64286V59.5C2.64286 61.9853 4.41773 64 6.60714 64H30.3929C32.5823 64 34.3571 61.9853 34.3571 59.5V53.4242ZM14.0952 59C14.0952 58.1716 14.6869 57.5 15.4167 57.5H21.5833C22.3131 57.5 22.9048 58.1716 22.9048 59C22.9048 59.8284 22.3131 60.5 21.5833 60.5H15.4167C14.6869 60.5 14.0952 59.8284 14.0952 59Z" fill="#F51F8A"/>
<path fill-rule="evenodd" clip-rule="evenodd" d="M21.5 21.5C21.5 13.2157 28.2157 6.5 36.5 6.5H48.5C56.7843 6.5 63.5 13.2157 63.5 21.5C63.5 29.7843 56.7843 36.5 48.5 36.5H36.5C28.2157 36.5 21.5 29.7843 21.5 21.5ZM36.5 9.5C29.8726 9.5 24.5 14.8726 24.5 21.5C24.5 28.1274 29.8726 33.5 36.5 33.5H48.5C55.1274 33.5 60.5 28.1274 60.5 21.5C60.5 14.8726 55.1274 9.5 48.5 9.5H36.5ZM49.5194 16.8996C50.1271 17.4626 50.1634 18.4117 49.6004 19.0194L43.3075 25.8123C43.2945 25.8263 43.2813 25.84 43.2678 25.8536C42.2914 26.8299 40.7086 26.8299 39.7323 25.8536L40.7929 24.7929L39.7323 25.8536L36.4393 22.5607C35.8536 21.9749 35.8536 21.0251 36.4393 20.4393C37.0251 19.8536 37.9749 19.8536 38.5607 20.4393L41.4857 23.3644L47.3996 16.9806C47.9626 16.3729 48.9117 16.3366 49.5194 16.8996ZM41.853 23.7316C41.8532 23.7318 41.8534 23.732 41.8536 23.7322L41.5 24.0858L41.8536 23.7322L41.853 23.7316Z" fill="#F51F8A"/>
</svg>
