<svg width="36" height="39" viewBox="0 0 36 39" fill="none" xmlns="http://www.w3.org/2000/svg">
<g clip-path="url(#clip0)">
<path fill-rule="evenodd" clip-rule="evenodd" d="M0.545473 3.67277C5.67749 1.47334 11.288 0 18 0C25.1844 0 31.3311 2.19821 34.5901 3.3637C34.8829 3.46843 35.1525 3.56482 35.3974 3.65053C35.7583 3.77688 36 4.11755 36 4.5V19.8C36 21.9889 35.1776 24.2028 34.2082 26.0368C33.2348 27.8784 32.0673 29.4233 31.2693 30.3017C29.7309 32.0308 27.192 33.7754 24.7497 35.2318C22.2835 36.7024 19.8262 37.9309 18.3855 38.6133C18.1697 38.7156 17.9222 38.7278 17.6974 38.6475C15.09 37.7163 12.3243 36.2151 9.98847 34.6693C7.68323 33.1439 5.7083 31.5167 4.71389 30.283C3.00919 28.3827 1.83832 26.1476 1.09271 24.1671C0.350925 22.1967 0 20.3967 0 19.35V4.5C0 4.13997 0.214557 3.81459 0.545473 3.67277ZM1.8 5.09711V19.35C1.8 20.1033 2.07907 21.6783 2.77729 23.5329C3.46918 25.3707 4.54297 27.4024 6.06896 29.0979C6.08062 29.1109 6.09189 29.1242 6.10278 29.1378C6.91388 30.1516 8.70986 31.6648 10.9818 33.1682C13.1287 34.589 15.6205 35.948 17.9543 36.8247C19.3906 36.1345 21.6099 35.0084 23.8279 33.6857C26.2513 32.2406 28.5854 30.6117 29.9273 29.102L29.934 29.0946H29.9341C30.6361 28.3224 31.7165 26.899 32.6168 25.1957C33.5225 23.4822 34.2 21.5711 34.2 19.8V5.13601C34.1317 5.11166 34.0622 5.08683 33.9915 5.06156C30.73 3.89707 24.8567 1.8 18 1.8C11.8073 1.8 6.5973 3.10549 1.8 5.09711ZM4.13469 7.27747C9.1593 5.04587 15.5401 4.5 18.0002 4.5C18.4972 4.5 18.9002 4.90295 18.9002 5.4V29.7C18.9002 30.1971 18.4972 30.6 18.0002 30.6C17.5031 30.6 17.1002 30.1971 17.1002 29.7V6.32074C14.4575 6.43144 9.49167 7.01186 5.4 8.69405V19.7819C5.4347 20.5862 5.82948 22.1331 6.73382 23.8877C7.63235 25.631 8.9957 27.5033 10.8912 28.9807C11.7017 29.5697 13.0488 30.4967 14.4561 31.3637C15.7298 32.1486 16.9941 32.8473 17.9418 33.2208C19.5824 32.3816 22.8376 30.6029 25.1269 28.9677C26.0779 28.2883 27.4671 26.9692 28.6122 25.3039C29.7608 23.6331 30.6 21.7074 30.6 19.8V8.72168C28.8018 8.08372 24.9685 7.03033 21.5262 6.74697C21.0307 6.70619 20.6623 6.27154 20.7031 5.77616C20.7438 5.28079 21.1784 4.91225 21.6738 4.95303C25.7351 5.28734 30.2649 6.62178 31.841 7.26711C32.1791 7.40555 32.4 7.73465 32.4 8.1V19.8C32.4 22.2126 31.3525 24.4952 30.0954 26.3237C28.8346 28.1575 27.2987 29.6284 26.1731 30.4323C23.596 32.2732 19.9169 34.2478 18.4027 35.005C18.1892 35.1117 17.9419 35.1293 17.7155 35.0538C16.5275 34.6577 14.9499 33.7823 13.5118 32.8963C12.0533 31.9975 10.6616 31.0395 9.82071 30.4279C9.81279 30.4222 9.80514 30.4164 9.79749 30.4105C7.64887 28.7393 6.12763 26.6405 5.13383 24.7123C4.15002 22.8035 3.64402 20.9842 3.60064 19.8339C3.60022 19.8226 3.6 19.8113 3.6 19.8V8.1C3.6 7.74425 3.80956 7.42188 4.13469 7.27747Z" fill="#BBBB05"/>
</g>
<defs>
<clipPath id="clip0">
<rect width="36" height="38.7" fill="white"/>
</clipPath>
</defs>
</svg>
