<svg width="81" height="99" viewBox="0 0 81 99" fill="none" xmlns="http://www.w3.org/2000/svg">
<path fill-rule="evenodd" clip-rule="evenodd" d="M77.6249 99H3.37514C1.51214 99 0 97.5544 0 95.7715V3.2285C0 1.44668 1.51214 0 3.37514 0H50.6249C51.519 0 52.3792 0.341842 53.0108 0.946209L80.0108 26.7731C80.6446 27.3775 81 28.1997 81 29.0554V95.7715C81 97.5544 79.4879 99 77.6249 99Z" fill="#D6DCE7"/>
<path fill-rule="evenodd" clip-rule="evenodd" d="M52.6656 0.945102C52.0166 0.336734 51.1506 -0.00211562 50.2503 9.9398e-06H40V99H77.5832C79.4692 99 81 97.5533 81 95.7715V29.0532C81 28.1975 80.6402 27.3753 79.9986 26.7709L52.6656 0.945102Z" fill="#ACBBD3"/>
<path fill-rule="evenodd" clip-rule="evenodd" d="M80.0046 26.5375L52.8027 0.936825C52.1566 0.333521 51.2943 -0.00238158 50.3979 1.27123e-05H47V28.7998C47 30.566 48.5211 32 50.3991 32H81V28.7998C81 27.9504 80.642 27.1377 80.0046 26.5375Z" fill="#3C7BDF"/>
<path fill-rule="evenodd" clip-rule="evenodd" d="M17.3126 47C19.1421 47 20.6251 48.4777 20.6251 50.3002C20.6251 52.1228 19.1421 53.6005 17.3126 53.6005C15.483 53.6005 14 52.1228 14 50.3002C14 48.4777 15.483 47 17.3126 47ZM17.3126 60.1998C19.1421 60.1998 20.6251 61.6774 20.6251 63.5C20.6251 65.3225 19.1421 66.8002 17.3126 66.8002C15.483 66.8002 14 65.3225 14 63.5C14 61.6774 15.483 60.1998 17.3126 60.1998ZM17.3126 73.3995C19.1421 73.3995 20.6251 74.8772 20.6251 76.6998C20.6251 78.5223 19.1421 80 17.3126 80C15.483 80 14 78.5223 14 76.6998C14 74.8772 15.483 73.3995 17.3126 73.3995ZM63.6874 80H30.5617C28.7344 80 27.2503 78.5212 27.2503 76.6998C27.2503 74.8772 28.7344 73.3995 30.5628 73.3995H63.6874C65.5159 73.3995 67 74.8772 67 76.6998C67 78.5212 65.5159 80 63.6874 80Z" fill="#FFFFFE"/>
<path fill-rule="evenodd" clip-rule="evenodd" d="M63.625 73H40V80H63.625C65.4879 80 67 78.4317 67 76.5C67 74.5671 65.4879 73 63.625 73Z" fill="#E9F3F7"/>
<path fill-rule="evenodd" clip-rule="evenodd" d="M63.6666 66.9988H30.3323C28.4934 66.9988 27 65.4317 27 63.4988C27 61.5683 28.4934 60 30.3334 60H63.6666C65.5066 60 67 61.5683 67 63.5C67 65.4317 65.5066 67 63.6666 67" fill="#FFFFFE"/>
<path fill-rule="evenodd" clip-rule="evenodd" d="M63.625 60H40V67H63.625C65.4879 67 67 65.4317 67 63.5C67 61.5683 65.4879 60 63.625 60Z" fill="#E9F3F7"/>
<path fill-rule="evenodd" clip-rule="evenodd" d="M63.6666 54H30.3323C28.4934 54 27 52.4317 27 50.5C27 48.5671 28.4934 47 30.3334 47H63.6666C65.5066 47 67 48.5671 67 50.5C67 52.4317 65.5066 54 63.6666 54Z" fill="#FFFFFE"/>
<path fill-rule="evenodd" clip-rule="evenodd" d="M63.625 47H40V54H63.625C65.4879 54 67 52.4317 67 50.5C67 48.5671 65.4879 47 63.625 47Z" fill="#E9F3F7"/>
</svg>
