<svg width="36" height="36" viewBox="0 0 36 36" fill="none" xmlns="http://www.w3.org/2000/svg">
<g clip-path="url(#clip0)">
<path d="M19.8918 15.2533C20.4025 15.2533 20.8177 15.6011 20.8177 16.0286C20.8177 16.4169 21.1327 16.7318 21.5209 16.7318C21.9092 16.7318 22.2241 16.4169 22.2241 16.0286C22.2241 15.0549 21.5383 14.2282 20.595 13.9485V13.8508C20.595 13.4625 20.2801 13.1476 19.8918 13.1476C19.5035 13.1476 19.1887 13.4625 19.1887 13.8508V13.9485C18.2452 14.2282 17.5596 15.0549 17.5596 16.0286C17.5596 17.2316 18.6058 18.2102 19.8918 18.2102C20.4025 18.2102 20.8177 18.5581 20.8177 18.9856C20.8177 19.4131 20.4025 19.7608 19.8918 19.7608C19.3813 19.7608 18.9659 19.4131 18.9659 18.9856C18.9659 18.5973 18.6511 18.2824 18.2628 18.2824C17.8745 18.2824 17.5596 18.5973 17.5596 18.9856C17.5596 19.9594 18.2452 20.786 19.1887 21.0657V21.1634C19.1887 21.5517 19.5035 21.8665 19.8918 21.8665C20.2801 21.8665 20.595 21.5517 20.595 21.1634V21.0657C21.5383 20.786 22.2241 19.9594 22.2241 18.9856C22.2241 17.7826 21.1777 16.804 19.8918 16.804C19.3813 16.804 18.9659 16.4561 18.9659 16.0286C18.9659 15.6011 19.3813 15.2533 19.8918 15.2533Z" fill="#1CA440"/>
<path d="M35.8941 23.4886C35.6185 22.5325 34.8426 21.8102 33.8695 21.6032C33.2463 21.4705 32.5981 21.5674 32.0445 21.8615C32.3651 19.8684 32.1968 17.8068 31.5373 15.885C31.4112 15.5177 31.0112 15.3224 30.6439 15.4481C30.2766 15.5742 30.081 15.9742 30.2071 16.3415C30.986 18.611 30.9923 21.1007 30.2292 23.373L24.6257 28.3497C24.28 28.6567 23.9008 28.917 23.4979 29.1283C23.6118 28.6674 23.6041 28.1794 23.4672 27.7157C23.2511 26.9835 22.7323 26.3744 22.0437 26.0447L17.0799 23.667C14.9097 22.6276 12.3696 22.5074 10.1109 23.3366L9.60634 23.5218C8.20581 19.5654 9.18069 15.1777 12.1798 12.1786L17.144 7.2146H22.6395L26.8455 11.4206C27.1203 11.6952 27.5653 11.6952 27.84 11.4206C28.1146 11.1461 28.1146 10.7008 27.84 10.4262L23.8213 6.4076L25.2741 2.22682C25.4688 1.66634 25.2537 1.05488 24.7509 0.739729C24.2483 0.424648 23.6042 0.497705 23.1846 0.917059L23.1759 0.925707C22.8853 1.21647 22.4122 1.21647 22.1216 0.925707C20.8875 -0.308244 18.8797 -0.308244 17.6456 0.925707C17.5048 1.06655 17.3175 1.14404 17.1184 1.14404C16.9193 1.14404 16.732 1.06648 16.5913 0.925707C16.1713 0.505721 15.5267 0.433015 15.0237 0.749081C14.5207 1.06508 14.3065 1.67738 14.5027 2.23807L15.9618 6.40802L11.1855 11.1843C9.41786 12.952 8.2428 15.1807 7.78758 17.6294C7.38826 19.7768 7.56123 21.9666 8.28513 24.0072L7.17662 24.4141C6.80775 23.9345 6.2287 23.6246 5.57835 23.6246H2.01572C0.904251 23.6247 0 24.5289 0 25.6404V33.9843C0 35.0957 0.904251 36 2.01572 36H20.5482C23.4591 36 26.2119 34.8827 28.2993 32.8539L35.1844 26.1624C35.8979 25.4691 36.1698 24.4446 35.8941 23.4886ZM17.1183 2.5504C17.6931 2.5504 18.2335 2.3266 18.6399 1.92017C19.3257 1.23447 20.4414 1.23447 21.1271 1.92017C21.5336 2.3266 22.074 2.5504 22.6488 2.5504C23.0569 2.5504 23.4476 2.43762 23.7854 2.22668L22.5408 5.80837H17.2419L15.9904 2.23202C16.3263 2.43945 16.7137 2.5504 17.1183 2.5504ZM1.4063 33.9844V25.6404C1.4063 25.3043 1.67968 25.0309 2.01572 25.0309H5.57829C5.91432 25.0309 6.18771 25.3043 6.18771 25.6404V33.9843C6.18771 34.3204 5.91432 34.5937 5.57829 34.5937H2.01572C1.67968 34.5938 1.4063 34.3204 1.4063 33.9844ZM34.2043 25.154L27.3191 31.8455C25.4956 33.6178 23.091 34.5938 20.5482 34.5938H7.49957C7.56075 34.4014 7.594 34.1967 7.594 33.9844V25.759L10.5956 24.6569C12.5002 23.9576 14.6424 24.059 16.4724 24.9355L21.4363 27.3131C21.7711 27.4734 22.0133 27.7578 22.1184 28.1139C22.2234 28.47 22.1745 28.8405 21.9803 29.1569C21.6684 29.6652 21.0535 29.8939 20.4852 29.7134L13.8906 27.6163C13.5207 27.4987 13.1252 27.7032 13.0074 28.0734C12.8898 28.4435 13.0943 28.8389 13.4644 28.9566L20.059 31.0535C20.3307 31.1399 20.6072 31.1814 20.8802 31.1814C20.9131 31.1814 20.9459 31.1795 20.9787 31.1783C22.6698 31.1539 24.293 30.5261 25.5595 29.4013L32.4579 23.2746C32.7614 23.005 33.1798 22.8945 33.5768 22.9788C34.048 23.0791 34.4092 23.4154 34.5427 23.8784C34.6765 24.3413 34.5499 24.8181 34.2043 25.154Z" fill="#1CA440"/>
<path d="M29.4433 13.992C29.6282 13.992 29.8097 13.9174 29.9404 13.7859C30.0711 13.6551 30.1465 13.4744 30.1465 13.2889C30.1465 13.1039 30.0712 12.9232 29.9404 12.7918C29.8097 12.661 29.6282 12.5857 29.4433 12.5857C29.2584 12.5857 29.0777 12.661 28.9462 12.7918C28.8154 12.9232 28.7402 13.1039 28.7402 13.2889C28.7402 13.4745 28.8154 13.6551 28.9462 13.7859C29.0769 13.9175 29.2584 13.992 29.4433 13.992Z" fill="#1CA440"/>
</g>
<defs>
<clipPath id="clip0">
<rect width="36" height="36" fill="white"/>
</clipPath>
</defs>
</svg>
