<svg width="56" height="56" viewBox="0 0 56 56" fill="none" xmlns="http://www.w3.org/2000/svg">
<g clip-path="url(#clip0)">
<path d="M27.9991 17.3315C22.1155 17.3315 17.3291 22.118 17.3291 28.0012C17.3291 33.8848 22.1155 38.6712 27.9991 38.6712C33.8823 38.6712 38.6688 33.8848 38.6688 28.0012C38.6688 22.118 33.8823 17.3315 27.9991 17.3315ZM34.3339 25.9918L26.6901 33.6357C26.3692 33.9565 25.9484 34.1172 25.528 34.1172C25.1075 34.1172 24.6871 33.957 24.3663 33.6357L21.4452 30.7146C20.8035 30.0733 20.8035 29.033 21.4452 28.3912C22.0865 27.7495 23.1268 27.7495 23.7686 28.3912L25.528 30.1506L32.0106 23.6685C32.6519 23.0267 33.6922 23.0267 34.3339 23.6685C34.9756 24.3098 34.9756 25.3501 34.3339 25.9918Z" fill="#1CA440"/>
<path d="M51.7876 15.1942L51.7859 15.1506C51.7616 14.6127 51.7453 14.0436 51.7355 13.4105C51.6898 10.3228 49.2353 7.7687 46.1471 7.59609C39.7086 7.23678 34.7277 5.1373 30.472 0.989179L30.4356 0.954572C29.0475 -0.318191 26.9536 -0.318191 25.565 0.954572L25.5287 0.989179C21.2729 5.1373 16.2921 7.23678 9.85354 7.59652C6.76584 7.7687 4.31089 10.3228 4.26518 13.4109C4.25578 14.0398 4.23912 14.6089 4.21476 15.1506L4.2122 15.2519C4.08702 21.8174 3.9315 29.9884 6.66501 37.405C8.16806 41.4835 10.4444 45.0287 13.4304 47.943C16.8313 51.2618 21.2858 53.8966 26.6699 55.7739C26.8451 55.835 27.0271 55.8846 27.2125 55.9218C27.474 55.9739 27.7372 56 28.0003 56C28.2635 56 28.5271 55.9739 28.7882 55.9218C28.9736 55.8846 29.1569 55.8346 29.3329 55.7731C34.7106 53.8924 39.1604 51.2562 42.5583 47.9378C45.543 45.0227 47.8194 41.4766 49.3237 37.3973C52.0675 29.9585 51.9124 21.7721 51.7876 15.1942ZM27.9995 41.9568C20.304 41.9568 14.0435 35.6964 14.0435 28.0009C14.0435 20.3053 20.304 14.0449 27.9995 14.0449C35.6946 14.0449 41.9554 20.3053 41.9554 28.0009C41.9554 35.6964 35.6946 41.9568 27.9995 41.9568Z" fill="#1CA440"/>
</g>
<defs>
<clipPath id="clip0">
<rect width="56" height="56" fill="white"/>
</clipPath>
</defs>
</svg>
