<svg width="36" height="28" viewBox="0 0 36 28" fill="none" xmlns="http://www.w3.org/2000/svg">
<g clip-path="url(#clip0)">
<path fill-rule="evenodd" clip-rule="evenodd" d="M17.6356 0.0878015C17.8644 -0.0292672 18.1356 -0.0292672 18.3644 0.0878015L35.5644 8.88784C35.8271 9.02224 35.9946 9.2904 35.9998 9.58552C36.0052 9.88064 35.8476 10.1547 35.5899 10.2986L29.6 13.6418V21.6C29.6 21.7338 29.5664 21.8656 29.5023 21.9831C28.1652 24.4345 25.7134 25.8266 23.4617 26.606C21.2006 27.3887 19.0108 27.6 18 27.6C10.9569 27.6 7.38953 23.6731 6.46469 21.5151C6.42201 21.4155 6.4 21.3083 6.4 21.2V13.6418L3.2 11.8557V21.2C3.2 21.6418 2.84183 22 2.4 22C1.95818 22 1.6 21.6418 1.6 21.2V10.9627L0.410107 10.2986C0.15238 10.1547 -0.00520533 9.88064 0.000131385 9.58552C0.0054681 9.2904 0.17286 9.02224 0.43562 8.88784L17.6356 0.0878015ZM4.94796 10.999L18 18.2838L33.5035 9.63064L18 1.69862L2.49644 9.63064L2.56378 9.66824L16.7066 8.00544C17.1454 7.95388 17.543 8.26776 17.5946 8.70656C17.6461 9.14536 17.3322 9.54296 16.8934 9.59456L4.94796 10.999ZM8 14.5348V21.0269C8.78712 22.6628 11.7888 26 18 26C18.8558 26 20.8661 25.8113 22.9383 25.094C24.9578 24.395 26.9145 23.2372 28 21.3894V14.5348L18.3899 19.8986C18.1476 20.0338 17.8524 20.0338 17.6101 19.8986L8 14.5348Z" fill="#0099FA"/>
<path fill-rule="evenodd" clip-rule="evenodd" d="M18 7.99999C17.7791 7.99999 17.6 8.17911 17.6 8.39999C17.6 8.62087 17.7791 8.79999 18 8.79999C18.2209 8.79999 18.4 8.62087 18.4 8.39999C18.4 8.17911 18.2209 7.99999 18 7.99999ZM16 8.39999C16 7.29543 16.8954 6.39999 18 6.39999C19.1046 6.39999 20 7.29543 20 8.39999C20 9.50455 19.1046 10.4 18 10.4C16.8954 10.4 16 9.50455 16 8.39999Z" fill="#0099FA"/>
<path fill-rule="evenodd" clip-rule="evenodd" d="M2.4 21.6C1.95818 21.6 1.6 21.9582 1.6 22.4C1.6 22.8418 1.95818 23.2 2.4 23.2C2.84182 23.2 3.2 22.8418 3.2 22.4C3.2 21.9582 2.84182 21.6 2.4 21.6ZM0 22.4C0 21.0745 1.07452 20 2.4 20C3.72548 20 4.8 21.0745 4.8 22.4C4.8 23.7255 3.72548 24.8 2.4 24.8C1.07452 24.8 0 23.7255 0 22.4Z" fill="#0099FA"/>
</g>
<defs>
<clipPath id="clip0">
<rect width="36" height="28" fill="white"/>
</clipPath>
</defs>
</svg>
