<svg width="42" height="42" viewBox="0 0 42 42" fill="none" xmlns="http://www.w3.org/2000/svg">
<g clip-path="url(#clip0)">
<path d="M41.1056 32.4598L31.4997 22.8539C29.6048 20.959 26.7747 20.5898 24.4942 21.7137L15.7497 12.9691V7.875L5.24971 0L-0.000293031 5.25L7.87471 15.75H12.9688L21.7134 24.4945C20.5978 26.775 20.9587 29.6051 22.8536 31.5L32.4595 41.1059C33.6571 42.3035 35.5931 42.3035 36.7825 41.1059L41.1056 36.7828C42.295 35.5852 42.295 33.6492 41.1056 32.4598ZM27.2095 18.457C29.531 18.457 31.713 19.3594 33.3536 21L34.945 22.5914C36.2411 22.0254 37.4716 21.2379 38.538 20.1715C41.5813 17.1281 42.6149 12.8461 41.647 8.95781C41.4665 8.21953 40.5396 7.96523 39.9981 8.50664L33.895 14.6098L28.3251 13.6828L27.3981 8.11289L33.5013 2.00977C34.0427 1.46836 33.7802 0.541406 33.0337 0.352734C29.1454 -0.607031 24.8634 0.426563 21.8282 3.46172C19.4903 5.79961 18.3911 8.88398 18.4485 11.9602L25.1833 18.6949C25.8478 18.5391 26.5368 18.457 27.2095 18.457ZM18.6864 25.1836L14.0353 20.5324L1.53369 33.0422C-0.51709 35.093 -0.51709 38.4152 1.53369 40.466C3.58447 42.5168 6.90674 42.5168 8.95752 40.466L19.0966 30.327C18.4731 28.6945 18.2845 26.9145 18.6864 25.1836ZM5.24971 38.7188C4.16689 38.7188 3.28096 37.8328 3.28096 36.75C3.28096 35.659 4.15869 34.7812 5.24971 34.7812C6.34072 34.7812 7.21846 35.659 7.21846 36.75C7.21846 37.8328 6.34072 38.7188 5.24971 38.7188Z" fill="#15549A"/>
</g>
<defs>
<clipPath id="clip0">
<rect width="42" height="42" fill="white"/>
</clipPath>
</defs>
</svg>
