<svg width="94" height="74" viewBox="0 0 94 74" fill="none" xmlns="http://www.w3.org/2000/svg">
<path d="M10.9366 57.04V59.3H7.21664V71H4.41664V59.3H0.696641V57.04H10.9366ZM15.7796 61.64C16.1396 61.0533 16.6063 60.5933 17.1796 60.26C17.7663 59.9267 18.4329 59.76 19.1796 59.76V62.7H18.4396C17.5596 62.7 16.8929 62.9067 16.4396 63.32C15.9996 63.7333 15.7796 64.4533 15.7796 65.48V71H12.9796V59.92H15.7796V61.64ZM20.3455 65.42C20.3455 64.3 20.5655 63.3067 21.0055 62.44C21.4589 61.5733 22.0655 60.9067 22.8255 60.44C23.5989 59.9733 24.4589 59.74 25.4055 59.74C26.2322 59.74 26.9522 59.9067 27.5655 60.24C28.1922 60.5733 28.6922 60.9933 29.0655 61.5V59.92H31.8855V71H29.0655V69.38C28.7055 69.9 28.2055 70.3333 27.5655 70.68C26.9389 71.0133 26.2122 71.18 25.3855 71.18C24.4522 71.18 23.5989 70.94 22.8255 70.46C22.0655 69.98 21.4589 69.3067 21.0055 68.44C20.5655 67.56 20.3455 66.5533 20.3455 65.42ZM29.0655 65.46C29.0655 64.78 28.9322 64.2 28.6655 63.72C28.3989 63.2267 28.0389 62.8533 27.5855 62.6C27.1322 62.3333 26.6455 62.2 26.1255 62.2C25.6055 62.2 25.1255 62.3267 24.6855 62.58C24.2455 62.8333 23.8855 63.2067 23.6055 63.7C23.3389 64.18 23.2055 64.7533 23.2055 65.42C23.2055 66.0867 23.3389 66.6733 23.6055 67.18C23.8855 67.6733 24.2455 68.0533 24.6855 68.32C25.1389 68.5867 25.6189 68.72 26.1255 68.72C26.6455 68.72 27.1322 68.5933 27.5855 68.34C28.0389 68.0733 28.3989 67.7 28.6655 67.22C28.9322 66.7267 29.0655 66.14 29.0655 65.46ZM33.9002 65.42C33.9002 64.3 34.1202 63.3067 34.5602 62.44C35.0136 61.5733 35.6269 60.9067 36.4002 60.44C37.1736 59.9733 38.0336 59.74 38.9802 59.74C39.7002 59.74 40.3869 59.9 41.0402 60.22C41.6936 60.5267 42.2136 60.94 42.6002 61.46V56.2H45.4402V71H42.6002V69.36C42.2536 69.9067 41.7669 70.3467 41.1402 70.68C40.5136 71.0133 39.7869 71.18 38.9602 71.18C38.0269 71.18 37.1736 70.94 36.4002 70.46C35.6269 69.98 35.0136 69.3067 34.5602 68.44C34.1202 67.56 33.9002 66.5533 33.9002 65.42ZM42.6202 65.46C42.6202 64.78 42.4869 64.2 42.2202 63.72C41.9536 63.2267 41.5936 62.8533 41.1402 62.6C40.6869 62.3333 40.2002 62.2 39.6802 62.2C39.1602 62.2 38.6802 62.3267 38.2402 62.58C37.8002 62.8333 37.4402 63.2067 37.1602 63.7C36.8936 64.18 36.7602 64.7533 36.7602 65.42C36.7602 66.0867 36.8936 66.6733 37.1602 67.18C37.4402 67.6733 37.8002 68.0533 38.2402 68.32C38.6936 68.5867 39.1736 68.72 39.6802 68.72C40.2002 68.72 40.6869 68.5933 41.1402 68.34C41.5936 68.0733 41.9536 67.7 42.2202 67.22C42.4869 66.7267 42.6202 66.14 42.6202 65.46ZM58.4749 65.22C58.4749 65.62 58.4483 65.98 58.3949 66.3H50.2949C50.3616 67.1 50.6416 67.7267 51.1349 68.18C51.6283 68.6333 52.2349 68.86 52.9549 68.86C53.9949 68.86 54.7349 68.4133 55.1749 67.52H58.1949C57.8749 68.5867 57.2616 69.4667 56.3549 70.16C55.4483 70.84 54.3349 71.18 53.0149 71.18C51.9483 71.18 50.9883 70.9467 50.1349 70.48C49.2949 70 48.6349 69.3267 48.1549 68.46C47.6883 67.5933 47.4549 66.5933 47.4549 65.46C47.4549 64.3133 47.6883 63.3067 48.1549 62.44C48.6216 61.5733 49.2749 60.9067 50.1149 60.44C50.9549 59.9733 51.9216 59.74 53.0149 59.74C54.0683 59.74 55.0083 59.9667 55.8349 60.42C56.6749 60.8733 57.3216 61.52 57.7749 62.36C58.2416 63.1867 58.4749 64.14 58.4749 65.22ZM55.5749 64.42C55.5616 63.7 55.3016 63.1267 54.7949 62.7C54.2883 62.26 53.6683 62.04 52.9349 62.04C52.2416 62.04 51.6549 62.2533 51.1749 62.68C50.7083 63.0933 50.4216 63.6733 50.3149 64.42H55.5749ZM69.0387 62.68V65.04H60.5587V62.68H69.0387ZM82.4788 65.22C82.4788 65.62 82.4522 65.98 82.3988 66.3H74.2988C74.3655 67.1 74.6455 67.7267 75.1388 68.18C75.6322 68.6333 76.2388 68.86 76.9588 68.86C77.9988 68.86 78.7388 68.4133 79.1788 67.52H82.1988C81.8788 68.5867 81.2655 69.4667 80.3588 70.16C79.4522 70.84 78.3388 71.18 77.0188 71.18C75.9522 71.18 74.9922 70.9467 74.1388 70.48C73.2988 70 72.6388 69.3267 72.1588 68.46C71.6922 67.5933 71.4588 66.5933 71.4588 65.46C71.4588 64.3133 71.6922 63.3067 72.1588 62.44C72.6255 61.5733 73.2788 60.9067 74.1188 60.44C74.9588 59.9733 75.9255 59.74 77.0188 59.74C78.0722 59.74 79.0122 59.9667 79.8388 60.42C80.6788 60.8733 81.3255 61.52 81.7788 62.36C82.2455 63.1867 82.4788 64.14 82.4788 65.22ZM79.5788 64.42C79.5655 63.7 79.3055 63.1267 78.7988 62.7C78.2922 62.26 77.6722 62.04 76.9388 62.04C76.2455 62.04 75.6588 62.2533 75.1788 62.68C74.7122 63.0933 74.4255 63.6733 74.3188 64.42H79.5788ZM90.6426 71L88.3626 67.56L86.3426 71H83.3426L86.9626 65.44L83.3026 59.92H86.4626L88.7226 63.34L90.7626 59.92H93.7626L90.1226 65.44L93.8026 71H90.6426Z" fill="#3C4D6B"/>
<circle cx="47" cy="24" r="24" fill="#DF4040"/>
<path d="M56 13C57.1046 13 58 13.8954 58 15V16.2692C58 17.3738 57.1046 18.2692 56 18.2692H52.8066C51.7021 18.2692 50.8066 19.1647 50.8066 20.2692V33.1141C50.8066 33.6783 50.5683 34.2162 50.1505 34.5953L47.5372 36.9662C46.252 38.1322 44.1934 37.2203 44.1934 35.485V20.2692C44.1934 19.1647 43.2979 18.2692 42.1934 18.2692H39C37.8954 18.2692 37 17.3738 37 16.2692V15C37 13.8954 37.8954 13 39 13H56Z" fill="white"/>
</svg>
